<svg width="22" height="22" viewBox="0 0 22 22" fill="none" xmlns="http://www.w3.org/2000/svg">
<g clip-path="url(#clip0_167_1869)">
<path d="M21.1834 11.1083C21.1834 16.6974 16.6525 21.2283 11.0634 21.2283C5.47424 21.2283 0.943359 16.6974 0.943359 11.1083C0.943359 5.51916 5.47424 0.988281 11.0634 0.988281C16.6525 0.988281 21.1834 5.51916 21.1834 11.1083ZM1.95536 11.1083C1.95536 16.1385 6.03315 20.2163 11.0634 20.2163C16.0936 20.2163 20.1714 16.1385 20.1714 11.1083C20.1714 6.07807 16.0936 2.00028 11.0634 2.00028C6.03315 2.00028 1.95536 6.07807 1.95536 11.1083Z" fill="#F5F0F7"/>
<path d="M7.34878 10.0331L7.67423 9.84743C8.8498 11.9083 9.29427 12.6943 9.87671 14.1197C10.2931 12.7435 10.5889 12.1485 11.2808 10.8464C11.2836 10.841 11.2866 10.8358 11.2896 10.8306C12.5264 8.75204 14.8638 6.04272 15.7414 5.19425C15.9524 4.96591 16.3092 4.94946 16.5393 5.16798C16.7635 5.38093 16.7791 5.73478 16.5803 5.96762C14.9382 7.89015 13.8079 9.42737 12.9348 11.0703C12.0628 12.7114 11.435 14.4817 10.8239 16.8817C10.7651 17.1126 10.5655 17.2969 10.3094 17.3122M7.34878 10.0331L10.287 16.9379M7.34878 10.0331L7.67423 9.84743C7.51857 9.57456 7.16469 9.47093 6.88576 9.64787C6.61946 9.8168 6.54627 10.1645 6.69574 10.4265L7.02088 10.241L6.69574 10.4265C8.22037 13.0992 8.83229 14.4962 9.74748 16.9422L10.0987 16.8108M7.34878 10.0331L10.0987 16.8108M10.3094 17.3122L10.287 16.9379M10.3094 17.3122C10.3094 17.3122 10.3094 17.3122 10.3094 17.3122L10.287 16.9379M10.3094 17.3122C10.0524 17.3276 9.83165 17.1672 9.74748 16.9422L10.0987 16.8108M10.287 16.9379C10.2048 16.9428 10.1289 16.8916 10.0987 16.8108" stroke="#F5F0F7" stroke-width="0.75" stroke-linecap="round" stroke-linejoin="round"/>
</g>
<defs>
<clipPath id="clip0_167_1869">
<rect width="22" height="22" fill="white"/>
</clipPath>
</defs>
</svg>
