<svg width="71" height="71" viewBox="0 0 71 71" fill="none" xmlns="http://www.w3.org/2000/svg">
<path d="M38.8 20.4C38.8 30.562 30.562 38.8 20.4 38.8C10.238 38.8 2 30.562 2 20.4C2 10.238 10.238 2 20.4 2C30.562 2 38.8 10.238 38.8 20.4ZM3.84 20.4C3.84 29.5458 11.2542 36.96 20.4 36.96C29.5458 36.96 36.96 29.5458 36.96 20.4C36.96 11.2542 29.5458 3.84 20.4 3.84C11.2542 3.84 3.84 11.2542 3.84 20.4Z" fill="#3D0751"/>
<path d="M19.0319 31.7481C19.5291 31.7183 19.9155 31.3608 20.0293 30.9141C21.1396 26.5535 22.2794 23.3405 23.8615 20.3632C25.4455 17.3822 27.4971 14.5915 30.4811 11.0978C30.8661 10.6471 30.8359 9.96257 30.4017 9.5502C29.9559 9.12679 29.2646 9.15834 28.8554 9.59971C27.2551 11.1473 23.003 16.0762 20.7514 19.8604C20.7452 19.8708 20.7393 19.8813 20.7336 19.892C19.5049 22.2043 18.9615 23.2941 18.2315 25.6728C17.2055 23.1867 16.3847 21.736 14.2957 18.0739C13.9943 17.5455 13.3079 17.3439 12.7664 17.6873L13.1517 18.2946L12.7664 17.6873C12.2502 18.0147 12.1092 18.6876 12.3982 19.1943C15.1683 24.0504 16.2794 26.5869 17.9422 31.0312C18.105 31.4665 18.5328 31.778 19.0319 31.7481ZM19.0319 31.7481L18.9871 30.9994M19.0319 31.7481C19.0319 31.7481 19.0319 31.7481 19.0319 31.7481L18.9871 30.9994M18.9871 30.9994C18.8376 31.0084 18.6996 30.9152 18.6447 30.7684C18.278 29.7884 17.9375 28.8995 17.6001 28.0576L29.2719 10.2414C29.305 10.2087 29.3371 10.1773 29.3682 10.1472C29.3773 10.1384 29.3863 10.1296 29.3953 10.121C29.5235 9.97088 29.7429 9.95879 29.8852 10.094C30.0185 10.2206 30.0371 10.4314 29.9337 10.5809C29.9267 10.5912 29.9191 10.6011 29.9109 10.6107C29.9039 10.6188 29.897 10.6269 29.8901 10.635C29.8675 10.6614 29.845 10.6879 29.8225 10.7142C29.8548 10.7 29.8853 10.6815 29.9132 10.659C29.9224 10.6516 29.9313 10.6438 29.9398 10.6355C29.9488 10.6268 29.9574 10.6177 29.9656 10.6081C29.9574 10.6176 29.9491 10.6269 29.9405 10.636C29.9323 10.6446 29.924 10.6531 29.9154 10.6613C29.8228 10.7505 29.7201 10.8524 29.6084 10.9662C26.7688 14.3168 24.7646 17.0653 23.1992 20.0113C21.5795 23.0594 20.4215 26.3342 19.3024 30.729C19.2636 30.8815 19.1365 30.9905 18.9871 30.9994ZM29.3406 10.1236C29.3403 10.1239 29.34 10.1242 29.3398 10.1245L29.3406 10.1236Z" stroke="#37034B" stroke-width="1.5" stroke-linecap="round" stroke-linejoin="round"/>
<g clip-path="url(#clip0_157_7802)" filter="url(#filter0_f_157_7802)">
<path d="M63.35 38.05C63.35 52.0228 52.0228 63.35 38.05 63.35C24.0772 63.35 12.75 52.0228 12.75 38.05C12.75 24.0772 24.0772 12.75 38.05 12.75C52.0228 12.75 63.35 24.0772 63.35 38.05ZM15.28 38.05C15.28 50.6255 25.4745 60.82 38.05 60.82C50.6255 60.82 60.82 50.6255 60.82 38.05C60.82 25.4745 50.6255 15.28 38.05 15.28C25.4745 15.28 15.28 25.4745 15.28 38.05Z" fill="#7E0B92" fill-opacity="0.2"/>
<path d="M38.7749 37.4519C38.7687 37.4622 38.7628 37.4728 38.7571 37.4834C36.9489 40.8864 36.2288 42.3455 35.1081 46.1444C33.5536 42.2695 32.4832 40.3744 29.4124 34.991C29.0739 34.3977 28.3075 34.175 27.7045 34.5576C27.1267 34.924 26.9658 35.6812 27.2919 36.2529C31.109 42.9444 32.6429 46.446 34.934 52.5694C35.1174 53.0597 35.5969 53.4061 36.152 53.3728C36.7053 53.3397 37.1394 52.9413 37.2677 52.4375C38.7976 46.4288 40.3717 41.9878 42.5612 37.8674C44.7529 33.7429 47.5885 29.888 51.6977 25.0768C52.1307 24.5698 52.0963 23.7985 51.6087 23.3355C51.1091 22.861 50.3346 22.8975 49.8775 23.3962C47.6963 25.5035 41.8586 32.2692 38.7749 37.4519Z" stroke="#7E0B92" stroke-opacity="0.2" stroke-width="1.5" stroke-linecap="round" stroke-linejoin="round"/>
</g>
<defs>
<filter id="filter0_f_157_7802" x="4" y="4" width="67" height="67" filterUnits="userSpaceOnUse" color-interpolation-filters="sRGB">
<feFlood flood-opacity="0" result="BackgroundImageFix"/>
<feBlend mode="normal" in="SourceGraphic" in2="BackgroundImageFix" result="shape"/>
<feGaussianBlur stdDeviation="3" result="effect1_foregroundBlur_157_7802"/>
</filter>
<clipPath id="clip0_157_7802">
<rect width="55" height="55" fill="white" transform="translate(10 10)"/>
</clipPath>
</defs>
</svg>
