<svg width="40" height="40" viewBox="0 0 40 40" fill="none" xmlns="http://www.w3.org/2000/svg">
<path d="M38.8 20.4C38.8 30.562 30.562 38.8 20.4 38.8C10.238 38.8 2 30.562 2 20.4C2 10.238 10.238 2 20.4 2C30.562 2 38.8 10.238 38.8 20.4ZM3.84 20.4C3.84 29.5458 11.2542 36.96 20.4 36.96C29.5458 36.96 36.96 29.5458 36.96 20.4C36.96 11.2542 29.5458 3.84 20.4 3.84C11.2542 3.84 3.84 11.2542 3.84 20.4Z" fill="#3D0751"/>
<path d="M19.0319 31.7481C19.5291 31.7183 19.9155 31.3608 20.0293 30.9141C21.1396 26.5535 22.2794 23.3405 23.8615 20.3632C25.4455 17.3822 27.4971 14.5915 30.4811 11.0978C30.8661 10.6471 30.8359 9.96257 30.4017 9.5502C29.9559 9.12679 29.2646 9.15834 28.8554 9.59971C27.2551 11.1473 23.003 16.0762 20.7514 19.8604C20.7452 19.8708 20.7393 19.8813 20.7336 19.892C19.5049 22.2043 18.9615 23.2941 18.2315 25.6728C17.2055 23.1867 16.3847 21.736 14.2957 18.0739C13.9943 17.5455 13.3079 17.3439 12.7664 17.6873L13.1517 18.2946L12.7664 17.6873C12.2502 18.0147 12.1092 18.6876 12.3982 19.1943C15.1683 24.0504 16.2794 26.5869 17.9422 31.0312C18.105 31.4665 18.5328 31.778 19.0319 31.7481ZM19.0319 31.7481L18.9871 30.9994M19.0319 31.7481C19.0319 31.7481 19.0319 31.7481 19.0319 31.7481L18.9871 30.9994M18.9871 30.9994C18.8376 31.0084 18.6996 30.9152 18.6447 30.7684C18.278 29.7884 17.9375 28.8995 17.6001 28.0576L29.2719 10.2414C29.305 10.2087 29.3371 10.1773 29.3682 10.1472C29.3773 10.1384 29.3863 10.1296 29.3953 10.121C29.5235 9.97088 29.7429 9.95879 29.8852 10.094C30.0185 10.2206 30.0371 10.4314 29.9337 10.5809C29.9267 10.5912 29.9191 10.6011 29.9109 10.6107C29.9039 10.6188 29.897 10.6269 29.8901 10.635C29.8675 10.6614 29.845 10.6879 29.8225 10.7142C29.8548 10.7 29.8853 10.6815 29.9132 10.659C29.9224 10.6516 29.9313 10.6438 29.9398 10.6355C29.9488 10.6268 29.9574 10.6177 29.9656 10.6081C29.9574 10.6176 29.9491 10.6269 29.9405 10.636C29.9323 10.6446 29.924 10.6531 29.9154 10.6613C29.8228 10.7505 29.7201 10.8524 29.6084 10.9662C26.7688 14.3168 24.7646 17.0653 23.1992 20.0113C21.5795 23.0594 20.4215 26.3342 19.3024 30.729C19.2636 30.8815 19.1365 30.9905 18.9871 30.9994ZM29.3406 10.1236C29.3403 10.1239 29.34 10.1242 29.3398 10.1245L29.3406 10.1236Z" stroke="#37034B" stroke-width="1.5" stroke-linecap="round" stroke-linejoin="round"/>
</svg>
