<svg width="22" height="22" viewBox="0 0 22 22" fill="none" xmlns="http://www.w3.org/2000/svg">
<g clip-path="url(#clip0_167_1867)">
<path d="M11.0008 0.550049C5.23478 0.550049 0.550781 5.23406 0.550781 11C0.550781 16.766 5.23478 21.45 11.0008 21.45C16.7668 21.45 21.4508 16.766 21.4508 11C21.4508 5.23406 16.7668 0.550049 11.0008 0.550049ZM11.0008 1.45874C16.2757 1.45874 20.5421 5.72515 20.5421 11C20.5421 16.2749 16.2757 20.5414 11.0008 20.5414C5.72588 20.5414 1.45948 16.2749 1.45948 11C1.45948 5.72515 5.72588 1.45874 11.0008 1.45874ZM15.1298 6.0182C14.8191 6.0182 14.4699 6.09017 14.0614 6.23738C13.4271 6.46592 5.96694 9.63344 5.11822 9.99374C4.63298 10.2 3.72944 10.5837 3.72944 11.4988C3.72944 12.1053 4.08486 12.5392 4.78456 12.789C5.16076 12.9231 6.05425 13.1939 6.57266 13.3366C6.79257 13.397 7.02626 13.428 7.26661 13.428C7.73686 13.428 8.2101 13.3108 8.58085 13.1041C8.57767 13.1804 8.57975 13.2576 8.58883 13.3348C8.64472 13.8119 8.93889 14.2606 9.37507 14.5354C9.6604 14.7154 11.9909 16.2769 12.339 16.525C12.8279 16.8744 13.3683 17.0592 13.9008 17.0592C14.9185 17.0592 15.26 16.0084 15.4245 15.5036C15.663 14.7707 16.5562 8.81106 16.6571 7.76016C16.7257 7.04002 16.4255 6.44701 15.854 6.17349C15.64 6.07035 15.3956 6.0182 15.1298 6.0182ZM15.1298 6.92689C15.2548 6.92689 15.3663 6.94756 15.4608 6.99345C15.6757 7.09658 15.7851 7.3265 15.7519 7.67408C15.642 8.8204 14.7509 14.6389 14.561 15.2223C14.3984 15.7212 14.227 16.1505 13.9008 16.1505C13.5746 16.1505 13.2182 16.0362 12.867 15.7849C12.5158 15.5341 10.1835 13.9701 9.85959 13.7661C9.57562 13.5871 9.27508 13.1408 9.69808 12.7092C10.0466 12.3539 12.69 9.78827 12.9158 9.56246C13.0839 9.3939 13.0053 9.19064 12.8404 9.19064C12.7836 9.19064 12.7156 9.21458 12.6451 9.27228C12.3689 9.49809 8.51767 12.0752 8.18418 12.2823C7.96337 12.4196 7.62146 12.5184 7.26661 12.5184C7.11531 12.5184 6.96213 12.5003 6.81492 12.4598C6.30242 12.3185 5.43511 12.0554 5.09071 11.9327C4.75949 11.8146 4.63902 11.7014 4.63902 11.4988C4.63902 11.2107 5.04562 11.0119 5.47407 10.8297C5.9266 10.6375 13.7569 7.3123 14.3693 7.09195C14.6529 6.98926 14.9122 6.92689 15.1298 6.92689Z" fill="#F5F0F7"/>
</g>
<defs>
<clipPath id="clip0_167_1867">
<rect width="22" height="22" fill="white"/>
</clipPath>
</defs>
</svg>
