<svg width="40" height="40" viewBox="0 0 40 40" fill="none" xmlns="http://www.w3.org/2000/svg">
<path d="M20.0001 1.6001C9.84753 1.6001 1.6001 9.84754 1.6001 20.0001C1.6001 30.1527 9.84753 38.4001 20.0001 38.4001C30.1527 38.4001 38.4001 30.1527 38.4001 20.0001C38.4001 9.84754 30.1527 1.6001 20.0001 1.6001ZM20.0001 3.2001C29.288 3.2001 36.8001 10.7122 36.8001 20.0001C36.8001 29.288 29.288 36.8001 20.0001 36.8001C10.7122 36.8001 3.2001 29.288 3.2001 20.0001C3.2001 10.7122 10.7122 3.2001 20.0001 3.2001ZM27.2704 11.2282C26.7232 11.2282 26.1084 11.355 25.3892 11.6142C24.2724 12.0166 11.1367 17.5938 9.64229 18.2282C8.78789 18.5914 7.19697 19.267 7.19697 20.8782C7.19697 21.9462 7.82279 22.7101 9.05479 23.1501C9.71719 23.3861 11.2904 23.863 12.2032 24.1142C12.5904 24.2206 13.0019 24.2751 13.4251 24.2751C14.2531 24.2751 15.0864 24.0688 15.7392 23.7048C15.7336 23.8392 15.7372 23.975 15.7532 24.111C15.8516 24.951 16.3696 25.7411 17.1376 26.2251C17.64 26.5419 21.7435 29.2914 22.3563 29.7282C23.2171 30.3434 24.1688 30.6689 25.1063 30.6689C26.8983 30.6689 27.4996 28.8186 27.7892 27.9298C28.2092 26.6394 29.7819 16.1458 29.9595 14.2954C30.0803 13.0274 29.5518 11.9833 28.5454 11.5017C28.1686 11.3201 27.7384 11.2282 27.2704 11.2282ZM27.2704 12.8282C27.4904 12.8282 27.6868 12.8646 27.8532 12.9454C28.2316 13.127 28.4241 13.5319 28.3657 14.1439C28.1721 16.1623 26.6033 26.4073 26.2689 27.4345C25.9825 28.3129 25.6807 29.0689 25.1063 29.0689C24.5319 29.0689 23.9044 28.8675 23.286 28.4251C22.6676 27.9835 18.5611 25.2296 17.9907 24.8704C17.4907 24.5552 16.9615 23.7695 17.7063 23.0095C18.32 22.3839 22.9744 17.8665 23.372 17.4689C23.668 17.1721 23.5296 16.8142 23.2392 16.8142C23.1392 16.8142 23.0194 16.8563 22.8954 16.9579C22.409 17.3555 15.6279 21.8931 15.0407 22.2579C14.6519 22.4995 14.0499 22.6735 13.4251 22.6735C13.1587 22.6735 12.889 22.6416 12.6298 22.5704C11.7274 22.3216 10.2002 21.8583 9.59385 21.6423C9.01065 21.4343 8.79854 21.235 8.79854 20.8782C8.79854 20.371 9.51445 20.0209 10.2688 19.7001C11.0656 19.3617 24.8529 13.5069 25.9314 13.1189C26.4305 12.9381 26.8872 12.8282 27.2704 12.8282Z" fill="#3D0751"/>
</svg>
