<svg width="40" height="40" viewBox="0 0 40 40" fill="none" xmlns="http://www.w3.org/2000/svg">
<path d="M20.0001 1.6001C9.84773 1.6001 1.6001 9.84773 1.6001 20.0001C1.6001 23.2634 2.49505 26.3088 3.9876 28.9673L1.62979 37.3845C1.59212 37.5192 1.59041 37.6614 1.62485 37.797C1.65928 37.9325 1.72865 38.0567 1.82603 38.1571C1.92342 38.2574 2.04541 38.3306 2.17986 38.3691C2.31431 38.4076 2.45651 38.4102 2.59229 38.3767L11.3688 36.2017C13.9478 37.5785 16.8742 38.4001 20.0001 38.4001C30.1525 38.4001 38.4001 30.1525 38.4001 20.0001C38.4001 9.84773 30.1525 1.6001 20.0001 1.6001ZM20.0001 3.2001C29.2877 3.2001 36.8001 10.7125 36.8001 20.0001C36.8001 29.2877 29.2877 36.8001 20.0001 36.8001C17.0225 36.8001 14.2338 36.0238 11.8095 34.6673C11.6322 34.5682 11.4238 34.5403 11.2267 34.5892L3.54072 36.4939L5.60166 29.1407C5.63115 29.0368 5.63929 28.928 5.6256 28.8209C5.6119 28.7137 5.57665 28.6105 5.52197 28.5173C4.04865 26.019 3.2001 23.1122 3.2001 20.0001C3.2001 10.7125 10.7125 3.2001 20.0001 3.2001ZM13.3142 10.4001C12.8013 10.4001 12.0689 10.5909 11.4673 11.2392C11.1059 11.6285 9.6001 13.0957 9.6001 15.6751C9.6001 18.3643 11.4652 20.6848 11.6907 20.9829H11.6923V20.9845C11.6709 20.9564 11.9785 21.4019 12.3892 21.936C12.7998 22.4702 13.374 23.1718 14.0954 23.9314C15.5382 25.4504 17.5667 27.206 20.0845 28.2798C21.2439 28.7735 22.1586 29.0716 22.8517 29.2892C24.136 29.6925 25.3058 29.6311 26.1845 29.5017C26.8422 29.4048 27.5656 29.089 28.2813 28.636C28.9971 28.1831 29.6986 27.6199 30.0079 26.7642C30.2295 26.1507 30.3422 25.5838 30.3829 25.1173C30.4033 24.8841 30.4059 24.6782 30.3907 24.4876C30.3755 24.297 30.3918 24.151 30.2142 23.8595C29.8417 23.248 29.4199 23.232 28.9798 23.0142C28.7353 22.8931 28.039 22.5532 27.3407 22.2204C26.6432 21.888 26.0392 21.5937 25.6673 21.461C25.4323 21.3765 25.1453 21.2548 24.7313 21.3017C24.3174 21.3485 23.9085 21.6473 23.6704 22.0001C23.4448 22.3346 22.5364 23.4068 22.2595 23.722C22.2558 23.7197 22.2798 23.7308 22.1704 23.6767C21.8279 23.5072 21.409 23.363 20.7892 23.036C20.1693 22.7091 19.3939 22.2262 18.5454 21.4782V21.4767C17.2825 20.3649 16.3979 18.969 16.1188 18.5001C16.1376 18.4777 16.1166 18.5048 16.1563 18.4657L16.1579 18.4642C16.4431 18.1832 16.6959 17.8477 16.9095 17.6017C17.2123 17.2528 17.3459 16.9453 17.4907 16.6579C17.7793 16.0853 17.6186 15.4551 17.4517 15.1235V15.122C17.4632 15.1449 17.3614 14.9202 17.2517 14.661C17.1417 14.4011 17.0014 14.0641 16.8517 13.7048C16.5521 12.9861 16.2177 12.18 16.0188 11.7079V11.7064C15.7846 11.1502 15.4676 10.7496 15.0532 10.5564C14.6388 10.3631 14.2727 10.418 14.2579 10.4173H14.2563C13.9606 10.4036 13.6361 10.4001 13.3142 10.4001ZM13.3142 12.0001C13.6226 12.0001 13.9267 12.0039 14.1813 12.0157C14.4433 12.0288 14.427 12.0299 14.3767 12.0064C14.3255 11.9825 14.3949 11.9747 14.5438 12.3282C14.7386 12.7905 15.0746 13.5995 15.3751 14.3204C15.5253 14.6809 15.6659 15.0192 15.7782 15.2845C15.8905 15.5498 15.9514 15.6979 16.022 15.8392V15.8407L16.0235 15.8423C16.0928 15.9789 16.0866 15.8914 16.0626 15.9392C15.8938 16.2742 15.8709 16.3565 15.7001 16.5532C15.4401 16.8528 15.1749 17.1868 15.0345 17.3251C14.9116 17.4458 14.69 17.6337 14.5517 18.0017C14.4131 18.3702 14.4778 18.8758 14.7001 19.2532C14.9961 19.7558 15.9716 21.3436 17.4876 22.6782C18.4423 23.5198 19.3318 24.0769 20.0423 24.4517C20.7528 24.8265 21.3315 25.0454 21.461 25.1095C21.7685 25.2617 22.1046 25.3798 22.4954 25.3329C22.8862 25.286 23.2231 25.0489 23.4376 24.8064L23.4392 24.8048C23.7246 24.4812 24.5728 23.5127 24.9798 22.9157C24.997 22.9218 24.9914 22.9171 25.1267 22.9657V22.9673H25.1282C25.19 22.9893 25.9635 23.3355 26.6532 23.6642C27.3429 23.9928 28.0429 24.3344 28.2704 24.447C28.5987 24.6094 28.7538 24.7152 28.7938 24.7157C28.7966 24.7861 28.7993 24.8624 28.7892 24.9782C28.7611 25.2995 28.6752 25.7443 28.5032 26.2204C28.419 26.4535 27.9801 26.9342 27.4267 27.2845C26.8732 27.6347 26.1996 27.8821 25.9501 27.9189C25.2 28.0294 24.3094 28.0697 23.3314 27.7626C22.6532 27.5497 21.8075 27.2742 20.7126 26.8079C18.4919 25.8609 16.6046 24.2493 15.2563 22.8298C14.5822 22.12 14.0421 21.4593 13.6579 20.9595C13.2744 20.4606 13.1069 20.201 12.9673 20.0173L12.9657 20.0157C12.7179 19.688 11.2001 17.5768 11.2001 15.6751C11.2001 13.6625 12.1349 12.8733 12.6407 12.3282C12.9063 12.0421 13.1966 12.0001 13.3142 12.0001Z" fill="#3D0751"/>
</svg>
