<svg width="69" height="69" viewBox="0 0 69 69" fill="none" xmlns="http://www.w3.org/2000/svg">
<path d="M19.9996 1.59998C9.84724 1.59998 1.59961 9.8476 1.59961 20C1.59961 23.2633 2.49456 26.3087 3.98711 28.9672L1.6293 37.3843C1.59163 37.519 1.58993 37.6613 1.62436 37.7968C1.65879 37.9324 1.72816 38.0565 1.82555 38.1569C1.92293 38.2573 2.04493 38.3304 2.17937 38.3689C2.31382 38.4075 2.45602 38.4101 2.5918 38.3765L11.3684 36.2015C13.9473 37.5783 16.8737 38.4 19.9996 38.4C30.152 38.4 38.3996 30.1523 38.3996 20C38.3996 9.8476 30.152 1.59998 19.9996 1.59998ZM19.9996 3.19998C29.2872 3.19998 36.7996 10.7123 36.7996 20C36.7996 29.2876 29.2872 36.8 19.9996 36.8C17.022 36.8 14.2333 36.0237 11.809 34.6672C11.6317 34.5681 11.4233 34.5402 11.2262 34.589L3.54023 36.4937L5.60117 29.1406C5.63066 29.0367 5.6388 28.9279 5.62511 28.8207C5.61141 28.7136 5.57616 28.6103 5.52148 28.5172C4.04816 26.0189 3.19961 23.1121 3.19961 20C3.19961 10.7123 10.712 3.19998 19.9996 3.19998ZM13.3137 10.4C12.8008 10.4 12.0684 10.5908 11.4668 11.239C11.1054 11.6284 9.59961 13.0956 9.59961 15.675C9.59961 18.3642 11.4647 20.6847 11.6902 20.9828H11.6918V20.9844C11.6704 20.9562 11.978 21.4017 12.3887 21.9359C12.7993 22.4701 13.3735 23.1717 14.0949 23.9312C15.5377 25.4503 17.5662 27.2059 20.084 28.2797C21.2434 28.7734 22.1582 29.0715 22.8512 29.289C24.1355 29.6923 25.3053 29.631 26.184 29.5015C26.8417 29.4047 27.5651 29.0889 28.2809 28.6359C28.9966 28.183 29.6981 27.6198 30.0074 26.764C30.229 26.1506 30.3417 25.5837 30.3824 25.1172C30.4028 24.8839 30.4054 24.6781 30.3902 24.4875C30.3751 24.2969 30.3913 24.1509 30.2137 23.8594C29.8412 23.2478 29.4194 23.2319 28.9793 23.014C28.7348 22.893 28.0385 22.553 27.3402 22.2203C26.6427 21.8879 26.0387 21.5935 25.6668 21.4609C25.4318 21.3764 25.1449 21.2547 24.7309 21.3015C24.3169 21.3484 23.908 21.6471 23.6699 22C23.4443 22.3344 22.5359 23.4067 22.259 23.7219C22.2553 23.7196 22.2793 23.7307 22.1699 23.6765C21.8274 23.507 21.4085 23.3629 20.7887 23.0359C20.1688 22.7089 19.3934 22.2261 18.5449 21.4781V21.4765C17.282 20.3647 16.3974 18.9689 16.1184 18.5C16.1372 18.4776 16.1161 18.5047 16.1559 18.4656L16.1574 18.464C16.4426 18.1831 16.6954 17.8476 16.909 17.6015C17.2118 17.2527 17.3455 16.9451 17.4902 16.6578C17.7788 16.0851 17.6181 15.455 17.4512 15.1234V15.1219C17.4627 15.1448 17.3609 14.9201 17.2512 14.6609C17.1412 14.401 17.0009 14.064 16.8512 13.7047C16.5516 12.986 16.2172 12.1799 16.0184 11.7078V11.7062C15.7841 11.1501 15.4671 10.7495 15.0527 10.5562C14.6383 10.3629 14.2722 10.4179 14.2574 10.4172H14.2559C13.9601 10.4035 13.6356 10.4 13.3137 10.4ZM13.3137 12C13.6221 12 13.9262 12.0037 14.1809 12.0156C14.4429 12.0287 14.4266 12.0297 14.3762 12.0062C14.325 11.9824 14.3944 11.9746 14.5434 12.3281C14.7381 12.7904 15.0741 13.5994 15.3746 14.3203C15.5248 14.6807 15.6654 15.019 15.7777 15.2844C15.89 15.5497 15.9509 15.6978 16.0215 15.839V15.8406L16.023 15.8422C16.0923 15.9788 16.0862 15.8913 16.0621 15.939C15.8933 16.2741 15.8704 16.3564 15.6996 16.5531C15.4396 16.8526 15.1744 17.1867 15.034 17.325C14.9112 17.4456 14.6895 17.6336 14.5512 18.0015C14.4126 18.37 14.4773 18.8756 14.6996 19.2531C14.9956 19.7557 15.9711 21.3434 17.4871 22.6781C18.4418 23.5197 19.3313 24.0767 20.0418 24.4515C20.7523 24.8264 21.3311 25.0453 21.4605 25.1094C21.768 25.2615 22.1041 25.3797 22.4949 25.3328C22.8857 25.2859 23.2226 25.0488 23.4371 24.8062L23.4387 24.8047C23.7241 24.4811 24.5723 23.5126 24.9793 22.9156C24.9965 22.9217 24.9909 22.917 25.1262 22.9656V22.9672H25.1277C25.1895 22.9892 25.963 23.3354 26.6527 23.664C27.3424 23.9927 28.0425 24.3343 28.2699 24.4469C28.5982 24.6093 28.7533 24.7151 28.7934 24.7156C28.7961 24.786 28.7988 24.8623 28.7887 24.9781C28.7606 25.2994 28.6747 25.7442 28.5027 26.2203C28.4185 26.4534 27.9796 26.9341 27.4262 27.2844C26.8727 27.6346 26.1991 27.882 25.9496 27.9187C25.1995 28.0292 24.3089 28.0696 23.3309 27.7625C22.6527 27.5496 21.8071 27.2741 20.7121 26.8078C18.4915 25.8607 16.6041 24.2492 15.2559 22.8297C14.5817 22.1199 14.0417 21.4592 13.6574 20.9594C13.2739 20.4604 13.1064 20.2008 12.9668 20.0172L12.9652 20.0156C12.7174 19.6878 11.1996 17.5767 11.1996 15.675C11.1996 13.6624 12.1344 12.8731 12.6402 12.3281C12.9058 12.042 13.1961 12 13.3137 12Z" fill="#3D0751"/>
<g filter="url(#filter0_f_157_7797)">
<path d="M37.5002 12.2C23.5407 12.2 12.2002 23.5404 12.2002 37.5C12.2002 41.987 13.4308 46.1744 15.483 49.8298L12.241 61.4035C12.1892 61.5887 12.1869 61.7842 12.2342 61.9706C12.2816 62.157 12.377 62.3277 12.5109 62.4657C12.6448 62.6038 12.8125 62.7043 12.9974 62.7573C13.1822 62.8103 13.3778 62.8139 13.5645 62.7677L25.6322 59.7771C29.1783 61.6702 33.202 62.8 37.5002 62.8C51.4597 62.8 62.8002 51.4595 62.8002 37.5C62.8002 23.5404 51.4597 12.2 37.5002 12.2ZM37.5002 14.4C50.2707 14.4 60.6002 24.7295 60.6002 37.5C60.6002 50.2704 50.2707 60.6 37.5002 60.6C33.406 60.6 29.5715 59.5326 26.2381 57.6673C25.9943 57.5311 25.7078 57.4927 25.4367 57.5599L14.8686 60.1789L17.7023 50.0683C17.7429 49.9254 17.7541 49.7758 17.7353 49.6285C17.7164 49.4812 17.668 49.3392 17.5928 49.2111C15.567 45.7759 14.4002 41.7791 14.4002 37.5C14.4002 24.7295 24.7297 14.4 37.5002 14.4ZM28.307 24.3C27.6019 24.3 26.5948 24.5623 25.7676 25.4537C25.2707 25.9891 23.2002 28.0064 23.2002 31.5531C23.2002 35.2508 25.7647 38.4414 26.0748 38.8513H26.077V38.8535C26.0475 38.8148 26.4705 39.4274 27.0352 40.1619C27.5998 40.8964 28.3893 41.8611 29.3813 42.9054C31.3651 44.9942 34.1543 47.4081 37.6162 48.8845C39.2105 49.5634 40.4682 49.9733 41.4211 50.2724C43.187 50.8269 44.7955 50.7426 46.0037 50.5646C46.9081 50.4314 47.9028 49.9972 48.8869 49.3744C49.8711 48.7516 50.8356 47.9771 51.2609 46.8005C51.5656 45.957 51.7205 45.1775 51.7766 44.5361C51.8046 44.2154 51.8081 43.9323 51.7873 43.6703C51.7664 43.4082 51.7887 43.2075 51.5445 42.8066C51.0324 41.9657 50.4524 41.9438 49.8473 41.6443C49.511 41.4779 48.5537 41.0104 47.5936 40.5529C46.6345 40.0959 45.804 39.6911 45.2926 39.5087C44.9695 39.3925 44.5749 39.2251 44.0057 39.2896C43.4364 39.3541 42.8742 39.7648 42.5469 40.25C42.2366 40.7098 40.9876 42.1841 40.6068 42.6175C40.6018 42.6145 40.6348 42.6297 40.4844 42.5552C40.0134 42.3221 39.4375 42.124 38.5852 41.6744C37.7328 41.2248 36.6667 40.5609 35.5 39.5324V39.5302C33.7635 38.0015 32.5472 36.0822 32.1635 35.4375C32.1893 35.4067 32.1604 35.4439 32.215 35.3902L32.2172 35.388C32.6094 35.0018 32.9569 34.5404 33.2506 34.2021C33.667 33.7224 33.8507 33.2995 34.0498 32.9044C34.4465 32.117 34.2256 31.2506 33.9961 30.7947V30.7925C34.0119 30.8241 33.8719 30.5151 33.7211 30.1587C33.5698 29.8013 33.377 29.338 33.1711 28.8439C32.7592 27.8557 32.2994 26.7474 32.026 26.0982V26.096C31.7038 25.3314 31.268 24.7806 30.6982 24.5148C30.1285 24.249 29.6251 24.3246 29.6047 24.3236H29.6025C29.1959 24.3048 28.7497 24.3 28.307 24.3ZM28.307 26.5C28.7311 26.5 29.1492 26.5051 29.4994 26.5214C29.8597 26.5394 29.8373 26.5409 29.768 26.5085C29.6976 26.4757 29.7931 26.4651 29.9979 26.9511C30.2656 27.5868 30.7277 28.6991 31.1408 29.6904C31.3474 30.186 31.5407 30.6511 31.6951 31.016C31.8495 31.3808 31.9332 31.5845 32.0303 31.7787V31.7808L32.0324 31.783C32.1276 31.9708 32.1192 31.8505 32.0861 31.9162C31.854 32.3769 31.8225 32.49 31.5877 32.7605C31.2302 33.1724 30.8655 33.6317 30.6725 33.8218C30.5036 33.9877 30.1989 34.2462 30.0086 34.7521C29.818 35.2588 29.907 35.954 30.2127 36.473C30.6197 37.164 31.961 39.3472 34.0455 41.1824C35.3582 42.3396 36.5812 43.1055 37.5582 43.6209C38.5352 44.1362 39.3309 44.4372 39.509 44.5253C39.9318 44.7346 40.3939 44.8971 40.9312 44.8326C41.4686 44.7681 41.9319 44.442 42.2268 44.1085L42.2289 44.1064C42.6214 43.6614 43.7876 42.3298 44.3473 41.5089C44.371 41.5173 44.3632 41.5108 44.5492 41.5777V41.5798H44.5514C44.6363 41.6101 45.6999 42.0861 46.6482 42.538C47.5966 42.9899 48.5591 43.4596 48.8719 43.6144C49.3232 43.8378 49.5365 43.9832 49.5916 43.9839C49.5953 44.0807 49.5991 44.1856 49.5852 44.3449C49.5466 44.7867 49.4285 45.3982 49.192 46.0529C49.0761 46.3734 48.4727 47.0344 47.7117 47.516C46.9507 47.9976 46.0245 48.3377 45.6814 48.3882C44.6501 48.5402 43.4255 48.5957 42.0807 48.1734C41.1482 47.8807 39.9854 47.5018 38.4799 46.8607C35.4265 45.5585 32.8313 43.3426 30.9775 41.3908C30.0506 40.4149 29.308 39.5064 28.7797 38.8191C28.2523 38.1331 28.0221 37.7761 27.8301 37.5236L27.8279 37.5214C27.4871 37.0707 25.4002 34.1679 25.4002 31.5531C25.4002 28.7857 26.6855 27.7005 27.3811 26.9511C27.7462 26.5577 28.1454 26.5 28.307 26.5Z" fill="#7E0B92" fill-opacity="0.2"/>
</g>
<defs>
<filter id="filter0_f_157_7797" x="4" y="4" width="67" height="67" filterUnits="userSpaceOnUse" color-interpolation-filters="sRGB">
<feFlood flood-opacity="0" result="BackgroundImageFix"/>
<feBlend mode="normal" in="SourceGraphic" in2="BackgroundImageFix" result="shape"/>
<feGaussianBlur stdDeviation="3" result="effect1_foregroundBlur_157_7797"/>
</filter>
</defs>
</svg>
