<svg width="22" height="22" viewBox="0 0 22 22" fill="none" xmlns="http://www.w3.org/2000/svg">
<g clip-path="url(#clip0_202_9781)">
<path d="M11.1355 0.502441C5.36966 0.502441 0.685547 5.18656 0.685547 10.9524C0.685547 12.8058 1.19382 14.5354 2.04149 16.0452L0.702407 20.8256C0.681014 20.9021 0.680048 20.9829 0.699604 21.0599C0.71916 21.1369 0.758556 21.2074 0.813864 21.2644C0.869171 21.3214 0.938458 21.3629 1.01482 21.3848C1.09117 21.4067 1.17193 21.4082 1.24904 21.3891L6.23356 20.1539C7.69824 20.9358 9.36022 21.4024 11.1355 21.4024C16.9014 21.4024 21.5855 16.7183 21.5855 10.9524C21.5855 5.18656 16.9014 0.502441 11.1355 0.502441ZM11.1355 1.41114C16.4103 1.41114 20.6769 5.67767 20.6769 10.9524C20.6769 16.2272 16.4103 20.4937 11.1355 20.4937C9.44448 20.4937 7.86066 20.0529 6.48381 19.2824C6.38311 19.2262 6.26477 19.2103 6.15281 19.2381L1.7877 20.3198L2.95817 16.1437C2.97492 16.0847 2.97955 16.0229 2.97177 15.9621C2.96399 15.9012 2.94397 15.8426 2.91292 15.7896C2.07616 14.3708 1.59424 12.7199 1.59424 10.9524C1.59424 5.67767 5.86078 1.41114 11.1355 1.41114ZM7.33837 5.50027C7.04712 5.50027 6.63116 5.60863 6.28947 5.9768C6.08423 6.19794 5.22903 7.0312 5.22903 8.49612C5.22903 10.0234 6.28829 11.3413 6.41636 11.5106H6.41725V11.5115C6.4051 11.4955 6.57982 11.7485 6.81303 12.0519C7.04625 12.3553 7.37237 12.7538 7.78207 13.1851C8.60147 14.0479 9.75355 15.0449 11.1835 15.6548C11.842 15.9352 12.3615 16.1045 12.755 16.228C13.4845 16.4571 14.1488 16.4222 14.6479 16.3487C15.0214 16.2937 15.4323 16.1143 15.8388 15.8571C16.2453 15.5998 16.6436 15.28 16.8193 14.794C16.9452 14.4456 17.0092 14.1236 17.0323 13.8587C17.0439 13.7262 17.0453 13.6093 17.0367 13.501C17.0281 13.3928 17.0373 13.3099 16.9365 13.1443C16.7249 12.797 16.4854 12.7879 16.2354 12.6642C16.0965 12.5955 15.7011 12.4024 15.3045 12.2134C14.9084 12.0247 14.5654 11.8575 14.3541 11.7822C14.2207 11.7341 14.0577 11.665 13.8226 11.6916C13.5875 11.7183 13.3552 11.8879 13.22 12.0883C13.0919 12.2783 12.576 12.8872 12.4187 13.0662C12.4166 13.065 12.4303 13.0712 12.3681 13.0405C12.1736 12.9442 11.9357 12.8624 11.5837 12.6767C11.2316 12.491 10.7913 12.2167 10.3094 11.7919V11.791C9.59214 11.1596 9.08974 10.3668 8.93125 10.1005C8.94193 10.0878 8.92998 10.1032 8.95255 10.081L8.95343 10.0801C9.11542 9.92058 9.25897 9.73003 9.38027 9.59029C9.55226 9.39215 9.62816 9.21749 9.71039 9.0543C9.87426 8.72906 9.78301 8.37117 9.6882 8.18287V8.18198C9.69475 8.19501 9.63691 8.0674 9.57461 7.9202C9.51214 7.77258 9.4325 7.5812 9.34744 7.37711C9.17732 6.96895 8.9874 6.51115 8.87446 6.24302V6.24213C8.7414 5.9263 8.56139 5.69878 8.32604 5.58901C8.0907 5.47924 7.88277 5.51045 7.87436 5.51003H7.87347C7.70552 5.50228 7.52123 5.50027 7.33837 5.50027ZM7.33837 6.40896C7.51354 6.40896 7.68624 6.4111 7.83088 6.41784C7.97967 6.42525 7.97042 6.42586 7.9418 6.41251C7.91273 6.39895 7.95217 6.39455 8.03675 6.59532C8.14735 6.85786 8.3382 7.31732 8.50885 7.72675C8.59417 7.93147 8.67402 8.12359 8.7378 8.27427C8.80157 8.42496 8.83613 8.50909 8.87623 8.5893V8.59019L8.87712 8.59107C8.91644 8.66865 8.91296 8.61899 8.8993 8.64609C8.80342 8.83639 8.79041 8.88311 8.69343 8.99484C8.54576 9.16496 8.39513 9.35468 8.3154 9.43322C8.24564 9.50174 8.11978 9.6085 8.04119 9.81746C7.96248 10.0267 7.99922 10.3139 8.12549 10.5283C8.29362 10.8137 8.84764 11.7154 9.70861 12.4734C10.2508 12.9514 10.756 13.2678 11.1595 13.4806C11.563 13.6935 11.8917 13.8178 11.9653 13.8542C12.1399 13.9407 12.3308 14.0078 12.5527 13.9811C12.7747 13.9545 12.966 13.8198 13.0878 13.6821L13.0887 13.6812C13.2508 13.4974 13.7325 12.9474 13.9637 12.6083C13.9735 12.6118 13.9703 12.6091 14.0471 12.6367V12.6376H14.048C14.0831 12.6501 14.5224 12.8467 14.9141 13.0334C15.3058 13.22 15.7034 13.414 15.8325 13.478C16.019 13.5702 16.1071 13.6303 16.1298 13.6306C16.1314 13.6706 16.1329 13.7139 16.1272 13.7797C16.1112 13.9622 16.0625 14.2148 15.9648 14.4852C15.9169 14.6176 15.6677 14.8906 15.3534 15.0895C15.039 15.2884 14.6564 15.4289 14.5148 15.4498C14.0888 15.5125 13.583 15.5355 13.0275 15.361C12.6423 15.2401 12.1621 15.0836 11.5402 14.8188C10.279 14.281 9.20711 13.3657 8.44141 12.5595C8.05856 12.1564 7.75182 11.7812 7.5336 11.4973C7.31578 11.214 7.22067 11.0665 7.14137 10.9622L7.14048 10.9613C6.99971 10.7752 6.13772 9.57615 6.13772 8.49612C6.13772 7.35309 6.66862 6.90485 6.9559 6.59532C7.10672 6.43281 7.2716 6.40896 7.33837 6.40896Z" fill="#F5F0F7"/>
</g>
<defs>
<clipPath id="clip0_202_9781">
<rect width="22" height="22" fill="white"/>
</clipPath>
</defs>
</svg>
