<svg xmlns="http://www.w3.org/2000/svg" width="22" height="22" fill="none"><g clip-path="url(#a)"><path fill="#F5F0F7" d="M21.183 11.108c0 5.59-4.53 10.12-10.12 10.12S.943 16.698.943 11.108 5.474.988 11.063.988c5.59 0 10.12 4.531 10.12 10.12m-19.228 0a9.108 9.108 0 1 0 18.216 0 9.108 9.108 0 0 0-18.216 0"/><path stroke="#F5F0F7" stroke-linecap="round" stroke-linejoin="round" stroke-width=".75" d="m7.349 10.033.325-.186c1.176 2.061 1.62 2.847 2.203 4.273.416-1.376.712-1.971 1.404-3.274l.009-.015c1.236-2.079 3.574-4.788 4.451-5.637a.56.56 0 0 1 .798-.026c.224.213.24.567.041.8-1.642 1.922-2.772 3.46-3.645 5.102-.872 1.641-1.5 3.412-2.111 5.812a.57.57 0 0 1-.515.43m-2.96-7.279 2.938 6.905m-2.938-6.905.325-.186a.56.56 0 0 0-.788-.2.583.583 0 0 0-.19.78l.325-.186-.325.186c1.524 2.672 2.136 4.07 3.051 6.515l.352-.131m-2.75-6.778 2.75 6.778m.21.501-.022-.374m.022.374q0 0 0 0l-.022-.374m.022.374a.565.565 0 0 1-.562-.37l.352-.131m.188.127a.19.19 0 0 1-.188-.127"/></g><defs><clipPath id="a"><path fill="#fff" d="M0 0h22v22H0z"/></clipPath></defs></svg>