<svg xmlns="http://www.w3.org/2000/svg" width="40" height="40" fill="none"><path fill="#3D0751" d="M38.8 20.4c0 10.162-8.238 18.4-18.4 18.4S2 30.562 2 20.4 10.238 2 20.4 2s18.4 8.238 18.4 18.4m-34.96 0c0 9.146 7.414 16.56 16.56 16.56s16.56-7.414 16.56-16.56S29.546 3.84 20.4 3.84 3.84 11.254 3.84 20.4"/><path stroke="#37034B" stroke-linecap="round" stroke-linejoin="round" stroke-width="1.5" d="M19.032 31.748a1.1 1.1 0 0 0 .997-.834c1.11-4.36 2.25-7.574 3.832-10.55 1.584-2.982 3.636-5.773 6.62-9.266a1.13 1.13 0 0 0-.08-1.548 1.084 1.084 0 0 0-1.546.05c-1.6 1.547-5.852 6.476-8.104 10.26l-.017.032c-1.23 2.312-1.773 3.402-2.503 5.78-1.026-2.485-1.846-3.936-3.935-7.598a1.087 1.087 0 0 0-1.53-.387l.386.608-.386-.608c-.516.328-.657 1-.368 1.507 2.77 4.856 3.881 7.393 5.544 11.837.163.436.59.747 1.09.717m0 0L18.987 31m.045.75q0 0 0 0l-.045-.75m0 0a.35.35 0 0 1-.342-.23c-.367-.98-.707-1.87-1.045-2.711L29.272 10.24l.096-.094.027-.026a.334.334 0 0 1 .49-.027.38.38 0 0 1 .005.541l-.067.08a.4.4 0 0 0 .117-.079l-.025.025q-.139.135-.307.305c-2.84 3.35-4.843 6.1-6.409 9.045-1.62 3.048-2.777 6.323-3.897 10.718a.35.35 0 0 1-.315.27m10.354-20.875h-.001z"/></svg>