<svg xmlns="http://www.w3.org/2000/svg" width="82" height="82" fill="none"><g clip-path="url(#a)" filter="url(#b)"><path fill="#7E0B92" fill-opacity=".2" d="M73.9 41.7c0 17.784-14.416 32.2-32.2 32.2S9.5 59.484 9.5 41.7 23.916 9.5 41.7 9.5s32.2 14.416 32.2 32.2m-61.18 0c0 16.005 12.975 28.98 28.98 28.98S70.68 57.705 70.68 41.7 57.705 12.72 41.7 12.72 12.72 25.695 12.72 41.7"/><path stroke="#7E0B92" stroke-linecap="round" stroke-linejoin="round" stroke-opacity=".2" stroke-width="1.5" d="m42.78 41.075.018-.032c3.916-6.581 11.34-15.184 14.102-17.85a1.335 1.335 0 0 1 1.916-.072c.54.514.58 1.372.098 1.935-5.234 6.128-8.854 11.047-11.653 16.316-2.797 5.263-4.805 10.932-6.755 18.589-.143.56-.624 1-1.234 1.037a1.36 1.36 0 0 1-1.346-.89c-2.92-7.803-4.876-12.27-9.74-20.797-.364-.636-.183-1.478.456-1.883m14.139 3.647-14.138-3.647m14.138 3.647c-2.385 4.487-3.276 6.304-4.795 11.554-2.097-5.299-3.407-7.621-7.457-14.72a1.34 1.34 0 0 0-1.887-.481m14.139 3.647-14.138-3.647"/></g><defs><clipPath id="a"><path fill="#fff" d="M6 6h70v70H6z"/></clipPath><filter id="b" width="82" height="82" x="0" y="0" color-interpolation-filters="sRGB" filterUnits="userSpaceOnUse"><feFlood flood-opacity="0" result="BackgroundImageFix"/><feBlend in="SourceGraphic" in2="BackgroundImageFix" result="shape"/><feGaussianBlur result="effect1_foregroundBlur_196_1967" stdDeviation="3"/></filter></defs></svg>