<svg xmlns="http://www.w3.org/2000/svg" width="50" height="50" fill="none"><path fill="#3D0751" d="M48.5 25.5c0 12.703-10.297 23-23 23s-23-10.297-23-23 10.298-23 23-23 23 10.298 23 23m-43.7 0c0 11.432 9.268 20.7 20.7 20.7s20.7-9.268 20.7-20.7S36.932 4.8 25.5 4.8 4.8 14.068 4.8 25.5"/><path stroke="#37034B" stroke-linecap="round" stroke-linejoin="round" stroke-width="1.5" d="M22.816 32.652c.989-3.32 1.651-4.659 3.267-7.7l.017-.03c2.807-4.717 8.116-10.87 10.103-12.791a1.17 1.17 0 0 1 1.67-.057c.47.446.503 1.188.086 1.677-3.734 4.371-6.309 7.872-8.298 11.615-1.987 3.74-3.416 7.771-4.806 13.23a1.19 1.19 0 0 1-1.076.902m-.963-6.846.918 6.097m-.918-6.097c-1.376-3.407-2.365-5.156-5.11-9.967l-.65.372.65-.372a1.17 1.17 0 0 0-1.648-.418 1.22 1.22 0 0 0-.397 1.633c3.468 6.08 4.86 9.26 6.942 14.823l.703-.262m-.49-5.81.49 5.81m.473 1.037-.045-.749m.045.749q0 0 0 0l-.045-.749m.045.749a1.18 1.18 0 0 1-1.176-.775l.703-.262m.428.288a.43.43 0 0 1-.428-.288"/></svg>