<svg xmlns="http://www.w3.org/2000/svg" width="78" height="78" fill="none"><g filter="url(#a)"><path fill="#7E0B92" fill-opacity=".2" d="M39 6.8C21.233 6.8 6.8 21.233 6.8 39S21.233 71.2 39 71.2 71.2 56.767 71.2 39 56.767 6.8 39 6.8m0 2.8c16.254 0 29.4 13.146 29.4 29.4S55.254 68.4 39 68.4 9.6 55.254 9.6 39 22.746 9.6 39 9.6m12.723 14.05c-.957 0-2.033.221-3.292.675-1.954.704-24.942 10.464-27.557 11.574-1.495.636-4.28 1.818-4.28 4.638 0 1.869 1.096 3.206 3.252 3.976 1.159.413 3.912 1.247 5.51 1.687a8 8 0 0 0 2.138.281c1.449 0 2.907-.36 4.05-.998q-.017.353.024.711c.172 1.47 1.079 2.853 2.423 3.7.879.554 8.06 5.366 9.133 6.13 1.506 1.077 3.171 1.646 4.812 1.646 3.136 0 4.188-3.238 4.695-4.793.735-2.258 3.487-20.622 3.798-23.86.211-2.22-.714-4.046-2.475-4.89-.66-.317-1.412-.478-2.23-.478m0 2.8c.385 0 .729.063 1.02.204.662.318 1 1.027.897 2.098-.339 3.532-3.084 21.46-3.67 23.258-.5 1.537-1.029 2.86-2.034 2.86s-2.103-.352-3.186-1.126-8.268-5.592-9.266-6.22c-.875-.553-1.801-1.928-.498-3.258 1.074-1.094 9.219-9 9.915-9.696.518-.519.276-1.145-.233-1.145-.175 0-.384.073-.601.251-.851.696-12.718 8.637-13.746 9.275-.68.423-1.734.728-2.827.728-.466 0-.938-.056-1.392-.18-1.58-.436-4.252-1.247-5.313-1.625-1.02-.364-1.392-.713-1.392-1.337 0-.888 1.253-1.5 2.573-2.062 1.395-.592 25.523-10.838 27.41-11.517.873-.316 1.672-.509 2.343-.509"/></g><defs><filter id="a" width="82" height="82" x="-2" y="-2" color-interpolation-filters="sRGB" filterUnits="userSpaceOnUse"><feFlood flood-opacity="0" result="BackgroundImageFix"/><feBlend in="SourceGraphic" in2="BackgroundImageFix" result="shape"/><feGaussianBlur result="effect1_foregroundBlur_91_467" stdDeviation="3"/></filter></defs></svg>