<svg xmlns="http://www.w3.org/2000/svg" width="22" height="22" fill="none"><g clip-path="url(#a)"><path fill="#F5F0F7" d="M11 .55C5.236.55.55 5.234.55 11S5.236 21.45 11 21.45c5.767 0 10.45-4.684 10.45-10.45S16.768.55 11 .55m0 .909A9.534 9.534 0 0 1 20.543 11a9.534 9.534 0 0 1-9.541 9.541A9.535 9.535 0 0 1 1.459 11a9.534 9.534 0 0 1 9.542-9.541m4.13 4.56c-.31 0-.66.071-1.069.218-.634.229-8.094 3.396-8.943 3.757-.485.206-1.389.59-1.389 1.505 0 .606.356 1.04 1.056 1.29.376.134 1.27.405 1.788.548q.331.09.694.091c.47 0 .943-.117 1.314-.324q-.005.115.008.23c.056.478.35.927.786 1.201.285.18 2.616 1.742 2.964 1.99.489.35 1.03.534 1.562.534 1.018 0 1.359-1.05 1.524-1.555.238-.733 1.131-6.693 1.232-7.744.069-.72-.232-1.313-.803-1.587a1.66 1.66 0 0 0-.724-.155m0 .908q.188-.002.33.066c.216.104.325.333.292.681-.11 1.146-1.001 6.965-1.191 7.548-.163.5-.334.929-.66.929s-.683-.115-1.034-.366c-.351-.25-2.684-1.815-3.007-2.019-.284-.179-.585-.625-.162-1.057.349-.355 2.992-2.92 3.218-3.147.168-.168.09-.371-.076-.371a.32.32 0 0 0-.195.081c-.276.226-4.127 2.803-4.46 3.01-.222.138-.564.236-.918.236q-.23.001-.452-.058a34 34 0 0 1-1.724-.527c-.332-.118-.452-.232-.452-.434 0-.288.407-.487.835-.67.453-.192 8.283-3.517 8.895-3.737.284-.103.543-.165.76-.165"/></g><defs><clipPath id="a"><path fill="#fff" d="M0 0h22v22H0z"/></clipPath></defs></svg>