<svg xmlns="http://www.w3.org/2000/svg" width="40" height="40" fill="none"><path fill="#3D0751" d="M20 1.6C9.847 1.6 1.6 9.848 1.6 20c0 10.153 8.247 18.4 18.4 18.4S38.4 30.153 38.4 20 30.153 1.6 20 1.6m0 1.6c9.288 0 16.8 7.512 16.8 16.8S29.288 36.8 20 36.8 3.2 29.288 3.2 20 10.712 3.2 20 3.2m7.27 8.028c-.547 0-1.162.127-1.881.386-1.117.403-14.252 5.98-15.747 6.614-.854.363-2.445 1.039-2.445 2.65 0 1.068.626 1.832 1.858 2.272.662.236 2.235.713 3.148.964.387.107.799.161 1.222.161.828 0 1.661-.206 2.314-.57q-.01.202.014.406c.098.84.616 1.63 1.384 2.114.503.317 4.606 3.066 5.22 3.503.86.615 1.812.94 2.75.94 1.791 0 2.392-1.85 2.682-2.738.42-1.29 1.993-11.784 2.17-13.635.121-1.268-.407-2.312-1.414-2.793a2.9 2.9 0 0 0-1.275-.274m0 1.6c.22 0 .417.037.583.117.378.182.571.587.513 1.199-.194 2.018-1.763 12.263-2.097 13.29-.287.879-.588 1.635-1.163 1.635-.574 0-1.202-.201-1.82-.644a325 325 0 0 0-5.295-3.555c-.5-.315-1.03-1.1-.285-1.86.614-.626 5.268-5.144 5.666-5.541.296-.297.157-.655-.133-.655-.1 0-.22.042-.344.144-.486.398-7.267 4.935-7.854 5.3-.39.242-.991.416-1.616.416a3 3 0 0 1-.795-.104c-.903-.248-2.43-.712-3.036-.928-.583-.208-.796-.407-.796-.764 0-.507.716-.857 1.47-1.178.797-.338 14.585-6.193 15.663-6.581.5-.181.956-.29 1.34-.29"/></svg>