<svg xmlns="http://www.w3.org/2000/svg" width="40" height="40" fill="none"><path fill="#3D0751" d="M20 1.6C9.848 1.6 1.6 9.848 1.6 20c0 3.263.895 6.309 2.387 8.967L1.63 37.385a.8.8 0 0 0 .962.992l8.777-2.175C13.948 37.578 16.874 38.4 20 38.4c10.152 0 18.4-8.247 18.4-18.4S30.152 1.6 20 1.6m0 1.6c9.288 0 16.8 7.513 16.8 16.8S29.288 36.8 20 36.8c-2.978 0-5.766-.776-8.19-2.133a.8.8 0 0 0-.584-.078l-7.685 1.905L5.6 29.14a.8.8 0 0 0-.08-.624A16.7 16.7 0 0 1 3.2 20c0-9.287 7.512-16.8 16.8-16.8m-6.686 7.2a2.54 2.54 0 0 0-1.847.84c-.361.389-1.867 1.856-1.867 4.435 0 2.69 1.865 5.01 2.09 5.308h.002v.002c-.021-.029.286.417.697.951.41.534.985 1.236 1.706 1.995 1.443 1.52 3.472 3.275 5.99 4.349 1.159.493 2.073.792 2.767 1.01 1.284.402 2.454.341 3.332.212.658-.097 1.381-.413 2.097-.866s1.417-1.016 1.727-1.872a6.6 6.6 0 0 0 .375-1.647c.02-.233.023-.439.008-.63-.016-.19 0-.336-.177-.627-.372-.612-.794-.628-1.234-.846-.245-.12-.941-.46-1.64-.794-.697-.332-1.3-.626-1.673-.759-.235-.084-.522-.206-.936-.16-.414.048-.823.346-1.06.7-.226.334-1.135 1.406-1.412 1.721l-.089-.045c-.342-.17-.761-.314-1.381-.641s-1.395-.81-2.244-1.558v-.001c-1.263-1.112-2.147-2.508-2.426-2.977.018-.022-.003.005.037-.034l.002-.002c.285-.28.538-.616.751-.862.303-.35.437-.657.582-.944.288-.573.128-1.203-.04-1.535v-.001c.012.023-.09-.202-.2-.461-.11-.26-.25-.597-.4-.956-.299-.719-.633-1.525-.832-1.997v-.002c-.235-.556-.551-.956-.966-1.15s-.78-.138-.795-.139h-.002c-.296-.013-.62-.017-.942-.017m0 1.6c.309 0 .613.004.867.016.262.013.246.014.196-.01-.052-.024.018-.031.167.322l.831 1.992c.15.36.29.7.403.964.112.266.173.414.244.555v.002l.001.001c.07.137.064.05.04.097-.17.335-.192.418-.363.614-.26.3-.525.634-.666.772-.123.12-.344.309-.482.677-.139.368-.074.874.148 1.251.296.503 1.272 2.09 2.788 3.425a13 13 0 0 0 2.554 1.774c.71.374 1.29.593 1.419.657.307.153.644.27 1.034.224.391-.047.728-.284.942-.527l.002-.001c.285-.324 1.134-1.292 1.54-1.89.018.007.012.002.148.05v.002h.001c.062.022.835.369 1.525.697.69.329 1.39.67 1.617.783.329.162.484.268.524.269.002.07.005.146-.005.262a5 5 0 0 1-.286 1.242c-.084.233-.523.714-1.076 1.065-.554.35-1.228.597-1.477.634-.75.11-1.64.15-2.619-.156a27 27 0 0 1-2.619-.955c-2.22-.947-4.108-2.559-5.456-3.978a24 24 0 0 1-1.598-1.87c-.384-.5-.551-.76-.69-.943l-.002-.001c-.248-.328-1.766-2.44-1.766-4.34 0-2.014.935-2.803 1.44-3.348.266-.286.556-.328.674-.328"/></svg>