<svg xmlns="http://www.w3.org/2000/svg" width="78" height="78" fill="none"><g filter="url(#a)"><path fill="#7E0B92" fill-opacity=".2" d="M39 6.8C21.233 6.8 6.8 21.233 6.8 39c0 5.71 1.566 11.04 4.178 15.693l-4.126 14.73a1.4 1.4 0 0 0 1.684 1.736l15.36-3.806C28.407 69.763 33.53 71.2 39 71.2c17.767 0 32.2-14.433 32.2-32.2S56.767 6.8 39 6.8m0 2.8c16.253 0 29.4 13.147 29.4 29.4S55.253 68.4 39 68.4a29.24 29.24 0 0 1-14.333-3.732 1.4 1.4 0 0 0-1.02-.137l-13.45 3.333 3.606-12.868a1.4 1.4 0 0 0-.14-1.09A29.23 29.23 0 0 1 9.6 39C9.6 22.747 22.747 9.6 39 9.6M27.3 22.2c-.898 0-2.18.334-3.232 1.468-.633.682-3.268 3.25-3.268 7.763 0 4.706 3.264 8.767 3.659 9.289h.002v.003a44 44 0 0 0 4.205 5.157c2.526 2.658 6.076 5.73 10.482 7.61a50 50 0 0 0 4.842 1.766c2.248.706 4.295.598 5.833.372 1.15-.17 2.417-.722 3.67-1.515 1.252-.793 2.48-1.778 3.02-3.276.389-1.073.586-2.065.657-2.882.036-.408.04-.768.014-1.102-.027-.333.002-.589-.31-1.099-.651-1.07-1.39-1.098-2.16-1.48a262 262 0 0 0-2.868-1.388c-1.22-.582-2.277-1.097-2.928-1.33-.412-.147-.914-.36-1.638-.278-.725.082-1.44.605-1.857 1.222-.395.585-1.984 2.462-2.469 3.013-.007-.004.036.016-.156-.079-.6-.297-1.332-.549-2.417-1.121a20 20 0 0 1-3.927-2.726v-.003c-2.21-1.946-3.758-4.388-4.246-5.209.033-.04-.004.008.066-.06l.002-.003c.5-.491.942-1.079 1.316-1.51.53-.61.763-1.148 1.017-1.65.505-1.003.223-2.106-.069-2.686v-.003c.02.04-.158-.353-.35-.806-.192-.455-.438-1.045-.7-1.674-.524-1.258-1.11-2.668-1.457-3.494v-.003c-.41-.973-.965-1.674-1.69-2.012s-1.366-.243-1.392-.244h-.003a37 37 0 0 0-1.648-.03m0 2.8c.54 0 1.072.007 1.517.027.459.023.43.025.342-.016-.09-.042.032-.055.293.563.34.81.928 2.225 1.454 3.487.263.63.51 1.222.706 1.687.196.464.303.723.426.97v.003l.003.003c.121.239.11.086.068.17-.295.586-.335.73-.634 1.074-.455.524-.92 1.109-1.165 1.35-.215.212-.603.54-.845 1.185s-.129 1.53.26 2.19c.518.88 2.225 3.658 4.878 5.994a23 23 0 0 0 4.47 3.103c1.244.656 2.257 1.04 2.484 1.151.538.267 1.126.474 1.81.392.684-.083 1.273-.498 1.649-.922l.002-.003c.5-.566 1.984-2.26 2.697-3.306.03.011.02.003.256.088v.003h.003a83 83 0 0 1 2.669 1.22c1.207.574 2.432 1.172 2.83 1.37.575.283.846.468.916.47a3 3 0 0 1-.008.459 9 9 0 0 1-.5 2.174c-.148.407-.916 1.249-1.885 1.862-.968.613-2.147 1.046-2.584 1.11-1.312.193-2.87.264-4.582-.274a47 47 0 0 1-4.583-1.67c-3.886-1.658-7.19-4.478-9.548-6.962a42 42 0 0 1-2.798-3.273c-.67-.873-.964-1.328-1.208-1.649l-.003-.003c-.434-.573-3.09-4.268-3.09-7.596 0-3.522 1.636-4.903 2.521-5.857.465-.5.973-.574 1.179-.574"/></g><defs><filter id="a" width="82" height="82" x="-2" y="-2" color-interpolation-filters="sRGB" filterUnits="userSpaceOnUse"><feFlood flood-opacity="0" result="BackgroundImageFix"/><feBlend in="SourceGraphic" in2="BackgroundImageFix" result="shape"/><feGaussianBlur result="effect1_foregroundBlur_91_472" stdDeviation="3"/></filter></defs></svg>