<svg xmlns="http://www.w3.org/2000/svg" width="22" height="22" fill="none"><g clip-path="url(#a)"><path fill="#F5F0F7" d="M11.136.502C5.37.502.686 5.187.686 10.952c0 1.854.508 3.583 1.355 5.093l-1.339 4.78a.455.455 0 0 0 .547.564l4.985-1.235a10.4 10.4 0 0 0 4.902 1.248c5.765 0 10.45-4.684 10.45-10.45S16.9.502 11.136.502m0 .91a9.535 9.535 0 0 1 9.54 9.54 9.535 9.535 0 0 1-9.54 9.542 9.5 9.5 0 0 1-4.652-1.212.46.46 0 0 0-.331-.044L1.788 20.32l1.17-4.176a.45.45 0 0 0-.045-.354 9.5 9.5 0 0 1-1.319-4.838 9.535 9.535 0 0 1 9.542-9.54M7.338 5.5c-.29 0-.707.109-1.049.477-.205.22-1.06 1.054-1.06 2.52 0 1.526 1.06 2.844 1.187 3.014h.001a14.4 14.4 0 0 0 1.365 1.674c.82.863 1.972 1.86 3.402 2.47.658.28 1.178.45 1.571.573.73.23 1.394.194 1.893.12.373-.054.784-.234 1.19-.49.407-.258.806-.578.981-1.064.126-.348.19-.67.213-.935q.018-.198.005-.358c-.009-.108 0-.191-.1-.357-.212-.347-.452-.356-.702-.48a84 84 0 0 0-.93-.45c-.397-.19-.74-.357-.95-.432-.134-.048-.297-.117-.532-.09-.236.026-.468.196-.603.396-.128.19-.644.8-.801.978l-.05-.026c-.195-.096-.433-.178-.785-.363a6.5 6.5 0 0 1-1.275-.885v-.001c-.717-.631-1.22-1.424-1.378-1.69.01-.013-.001.002.022-.02.162-.16.306-.351.427-.49.172-.199.248-.374.33-.537.164-.325.073-.683-.022-.871v-.001c.007.013-.051-.115-.113-.262l-.228-.543c-.17-.408-.36-.866-.473-1.134-.133-.317-.313-.544-.548-.654s-.443-.079-.452-.079a12 12 0 0 0-.536-.01m0 .909c.176 0 .348.002.493.009.149.007.14.008.11-.005-.028-.014.011-.018.096.182l.472 1.132c.085.204.165.397.229.547s.098.235.138.315v.001l.001.001c.04.078.036.028.022.055-.096.19-.109.237-.206.349-.147.17-.298.36-.378.438-.07.069-.195.175-.274.384s-.042.497.084.711c.169.286.723 1.187 1.584 1.945a7.4 7.4 0 0 0 1.45 1.008c.404.213.733.337.806.373.175.087.366.154.588.127a.9.9 0 0 0 .535-.299c.163-.185.645-.735.876-1.074.01.004.006.001.083.029h.001c.035.013.474.21.866.396s.79.381.918.445c.187.092.275.152.298.153.001.04.003.083-.003.149a3 3 0 0 1-.162.705c-.048.133-.297.406-.612.604-.314.2-.697.34-.838.36-.426.063-.932.087-1.488-.088a15 15 0 0 1-1.487-.542c-1.261-.538-2.333-1.453-3.099-2.26a13 13 0 0 1-.907-1.062c-.218-.283-.313-.43-.393-.535C7 10.774 6.137 9.575 6.137 8.495c0-1.143.53-1.591.818-1.9a.54.54 0 0 1 .382-.187"/></g><defs><clipPath id="a"><path fill="#fff" d="M0 0h22v22H0z"/></clipPath></defs></svg>