<svg width="440" height="290" viewBox="0 0 440 290" fill="none" xmlns="http://www.w3.org/2000/svg">
<g filter="url(#filter0_d_167_1647)">
<path d="M32 51C32 38.8497 41.8497 29 54 29H402C405.314 29 408 31.6863 408 35V239C408 251.15 398.15 261 386 261H38C34.6863 261 32 258.314 32 255V51Z" fill="url(#paint0_linear_167_1647)"/>
<path d="M32.5 51C32.5 39.1259 42.1259 29.5 54 29.5H402C405.038 29.5 407.5 31.9624 407.5 35V239C407.5 250.874 397.874 260.5 386 260.5H38C34.9624 260.5 32.5 258.038 32.5 255V51Z" stroke="url(#paint1_linear_167_1647)"/>
</g>
<rect x="18.75" y="15.75" width="420.5" height="273.5" rx="34.25" stroke="url(#paint2_linear_167_1647)" stroke-width="1.5"/>
<rect x="0.75" y="0.75" width="420.5" height="273.5" rx="34.25" stroke="url(#paint3_linear_167_1647)" stroke-width="1.5"/>
<path d="M137.819 167.493H134.673V165.841H137.819C138.367 165.841 138.809 165.752 139.147 165.575C139.485 165.398 139.731 165.155 139.886 164.845C140.046 164.529 140.126 164.17 140.126 163.766C140.126 163.384 140.046 163.027 139.886 162.695C139.731 162.357 139.485 162.086 139.147 161.881C138.809 161.677 138.367 161.574 137.819 161.574H135.312V172H133.229V159.914H137.819C138.754 159.914 139.548 160.08 140.201 160.412C140.86 160.739 141.361 161.192 141.704 161.773C142.047 162.349 142.218 163.007 142.218 163.749C142.218 164.529 142.047 165.199 141.704 165.758C141.361 166.317 140.86 166.746 140.201 167.044C139.548 167.343 138.754 167.493 137.819 167.493ZM147.73 172.166C147.066 172.166 146.465 172.058 145.929 171.842C145.397 171.621 144.944 171.314 144.567 170.921C144.197 170.528 143.912 170.066 143.712 169.535C143.513 169.003 143.414 168.431 143.414 167.816V167.484C143.414 166.782 143.516 166.145 143.721 165.575C143.925 165.005 144.21 164.518 144.576 164.114C144.941 163.705 145.373 163.392 145.871 163.176C146.369 162.96 146.908 162.853 147.489 162.853C148.131 162.853 148.693 162.96 149.174 163.176C149.656 163.392 150.054 163.696 150.37 164.089C150.691 164.477 150.929 164.939 151.083 165.476C151.244 166.012 151.324 166.604 151.324 167.252V168.107H144.385V166.671H149.349V166.513C149.338 166.153 149.266 165.816 149.133 165.5C149.006 165.185 148.809 164.931 148.543 164.737C148.278 164.543 147.924 164.446 147.481 164.446C147.149 164.446 146.853 164.518 146.593 164.662C146.338 164.8 146.125 165.002 145.954 165.268C145.782 165.534 145.649 165.855 145.555 166.231C145.467 166.602 145.422 167.02 145.422 167.484V167.816C145.422 168.209 145.475 168.575 145.58 168.912C145.691 169.244 145.851 169.535 146.062 169.784C146.272 170.033 146.526 170.229 146.825 170.373C147.124 170.511 147.464 170.581 147.846 170.581C148.328 170.581 148.757 170.484 149.133 170.29C149.509 170.096 149.836 169.822 150.112 169.468L151.167 170.489C150.973 170.771 150.721 171.043 150.411 171.303C150.101 171.557 149.722 171.765 149.274 171.925C148.831 172.086 148.317 172.166 147.73 172.166ZM155.043 163.019V172H153.042V163.019H155.043ZM160.903 163.019L156.861 168.422H154.578L154.312 166.613H155.981L158.405 163.019H160.903ZM158.562 172L155.856 168.082L157.434 166.945L161.194 172H158.562ZM161.601 167.609V167.418C161.601 166.771 161.695 166.17 161.883 165.617C162.071 165.058 162.342 164.574 162.696 164.164C163.056 163.749 163.493 163.428 164.008 163.201C164.528 162.969 165.115 162.853 165.768 162.853C166.426 162.853 167.013 162.969 167.527 163.201C168.048 163.428 168.487 163.749 168.847 164.164C169.207 164.574 169.481 165.058 169.669 165.617C169.857 166.17 169.951 166.771 169.951 167.418V167.609C169.951 168.256 169.857 168.857 169.669 169.41C169.481 169.964 169.207 170.448 168.847 170.863C168.487 171.272 168.05 171.593 167.536 171.826C167.021 172.053 166.437 172.166 165.784 172.166C165.126 172.166 164.536 172.053 164.016 171.826C163.501 171.593 163.064 171.272 162.705 170.863C162.345 170.448 162.071 169.964 161.883 169.41C161.695 168.857 161.601 168.256 161.601 167.609ZM163.601 167.418V167.609C163.601 168.013 163.643 168.395 163.726 168.754C163.809 169.114 163.939 169.43 164.116 169.701C164.293 169.972 164.52 170.185 164.796 170.34C165.073 170.495 165.402 170.572 165.784 170.572C166.155 170.572 166.476 170.495 166.747 170.34C167.024 170.185 167.251 169.972 167.428 169.701C167.605 169.43 167.735 169.114 167.818 168.754C167.906 168.395 167.951 168.013 167.951 167.609V167.418C167.951 167.02 167.906 166.643 167.818 166.289C167.735 165.929 167.602 165.611 167.419 165.334C167.242 165.058 167.015 164.842 166.739 164.687C166.468 164.527 166.144 164.446 165.768 164.446C165.391 164.446 165.065 164.527 164.788 164.687C164.517 164.842 164.293 165.058 164.116 165.334C163.939 165.611 163.809 165.929 163.726 166.289C163.643 166.643 163.601 167.02 163.601 167.418ZM176.965 169.576L179.638 163.019H181.373L177.646 172H176.285L172.566 163.019H174.301L176.965 169.576ZM173.786 163.019V172H171.786V163.019H173.786ZM180.145 172V163.019H182.153V172H180.145ZM188.354 172.166C187.69 172.166 187.09 172.058 186.553 171.842C186.021 171.621 185.568 171.314 185.191 170.921C184.821 170.528 184.536 170.066 184.336 169.535C184.137 169.003 184.038 168.431 184.038 167.816V167.484C184.038 166.782 184.14 166.145 184.345 165.575C184.549 165.005 184.834 164.518 185.2 164.114C185.565 163.705 185.997 163.392 186.495 163.176C186.993 162.96 187.532 162.853 188.113 162.853C188.755 162.853 189.317 162.96 189.798 163.176C190.28 163.392 190.678 163.696 190.994 164.089C191.315 164.477 191.553 164.939 191.708 165.476C191.868 166.012 191.948 166.604 191.948 167.252V168.107H185.009V166.671H189.973V166.513C189.962 166.153 189.89 165.816 189.757 165.5C189.63 165.185 189.433 164.931 189.167 164.737C188.902 164.543 188.548 164.446 188.105 164.446C187.773 164.446 187.477 164.518 187.217 164.662C186.962 164.8 186.749 165.002 186.578 165.268C186.406 165.534 186.273 165.855 186.179 166.231C186.091 166.602 186.046 167.02 186.046 167.484V167.816C186.046 168.209 186.099 168.575 186.204 168.912C186.315 169.244 186.475 169.535 186.686 169.784C186.896 170.033 187.15 170.229 187.449 170.373C187.748 170.511 188.088 170.581 188.47 170.581C188.952 170.581 189.381 170.484 189.757 170.29C190.133 170.096 190.46 169.822 190.736 169.468L191.791 170.489C191.597 170.771 191.345 171.043 191.035 171.303C190.725 171.557 190.346 171.765 189.898 171.925C189.455 172.086 188.941 172.166 188.354 172.166ZM199.643 166.771V168.348H194.995V166.771H199.643ZM195.576 163.019V172H193.575V163.019H195.576ZM201.087 163.019V172H199.087V163.019H201.087ZM204.848 163.019H206.848L206.749 166.181C206.721 167.1 206.616 167.888 206.433 168.547C206.25 169.205 206.013 169.762 205.719 170.215C205.426 170.664 205.094 171.032 204.723 171.319C204.358 171.607 203.973 171.834 203.569 172H202.98V170.423L203.262 170.406C203.5 170.152 203.705 169.897 203.876 169.643C204.054 169.382 204.203 169.097 204.325 168.788C204.446 168.472 204.541 168.104 204.607 167.684C204.679 167.263 204.726 166.762 204.748 166.181L204.848 163.019ZM205.379 163.019H211.073V172H209.081V164.712H205.379V163.019ZM202.523 170.406H212.302V174.673H210.301V172H204.549V174.673H202.515L202.523 170.406ZM216.336 171.021L218.776 163.019H220.918L217.315 173.37C217.232 173.591 217.125 173.832 216.992 174.092C216.859 174.352 216.685 174.598 216.469 174.831C216.258 175.069 215.996 175.259 215.68 175.403C215.365 175.553 214.983 175.627 214.535 175.627C214.358 175.627 214.186 175.611 214.02 175.578C213.86 175.55 213.707 175.52 213.563 175.486L213.555 173.959C213.611 173.965 213.677 173.97 213.754 173.976C213.837 173.981 213.904 173.984 213.954 173.984C214.286 173.984 214.562 173.942 214.784 173.859C215.005 173.782 215.185 173.655 215.323 173.478C215.467 173.3 215.589 173.062 215.688 172.764L216.336 171.021ZM214.958 163.019L217.091 169.742L217.448 171.851L216.062 172.208L212.8 163.019H214.958ZM225.907 172.166C225.243 172.166 224.642 172.058 224.105 171.842C223.574 171.621 223.12 171.314 222.744 170.921C222.373 170.528 222.088 170.066 221.889 169.535C221.69 169.003 221.59 168.431 221.59 167.816V167.484C221.59 166.782 221.693 166.145 221.897 165.575C222.102 165.005 222.387 164.518 222.752 164.114C223.118 163.705 223.549 163.392 224.047 163.176C224.545 162.96 225.085 162.853 225.666 162.853C226.308 162.853 226.87 162.96 227.351 163.176C227.833 163.392 228.231 163.696 228.546 164.089C228.867 164.477 229.105 164.939 229.26 165.476C229.421 166.012 229.501 166.604 229.501 167.252V168.107H222.562V166.671H227.525V166.513C227.514 166.153 227.442 165.816 227.31 165.5C227.182 165.185 226.986 164.931 226.72 164.737C226.455 164.543 226.1 164.446 225.658 164.446C225.326 164.446 225.03 164.518 224.77 164.662C224.515 164.8 224.302 165.002 224.13 165.268C223.959 165.534 223.826 165.855 223.732 166.231C223.643 166.602 223.599 167.02 223.599 167.484V167.816C223.599 168.209 223.652 168.575 223.757 168.912C223.868 169.244 224.028 169.535 224.238 169.784C224.449 170.033 224.703 170.229 225.002 170.373C225.301 170.511 225.641 170.581 226.023 170.581C226.504 170.581 226.933 170.484 227.31 170.29C227.686 170.096 228.012 169.822 228.289 169.468L229.343 170.489C229.15 170.771 228.898 171.043 228.588 171.303C228.278 171.557 227.899 171.765 227.451 171.925C227.008 172.086 226.493 172.166 225.907 172.166ZM236.399 169.576L239.072 163.019H240.807L237.08 172H235.718L232 163.019H233.734L236.399 169.576ZM233.22 163.019V172H231.219V163.019H233.22ZM239.578 172V163.019H241.587V172H239.578ZM245.314 165.874H247.962C248.737 165.874 249.395 166.004 249.938 166.264C250.48 166.524 250.892 166.887 251.174 167.352C251.462 167.811 251.606 168.337 251.606 168.929C251.606 169.366 251.526 169.773 251.365 170.149C251.205 170.52 250.967 170.843 250.651 171.12C250.341 171.397 249.96 171.613 249.506 171.768C249.058 171.923 248.543 172 247.962 172H243.986V163.019H245.995V170.415H247.962C248.36 170.415 248.679 170.345 248.917 170.207C249.154 170.069 249.326 169.889 249.431 169.667C249.542 169.446 249.597 169.211 249.597 168.962C249.597 168.707 249.542 168.467 249.431 168.24C249.326 168.013 249.154 167.827 248.917 167.684C248.679 167.54 248.36 167.468 247.962 167.468H245.314V165.874ZM255.142 163.019V172H253.142V163.019H255.142ZM259.575 169.078L263.103 163.019H265.103V172H263.103V165.932L259.575 172H257.574V163.019H259.575V169.078ZM262.571 159.565H264.057C264.057 160.025 263.946 160.431 263.725 160.786C263.509 161.134 263.199 161.408 262.795 161.607C262.397 161.807 261.921 161.906 261.368 161.906C260.532 161.906 259.871 161.69 259.384 161.259C258.902 160.822 258.662 160.257 258.662 159.565H260.147C260.147 159.875 260.239 160.149 260.421 160.387C260.61 160.62 260.925 160.736 261.368 160.736C261.805 160.736 262.115 160.62 262.297 160.387C262.48 160.149 262.571 159.875 262.571 159.565ZM273.611 163.019V172H271.611V163.019H273.611ZM279.472 163.019L275.429 168.422H273.146L272.881 166.613H274.549L276.973 163.019H279.472ZM277.131 172L274.425 168.082L276.002 166.945L279.762 172H277.131ZM283.456 171.021L285.896 163.019H288.038L284.436 173.37C284.353 173.591 284.245 173.832 284.112 174.092C283.979 174.352 283.805 174.598 283.589 174.831C283.379 175.069 283.116 175.259 282.8 175.403C282.485 175.553 282.103 175.627 281.655 175.627C281.478 175.627 281.306 175.611 281.14 175.578C280.98 175.55 280.827 175.52 280.684 175.486L280.675 173.959C280.731 173.965 280.797 173.97 280.875 173.976C280.958 173.981 281.024 173.984 281.074 173.984C281.406 173.984 281.682 173.942 281.904 173.859C282.125 173.782 282.305 173.655 282.443 173.478C282.587 173.3 282.709 173.062 282.809 172.764L283.456 171.021ZM282.078 163.019L284.211 169.742L284.568 171.851L283.182 172.208L279.92 163.019H282.078ZM291.192 164.745V175.453H289.192V163.019H291.035L291.192 164.745ZM297.044 167.426V167.601C297.044 168.254 296.967 168.86 296.812 169.418C296.663 169.972 296.438 170.456 296.14 170.871C295.846 171.281 295.484 171.599 295.052 171.826C294.621 172.053 294.123 172.166 293.558 172.166C292.999 172.166 292.509 172.064 292.089 171.859C291.674 171.649 291.322 171.353 291.035 170.971C290.747 170.589 290.514 170.141 290.337 169.626C290.166 169.106 290.044 168.536 289.972 167.916V167.244C290.044 166.585 290.166 165.987 290.337 165.451C290.514 164.914 290.747 164.452 291.035 164.064C291.322 163.677 291.674 163.378 292.089 163.168C292.504 162.958 292.988 162.853 293.542 162.853C294.106 162.853 294.607 162.963 295.044 163.185C295.481 163.4 295.849 163.71 296.148 164.114C296.447 164.513 296.671 164.994 296.82 165.559C296.97 166.118 297.044 166.74 297.044 167.426ZM295.044 167.601V167.426C295.044 167.011 295.005 166.627 294.928 166.272C294.85 165.913 294.729 165.597 294.562 165.326C294.396 165.055 294.183 164.845 293.923 164.695C293.669 164.54 293.362 164.463 293.002 164.463C292.648 164.463 292.343 164.524 292.089 164.646C291.834 164.762 291.621 164.925 291.45 165.135C291.278 165.346 291.145 165.592 291.051 165.874C290.957 166.151 290.891 166.452 290.852 166.779V168.389C290.918 168.788 291.032 169.153 291.192 169.485C291.353 169.817 291.58 170.083 291.873 170.282C292.172 170.475 292.554 170.572 293.019 170.572C293.378 170.572 293.685 170.495 293.94 170.34C294.194 170.185 294.402 169.972 294.562 169.701C294.729 169.424 294.85 169.106 294.928 168.746C295.005 168.386 295.044 168.005 295.044 167.601ZM302.415 170.572C302.742 170.572 303.035 170.509 303.295 170.381C303.561 170.249 303.774 170.066 303.934 169.833C304.1 169.601 304.191 169.333 304.208 169.028H306.092C306.081 169.609 305.91 170.138 305.578 170.614C305.246 171.09 304.806 171.469 304.258 171.751C303.71 172.028 303.104 172.166 302.44 172.166C301.754 172.166 301.156 172.05 300.647 171.817C300.138 171.579 299.715 171.253 299.377 170.838C299.039 170.423 298.785 169.944 298.613 169.402C298.447 168.86 298.364 168.278 298.364 167.659V167.368C298.364 166.748 298.447 166.167 298.613 165.625C298.785 165.077 299.039 164.596 299.377 164.181C299.715 163.766 300.138 163.442 300.647 163.209C301.156 162.972 301.751 162.853 302.432 162.853C303.151 162.853 303.782 162.996 304.324 163.284C304.867 163.566 305.293 163.962 305.603 164.471C305.918 164.975 306.081 165.561 306.092 166.231H304.208C304.191 165.899 304.108 165.6 303.959 165.334C303.815 165.063 303.61 164.847 303.345 164.687C303.085 164.527 302.772 164.446 302.407 164.446C302.003 164.446 301.668 164.529 301.402 164.695C301.137 164.856 300.929 165.077 300.78 165.359C300.63 165.636 300.522 165.949 300.456 166.297C300.395 166.64 300.365 166.997 300.365 167.368V167.659C300.365 168.029 300.395 168.389 300.456 168.738C300.517 169.086 300.622 169.399 300.771 169.676C300.926 169.947 301.137 170.166 301.402 170.332C301.668 170.492 302.006 170.572 302.415 170.572ZM137.339 184.277V195H135.984V185.969L133.252 186.965V185.742L137.127 184.277H137.339ZM148.311 193.887V195H141.331V194.026L144.825 190.137C145.254 189.658 145.586 189.253 145.821 188.921C146.06 188.584 146.226 188.284 146.319 188.02C146.417 187.751 146.465 187.478 146.465 187.2C146.465 186.848 146.392 186.531 146.246 186.248C146.104 185.959 145.894 185.73 145.616 185.559C145.337 185.388 145 185.303 144.605 185.303C144.131 185.303 143.736 185.396 143.418 185.581C143.106 185.762 142.872 186.016 142.715 186.343C142.559 186.67 142.481 187.046 142.481 187.471H141.126C141.126 186.87 141.258 186.321 141.521 185.823C141.785 185.325 142.176 184.929 142.693 184.636C143.211 184.338 143.848 184.189 144.605 184.189C145.279 184.189 145.855 184.309 146.333 184.548C146.812 184.783 147.178 185.115 147.432 185.544C147.691 185.969 147.82 186.467 147.82 187.039C147.82 187.351 147.767 187.668 147.659 187.991C147.557 188.308 147.413 188.625 147.227 188.943C147.046 189.26 146.834 189.573 146.59 189.88C146.351 190.188 146.094 190.491 145.821 190.789L142.964 193.887H148.311ZM152.728 189.91V191.023H149.153V189.91H152.728ZM158.36 184.277V195H157.005V185.969L154.273 186.965V185.742L158.147 184.277H158.36ZM167.544 184.321H167.662V185.471H167.544C166.827 185.471 166.226 185.588 165.743 185.823C165.259 186.052 164.876 186.362 164.593 186.753C164.31 187.139 164.104 187.573 163.978 188.057C163.855 188.54 163.794 189.031 163.794 189.529V191.096C163.794 191.57 163.851 191.99 163.963 192.356C164.075 192.717 164.229 193.022 164.424 193.271C164.62 193.521 164.839 193.708 165.083 193.835C165.333 193.962 165.591 194.026 165.86 194.026C166.172 194.026 166.451 193.967 166.695 193.85C166.939 193.728 167.144 193.56 167.31 193.345C167.481 193.125 167.61 192.866 167.698 192.568C167.786 192.271 167.83 191.943 167.83 191.587C167.83 191.27 167.791 190.964 167.713 190.671C167.635 190.374 167.515 190.11 167.354 189.88C167.193 189.646 166.99 189.463 166.746 189.331C166.507 189.194 166.221 189.126 165.889 189.126C165.513 189.126 165.162 189.219 164.834 189.404C164.512 189.585 164.246 189.824 164.036 190.122C163.831 190.415 163.714 190.735 163.685 191.082L162.967 191.074C163.035 190.527 163.162 190.061 163.348 189.675C163.538 189.285 163.772 188.967 164.051 188.723C164.334 188.474 164.649 188.293 164.996 188.181C165.347 188.064 165.718 188.005 166.109 188.005C166.641 188.005 167.1 188.105 167.486 188.306C167.872 188.506 168.189 188.774 168.438 189.111C168.687 189.443 168.87 189.819 168.987 190.239C169.109 190.654 169.17 191.082 169.17 191.521C169.17 192.024 169.1 192.495 168.958 192.935C168.816 193.374 168.604 193.76 168.321 194.092C168.042 194.424 167.698 194.683 167.288 194.868C166.878 195.054 166.402 195.146 165.86 195.146C165.284 195.146 164.781 195.029 164.351 194.795C163.921 194.556 163.565 194.238 163.282 193.843C162.999 193.447 162.786 193.008 162.645 192.524C162.503 192.041 162.432 191.55 162.432 191.052V190.415C162.432 189.663 162.508 188.926 162.659 188.203C162.811 187.48 163.072 186.826 163.443 186.24C163.819 185.654 164.339 185.188 165.003 184.841C165.667 184.495 166.514 184.321 167.544 184.321ZM177.82 194.033C178.143 194.033 178.44 193.967 178.714 193.835C178.987 193.704 179.212 193.523 179.388 193.293C179.563 193.059 179.664 192.793 179.688 192.495H180.977C180.953 192.964 180.794 193.401 180.501 193.806C180.213 194.207 179.834 194.531 179.366 194.78C178.897 195.024 178.382 195.146 177.82 195.146C177.225 195.146 176.705 195.042 176.26 194.832C175.821 194.622 175.455 194.333 175.162 193.967C174.874 193.601 174.656 193.181 174.51 192.708C174.368 192.229 174.297 191.724 174.297 191.191V190.884C174.297 190.352 174.368 189.849 174.51 189.375C174.656 188.896 174.874 188.474 175.162 188.108C175.455 187.742 175.821 187.454 176.26 187.244C176.705 187.034 177.225 186.929 177.82 186.929C178.44 186.929 178.982 187.056 179.446 187.31C179.91 187.559 180.274 187.9 180.538 188.335C180.806 188.765 180.953 189.253 180.977 189.8H179.688C179.664 189.473 179.571 189.177 179.41 188.914C179.253 188.65 179.039 188.44 178.765 188.284C178.497 188.123 178.182 188.042 177.82 188.042C177.405 188.042 177.056 188.125 176.773 188.291C176.495 188.452 176.272 188.672 176.106 188.95C175.945 189.224 175.828 189.529 175.755 189.866C175.687 190.198 175.652 190.537 175.652 190.884V191.191C175.652 191.538 175.687 191.88 175.755 192.217C175.823 192.554 175.938 192.859 176.099 193.132C176.265 193.406 176.487 193.625 176.766 193.792C177.049 193.953 177.4 194.033 177.82 194.033ZM185.789 195.146C185.237 195.146 184.737 195.054 184.288 194.868C183.843 194.678 183.46 194.412 183.138 194.07C182.82 193.728 182.576 193.323 182.405 192.854C182.234 192.385 182.149 191.873 182.149 191.316V191.008C182.149 190.364 182.244 189.79 182.435 189.287C182.625 188.779 182.884 188.35 183.211 187.998C183.538 187.646 183.909 187.38 184.324 187.2C184.739 187.019 185.169 186.929 185.613 186.929C186.18 186.929 186.668 187.026 187.078 187.222C187.493 187.417 187.833 187.69 188.096 188.042C188.36 188.389 188.555 188.799 188.682 189.272C188.809 189.741 188.873 190.254 188.873 190.811V191.418H182.955V190.312H187.518V190.21C187.498 189.858 187.425 189.517 187.298 189.185C187.176 188.853 186.98 188.579 186.712 188.364C186.443 188.149 186.077 188.042 185.613 188.042C185.306 188.042 185.022 188.108 184.764 188.24C184.505 188.367 184.283 188.557 184.097 188.811C183.912 189.065 183.768 189.375 183.665 189.741C183.562 190.107 183.511 190.53 183.511 191.008V191.316C183.511 191.692 183.562 192.046 183.665 192.378C183.772 192.705 183.926 192.993 184.126 193.242C184.332 193.491 184.578 193.687 184.866 193.828C185.159 193.97 185.491 194.041 185.862 194.041C186.341 194.041 186.746 193.943 187.078 193.748C187.41 193.552 187.701 193.291 187.95 192.964L188.77 193.616C188.599 193.875 188.382 194.121 188.118 194.355C187.854 194.59 187.53 194.78 187.144 194.927C186.763 195.073 186.312 195.146 185.789 195.146ZM195.127 193.645V189.565C195.127 189.253 195.064 188.982 194.937 188.752C194.815 188.518 194.629 188.337 194.38 188.21C194.131 188.083 193.824 188.02 193.458 188.02C193.116 188.02 192.815 188.079 192.557 188.196C192.303 188.313 192.103 188.467 191.956 188.657C191.814 188.848 191.744 189.053 191.744 189.272H190.389C190.389 188.989 190.462 188.708 190.608 188.43C190.755 188.152 190.965 187.9 191.238 187.676C191.517 187.446 191.849 187.266 192.234 187.134C192.625 186.997 193.06 186.929 193.538 186.929C194.114 186.929 194.622 187.026 195.062 187.222C195.506 187.417 195.853 187.712 196.102 188.108C196.355 188.499 196.482 188.989 196.482 189.58V193.271C196.482 193.535 196.504 193.816 196.548 194.114C196.597 194.412 196.668 194.668 196.761 194.883V195H195.347C195.279 194.844 195.225 194.636 195.186 194.377C195.147 194.114 195.127 193.87 195.127 193.645ZM195.362 190.195L195.376 191.147H194.007C193.621 191.147 193.277 191.179 192.974 191.243C192.671 191.301 192.417 191.392 192.212 191.514C192.007 191.636 191.851 191.79 191.744 191.975C191.636 192.156 191.583 192.368 191.583 192.612C191.583 192.861 191.639 193.088 191.751 193.293C191.863 193.499 192.032 193.662 192.256 193.784C192.486 193.901 192.767 193.96 193.099 193.96C193.514 193.96 193.88 193.872 194.197 193.696C194.515 193.521 194.766 193.306 194.952 193.052C195.142 192.798 195.245 192.551 195.259 192.312L195.838 192.964C195.804 193.169 195.711 193.396 195.56 193.645C195.408 193.894 195.206 194.133 194.952 194.363C194.703 194.587 194.405 194.775 194.058 194.927C193.716 195.073 193.331 195.146 192.901 195.146C192.364 195.146 191.893 195.042 191.487 194.832C191.087 194.622 190.774 194.341 190.55 193.989C190.33 193.633 190.22 193.235 190.22 192.795C190.22 192.371 190.303 191.997 190.469 191.675C190.635 191.348 190.875 191.077 191.187 190.862C191.5 190.642 191.875 190.476 192.315 190.364C192.754 190.251 193.245 190.195 193.787 190.195H195.362ZM203.99 190.51V191.609H199.8V190.51H203.99ZM200.086 187.075V195H198.731V187.075H200.086ZM205.088 187.075V195H203.726V187.075H205.088ZM210.442 194.033C210.765 194.033 211.062 193.967 211.336 193.835C211.609 193.704 211.834 193.523 212.01 193.293C212.186 193.059 212.286 192.793 212.31 192.495H213.599C213.575 192.964 213.416 193.401 213.123 193.806C212.835 194.207 212.457 194.531 211.988 194.78C211.519 195.024 211.004 195.146 210.442 195.146C209.847 195.146 209.327 195.042 208.882 194.832C208.443 194.622 208.077 194.333 207.784 193.967C207.496 193.601 207.278 193.181 207.132 192.708C206.99 192.229 206.919 191.724 206.919 191.191V190.884C206.919 190.352 206.99 189.849 207.132 189.375C207.278 188.896 207.496 188.474 207.784 188.108C208.077 187.742 208.443 187.454 208.882 187.244C209.327 187.034 209.847 186.929 210.442 186.929C211.062 186.929 211.604 187.056 212.068 187.31C212.532 187.559 212.896 187.9 213.16 188.335C213.428 188.765 213.575 189.253 213.599 189.8H212.31C212.286 189.473 212.193 189.177 212.032 188.914C211.875 188.65 211.661 188.44 211.387 188.284C211.119 188.123 210.804 188.042 210.442 188.042C210.027 188.042 209.678 188.125 209.395 188.291C209.117 188.452 208.895 188.672 208.729 188.95C208.567 189.224 208.45 189.529 208.377 189.866C208.309 190.198 208.274 190.537 208.274 190.884V191.191C208.274 191.538 208.309 191.88 208.377 192.217C208.445 192.554 208.56 192.859 208.721 193.132C208.887 193.406 209.109 193.625 209.388 193.792C209.671 193.953 210.022 194.033 210.442 194.033ZM214.764 191.125V190.957C214.764 190.386 214.847 189.856 215.013 189.368C215.179 188.875 215.418 188.447 215.73 188.086C216.043 187.72 216.421 187.437 216.866 187.236C217.31 187.031 217.808 186.929 218.36 186.929C218.917 186.929 219.417 187.031 219.861 187.236C220.311 187.437 220.691 187.72 221.004 188.086C221.321 188.447 221.563 188.875 221.729 189.368C221.895 189.856 221.978 190.386 221.978 190.957V191.125C221.978 191.697 221.895 192.227 221.729 192.715C221.563 193.203 221.321 193.63 221.004 193.997C220.691 194.358 220.313 194.641 219.869 194.846C219.429 195.046 218.931 195.146 218.375 195.146C217.818 195.146 217.317 195.046 216.873 194.846C216.429 194.641 216.048 194.358 215.73 193.997C215.418 193.63 215.179 193.203 215.013 192.715C214.847 192.227 214.764 191.697 214.764 191.125ZM216.119 190.957V191.125C216.119 191.521 216.165 191.895 216.258 192.246C216.351 192.593 216.49 192.9 216.675 193.169C216.866 193.438 217.103 193.65 217.386 193.806C217.669 193.958 217.999 194.033 218.375 194.033C218.746 194.033 219.07 193.958 219.349 193.806C219.632 193.65 219.866 193.438 220.052 193.169C220.237 192.9 220.376 192.593 220.469 192.246C220.567 191.895 220.616 191.521 220.616 191.125V190.957C220.616 190.566 220.567 190.198 220.469 189.851C220.376 189.5 220.235 189.189 220.044 188.921C219.859 188.647 219.625 188.433 219.341 188.276C219.063 188.12 218.736 188.042 218.36 188.042C217.989 188.042 217.662 188.12 217.378 188.276C217.1 188.433 216.866 188.647 216.675 188.921C216.49 189.189 216.351 189.5 216.258 189.851C216.165 190.198 216.119 190.566 216.119 190.957ZM227.398 191.514H224.798L224.783 190.43H226.907C227.327 190.43 227.676 190.388 227.955 190.305C228.238 190.222 228.45 190.098 228.592 189.932C228.733 189.766 228.804 189.561 228.804 189.316C228.804 189.126 228.763 188.96 228.68 188.818C228.602 188.672 228.482 188.552 228.321 188.459C228.16 188.362 227.959 188.291 227.72 188.247C227.486 188.198 227.21 188.174 226.893 188.174H225.157V195H223.802V187.075H226.893C227.396 187.075 227.847 187.119 228.248 187.207C228.653 187.295 228.997 187.429 229.28 187.61C229.568 187.786 229.788 188.01 229.939 188.284C230.091 188.557 230.167 188.879 230.167 189.25C230.167 189.49 230.118 189.717 230.02 189.932C229.922 190.146 229.778 190.337 229.588 190.503C229.397 190.669 229.163 190.806 228.885 190.913C228.606 191.016 228.287 191.082 227.925 191.111L227.398 191.514ZM227.398 195H224.307L224.981 193.901H227.398C227.774 193.901 228.086 193.855 228.335 193.762C228.584 193.665 228.77 193.528 228.892 193.352C229.019 193.171 229.083 192.957 229.083 192.708C229.083 192.458 229.019 192.246 228.892 192.07C228.77 191.89 228.584 191.753 228.335 191.66C228.086 191.562 227.774 191.514 227.398 191.514H225.34L225.354 190.43H227.925L228.416 190.84C228.851 190.874 229.219 190.981 229.522 191.162C229.825 191.343 230.054 191.572 230.21 191.851C230.367 192.124 230.445 192.422 230.445 192.744C230.445 193.115 230.374 193.442 230.232 193.726C230.096 194.009 229.896 194.246 229.632 194.436C229.368 194.622 229.048 194.763 228.672 194.861C228.296 194.954 227.872 195 227.398 195Z" fill="#3D0751"/>
<path d="M142.791 92.9141V105H140.716V94.5742H135.345V105H133.27V92.9141H142.791ZM147.107 97.7451V108.453H145.107V96.0186H146.95L147.107 97.7451ZM152.959 100.426V100.601C152.959 101.254 152.882 101.86 152.727 102.418C152.578 102.972 152.354 103.456 152.055 103.871C151.761 104.281 151.399 104.599 150.967 104.826C150.536 105.053 150.038 105.166 149.473 105.166C148.914 105.166 148.424 105.064 148.004 104.859C147.589 104.649 147.237 104.353 146.95 103.971C146.662 103.589 146.43 103.141 146.252 102.626C146.081 102.106 145.959 101.536 145.887 100.916V100.244C145.959 99.5851 146.081 98.9875 146.252 98.4507C146.43 97.9139 146.662 97.4518 146.95 97.0645C147.237 96.6771 147.589 96.3783 148.004 96.168C148.419 95.9577 148.903 95.8525 149.457 95.8525C150.021 95.8525 150.522 95.9632 150.959 96.1846C151.396 96.4004 151.764 96.7103 152.063 97.1143C152.362 97.5127 152.586 97.9941 152.735 98.5586C152.885 99.1175 152.959 99.7401 152.959 100.426ZM150.959 100.601V100.426C150.959 100.011 150.92 99.6266 150.843 99.2725C150.765 98.9128 150.644 98.5973 150.478 98.3262C150.312 98.055 150.098 97.8447 149.838 97.6953C149.584 97.5404 149.277 97.4629 148.917 97.4629C148.563 97.4629 148.258 97.5238 148.004 97.6455C147.749 97.7617 147.536 97.925 147.365 98.1353C147.193 98.3455 147.06 98.5918 146.966 98.874C146.872 99.1507 146.806 99.4523 146.767 99.7788V101.389C146.833 101.788 146.947 102.153 147.107 102.485C147.268 102.817 147.495 103.083 147.788 103.282C148.087 103.475 148.469 103.572 148.934 103.572C149.293 103.572 149.6 103.495 149.855 103.34C150.11 103.185 150.317 102.972 150.478 102.701C150.644 102.424 150.765 102.106 150.843 101.746C150.92 101.386 150.959 101.005 150.959 100.601ZM154.279 100.609V100.418C154.279 99.7705 154.373 99.1701 154.562 98.6167C154.75 98.0578 155.021 97.5736 155.375 97.1641C155.735 96.749 156.172 96.4281 156.687 96.2012C157.207 95.9688 157.793 95.8525 158.446 95.8525C159.105 95.8525 159.691 95.9688 160.206 96.2012C160.726 96.4281 161.166 96.749 161.526 97.1641C161.886 97.5736 162.16 98.0578 162.348 98.6167C162.536 99.1701 162.63 99.7705 162.63 100.418V100.609C162.63 101.256 162.536 101.857 162.348 102.41C162.16 102.964 161.886 103.448 161.526 103.863C161.166 104.272 160.729 104.593 160.214 104.826C159.7 105.053 159.116 105.166 158.463 105.166C157.804 105.166 157.215 105.053 156.695 104.826C156.18 104.593 155.743 104.272 155.383 103.863C155.024 103.448 154.75 102.964 154.562 102.41C154.373 101.857 154.279 101.256 154.279 100.609ZM156.28 100.418V100.609C156.28 101.013 156.321 101.395 156.404 101.754C156.487 102.114 156.617 102.43 156.794 102.701C156.972 102.972 157.198 103.185 157.475 103.34C157.752 103.495 158.081 103.572 158.463 103.572C158.834 103.572 159.155 103.495 159.426 103.34C159.702 103.185 159.929 102.972 160.106 102.701C160.284 102.43 160.414 102.114 160.497 101.754C160.585 101.395 160.629 101.013 160.629 100.609V100.418C160.629 100.02 160.585 99.6432 160.497 99.2891C160.414 98.9294 160.281 98.6112 160.098 98.3345C159.921 98.0578 159.694 97.842 159.417 97.687C159.146 97.5265 158.823 97.4463 158.446 97.4463C158.07 97.4463 157.743 97.5265 157.467 97.687C157.196 97.842 156.972 98.0578 156.794 98.3345C156.617 98.6112 156.487 98.9294 156.404 99.2891C156.321 99.6432 156.28 100.02 156.28 100.418ZM165.336 96.0186H167.336L167.237 99.1812C167.209 100.1 167.104 100.888 166.921 101.547C166.739 102.205 166.501 102.762 166.208 103.215C165.914 103.664 165.582 104.032 165.211 104.319C164.846 104.607 164.462 104.834 164.058 105H163.468V103.423L163.75 103.406C163.988 103.152 164.193 102.897 164.365 102.643C164.542 102.382 164.691 102.097 164.813 101.788C164.935 101.472 165.029 101.104 165.095 100.684C165.167 100.263 165.214 99.7622 165.236 99.1812L165.336 96.0186ZM165.867 96.0186H171.562V105H169.569V97.7119H165.867V96.0186ZM163.012 103.406H172.79V107.673H170.79V105H165.037V107.673H163.003L163.012 103.406ZM173.836 100.609V100.418C173.836 99.7705 173.93 99.1701 174.118 98.6167C174.306 98.0578 174.577 97.5736 174.932 97.1641C175.291 96.749 175.729 96.4281 176.243 96.2012C176.763 95.9688 177.35 95.8525 178.003 95.8525C178.661 95.8525 179.248 95.9688 179.763 96.2012C180.283 96.4281 180.723 96.749 181.083 97.1641C181.442 97.5736 181.716 98.0578 181.904 98.6167C182.092 99.1701 182.187 99.7705 182.187 100.418V100.609C182.187 101.256 182.092 101.857 181.904 102.41C181.716 102.964 181.442 103.448 181.083 103.863C180.723 104.272 180.286 104.593 179.771 104.826C179.256 105.053 178.673 105.166 178.02 105.166C177.361 105.166 176.772 105.053 176.251 104.826C175.737 104.593 175.3 104.272 174.94 103.863C174.58 103.448 174.306 102.964 174.118 102.41C173.93 101.857 173.836 101.256 173.836 100.609ZM175.836 100.418V100.609C175.836 101.013 175.878 101.395 175.961 101.754C176.044 102.114 176.174 102.43 176.351 102.701C176.528 102.972 176.755 103.185 177.032 103.34C177.308 103.495 177.638 103.572 178.02 103.572C178.39 103.572 178.711 103.495 178.982 103.34C179.259 103.185 179.486 102.972 179.663 102.701C179.84 102.43 179.97 102.114 180.053 101.754C180.142 101.395 180.186 101.013 180.186 100.609V100.418C180.186 100.02 180.142 99.6432 180.053 99.2891C179.97 98.9294 179.837 98.6112 179.655 98.3345C179.478 98.0578 179.251 97.842 178.974 97.687C178.703 97.5265 178.379 97.4463 178.003 97.4463C177.627 97.4463 177.3 97.5265 177.023 97.687C176.752 97.842 176.528 98.0578 176.351 98.3345C176.174 98.6112 176.044 98.9294 175.961 99.2891C175.878 99.6432 175.836 100.02 175.836 100.418ZM189.765 96.0186V97.6123H185.382V96.0186H189.765ZM191.334 96.0186V105H189.333V96.0186H191.334ZM184.893 96.0186H186.868L186.627 100.459C186.594 101.118 186.528 101.699 186.428 102.203C186.334 102.701 186.207 103.13 186.046 103.489C185.886 103.843 185.689 104.131 185.457 104.353C185.225 104.574 184.953 104.737 184.644 104.842C184.334 104.947 183.985 105 183.598 105H182.975L182.967 103.356L183.282 103.332C183.487 103.315 183.664 103.262 183.813 103.174C183.963 103.08 184.09 102.947 184.195 102.775C184.306 102.604 184.395 102.382 184.461 102.111C184.533 101.84 184.588 101.519 184.627 101.148C184.671 100.778 184.704 100.346 184.727 99.8535L184.893 96.0186ZM196.439 101.373L192.853 96.0186H195.31L197.402 99.5547H199.153L198.896 101.373H196.439ZM197.452 101.082L195.152 105H192.695L195.949 99.9448L197.452 101.082ZM200.357 96.0186V105H198.365V96.0186H200.357ZM205.894 96.0186L202.308 101.373H199.842L199.577 99.5547H201.336L203.428 96.0186H205.894ZM203.586 105L201.278 101.082L202.831 99.9448L206.068 105H203.586ZM209.405 102.078L212.933 96.0186H214.933V105H212.933V98.9321L209.405 105H207.404V96.0186H209.405V102.078ZM221.217 96.0186V105H219.208V96.0186H221.217ZM224.164 96.0186V97.5957H216.311V96.0186H224.164ZM228.845 105.166C228.181 105.166 227.581 105.058 227.044 104.842C226.513 104.621 226.059 104.314 225.683 103.921C225.312 103.528 225.027 103.066 224.828 102.535C224.628 102.003 224.529 101.431 224.529 100.816V100.484C224.529 99.7816 224.631 99.1452 224.836 98.5752C225.041 98.0052 225.326 97.5182 225.691 97.1143C226.056 96.7048 226.488 96.3921 226.986 96.1763C227.484 95.9604 228.023 95.8525 228.604 95.8525C229.246 95.8525 229.808 95.9604 230.29 96.1763C230.771 96.3921 231.169 96.6965 231.485 97.0894C231.806 97.4767 232.044 97.9388 232.199 98.4756C232.359 99.0124 232.439 99.6045 232.439 100.252V101.107H225.5V99.6709H230.464V99.5132C230.453 99.1535 230.381 98.8159 230.248 98.5005C230.121 98.1851 229.924 97.9305 229.659 97.7368C229.393 97.5431 229.039 97.4463 228.596 97.4463C228.264 97.4463 227.968 97.5182 227.708 97.6621C227.453 97.8005 227.24 98.0024 227.069 98.2681C226.897 98.5337 226.764 98.8547 226.67 99.231C226.582 99.6017 226.538 100.02 226.538 100.484V100.816C226.538 101.209 226.59 101.575 226.695 101.912C226.806 102.244 226.966 102.535 227.177 102.784C227.387 103.033 227.642 103.229 227.94 103.373C228.239 103.511 228.58 103.581 228.961 103.581C229.443 103.581 229.872 103.484 230.248 103.29C230.624 103.096 230.951 102.822 231.228 102.468L232.282 103.489C232.088 103.771 231.836 104.043 231.526 104.303C231.216 104.557 230.837 104.765 230.389 104.925C229.946 105.086 229.432 105.166 228.845 105.166ZM240.035 96.0186V97.6123H235.652V96.0186H240.035ZM241.604 96.0186V105H239.603V96.0186H241.604ZM235.162 96.0186H237.138L236.897 100.459C236.864 101.118 236.797 101.699 236.698 102.203C236.604 102.701 236.476 103.13 236.316 103.489C236.155 103.843 235.959 104.131 235.727 104.353C235.494 104.574 235.223 104.737 234.913 104.842C234.603 104.947 234.255 105 233.867 105H233.245L233.236 103.356L233.552 103.332C233.757 103.315 233.934 103.262 234.083 103.174C234.232 103.08 234.36 102.947 234.465 102.775C234.576 102.604 234.664 102.382 234.73 102.111C234.802 101.84 234.858 101.519 234.896 101.148C234.941 100.778 234.974 100.346 234.996 99.8535L235.162 96.0186ZM245.214 98.874H247.862C248.637 98.874 249.296 99.0041 249.838 99.2642C250.38 99.5243 250.792 99.8867 251.075 100.352C251.362 100.811 251.506 101.337 251.506 101.929C251.506 102.366 251.426 102.773 251.266 103.149C251.105 103.52 250.867 103.843 250.552 104.12C250.242 104.397 249.86 104.613 249.406 104.768C248.958 104.923 248.443 105 247.862 105H243.886V96.0186H245.895V103.415H247.862C248.261 103.415 248.579 103.345 248.817 103.207C249.055 103.069 249.226 102.889 249.332 102.667C249.442 102.446 249.498 102.211 249.498 101.962C249.498 101.707 249.442 101.467 249.332 101.24C249.226 101.013 249.055 100.827 248.817 100.684C248.579 100.54 248.261 100.468 247.862 100.468H245.214V98.874ZM259.243 99.7705V101.348H254.594V99.7705H259.243ZM255.175 96.0186V105H253.175V96.0186H255.175ZM260.687 96.0186V105H258.687V96.0186H260.687ZM262.438 100.609V100.418C262.438 99.7705 262.533 99.1701 262.721 98.6167C262.909 98.0578 263.18 97.5736 263.534 97.1641C263.894 96.749 264.331 96.4281 264.846 96.2012C265.366 95.9688 265.952 95.8525 266.605 95.8525C267.264 95.8525 267.851 95.9688 268.365 96.2012C268.885 96.4281 269.325 96.749 269.685 97.1641C270.045 97.5736 270.319 98.0578 270.507 98.6167C270.695 99.1701 270.789 99.7705 270.789 100.418V100.609C270.789 101.256 270.695 101.857 270.507 102.41C270.319 102.964 270.045 103.448 269.685 103.863C269.325 104.272 268.888 104.593 268.374 104.826C267.859 105.053 267.275 105.166 266.622 105.166C265.964 105.166 265.374 105.053 264.854 104.826C264.339 104.593 263.902 104.272 263.542 103.863C263.183 103.448 262.909 102.964 262.721 102.41C262.533 101.857 262.438 101.256 262.438 100.609ZM264.439 100.418V100.609C264.439 101.013 264.48 101.395 264.563 101.754C264.646 102.114 264.777 102.43 264.954 102.701C265.131 102.972 265.358 103.185 265.634 103.34C265.911 103.495 266.24 103.572 266.622 103.572C266.993 103.572 267.314 103.495 267.585 103.34C267.862 103.185 268.089 102.972 268.266 102.701C268.443 102.43 268.573 102.114 268.656 101.754C268.744 101.395 268.789 101.013 268.789 100.609V100.418C268.789 100.02 268.744 99.6432 268.656 99.2891C268.573 98.9294 268.44 98.6112 268.257 98.3345C268.08 98.0578 267.853 97.842 267.577 97.687C267.306 97.5265 266.982 97.4463 266.605 97.4463C266.229 97.4463 265.903 97.5265 265.626 97.687C265.355 97.842 265.131 98.0578 264.954 98.3345C264.777 98.6112 264.646 98.9294 264.563 99.2891C264.48 99.6432 264.439 100.02 264.439 100.418ZM276.135 103.572C276.461 103.572 276.755 103.509 277.015 103.381C277.28 103.249 277.493 103.066 277.654 102.833C277.82 102.601 277.911 102.333 277.928 102.028H279.812C279.801 102.609 279.629 103.138 279.297 103.614C278.965 104.09 278.525 104.469 277.978 104.751C277.43 105.028 276.824 105.166 276.16 105.166C275.473 105.166 274.876 105.05 274.367 104.817C273.858 104.579 273.434 104.253 273.097 103.838C272.759 103.423 272.505 102.944 272.333 102.402C272.167 101.86 272.084 101.278 272.084 100.659V100.368C272.084 99.7484 272.167 99.1673 272.333 98.625C272.505 98.0771 272.759 97.5957 273.097 97.1807C273.434 96.7656 273.858 96.4419 274.367 96.2095C274.876 95.9715 275.471 95.8525 276.151 95.8525C276.871 95.8525 277.502 95.9964 278.044 96.2842C278.586 96.5664 279.012 96.9621 279.322 97.4712C279.638 97.9748 279.801 98.5614 279.812 99.231H277.928C277.911 98.8989 277.828 98.6001 277.679 98.3345C277.535 98.0633 277.33 97.8475 277.064 97.687C276.804 97.5265 276.492 97.4463 276.126 97.4463C275.722 97.4463 275.388 97.5293 275.122 97.6953C274.856 97.8558 274.649 98.0771 274.5 98.3594C274.35 98.6361 274.242 98.9487 274.176 99.2974C274.115 99.6405 274.084 99.9974 274.084 100.368V100.659C274.084 101.029 274.115 101.389 274.176 101.738C274.237 102.086 274.342 102.399 274.491 102.676C274.646 102.947 274.856 103.166 275.122 103.332C275.388 103.492 275.725 103.572 276.135 103.572ZM285.515 96.0186V105H283.506V96.0186H285.515ZM288.461 96.0186V97.5957H280.609V96.0186H288.461ZM291.284 98.874H293.932C294.706 98.874 295.365 99.0041 295.907 99.2642C296.45 99.5243 296.862 99.8867 297.144 100.352C297.432 100.811 297.576 101.337 297.576 101.929C297.576 102.366 297.495 102.773 297.335 103.149C297.174 103.52 296.937 103.843 296.621 104.12C296.311 104.397 295.929 104.613 295.476 104.768C295.027 104.923 294.513 105 293.932 105H289.956V96.0186H291.964V103.415H293.932C294.33 103.415 294.648 103.345 294.886 103.207C295.124 103.069 295.296 102.889 295.401 102.667C295.512 102.446 295.567 102.211 295.567 101.962C295.567 101.707 295.512 101.467 295.401 101.24C295.296 101.013 295.124 100.827 294.886 100.684C294.648 100.54 294.33 100.468 293.932 100.468H291.284V98.874ZM132.674 124.125V123.957C132.674 123.386 132.757 122.856 132.923 122.368C133.089 121.875 133.328 121.447 133.641 121.086C133.953 120.72 134.332 120.437 134.776 120.236C135.22 120.031 135.718 119.929 136.27 119.929C136.827 119.929 137.327 120.031 137.771 120.236C138.221 120.437 138.602 120.72 138.914 121.086C139.231 121.447 139.473 121.875 139.639 122.368C139.805 122.856 139.888 123.386 139.888 123.957V124.125C139.888 124.697 139.805 125.227 139.639 125.715C139.473 126.203 139.231 126.63 138.914 126.997C138.602 127.358 138.223 127.641 137.779 127.846C137.339 128.046 136.841 128.146 136.285 128.146C135.728 128.146 135.228 128.046 134.783 127.846C134.339 127.641 133.958 127.358 133.641 126.997C133.328 126.63 133.089 126.203 132.923 125.715C132.757 125.227 132.674 124.697 132.674 124.125ZM134.029 123.957V124.125C134.029 124.521 134.075 124.895 134.168 125.246C134.261 125.593 134.4 125.9 134.585 126.169C134.776 126.438 135.013 126.65 135.296 126.806C135.579 126.958 135.909 127.033 136.285 127.033C136.656 127.033 136.98 126.958 137.259 126.806C137.542 126.65 137.776 126.438 137.962 126.169C138.147 125.9 138.287 125.593 138.379 125.246C138.477 124.895 138.526 124.521 138.526 124.125V123.957C138.526 123.566 138.477 123.198 138.379 122.851C138.287 122.5 138.145 122.189 137.955 121.921C137.769 121.647 137.535 121.433 137.251 121.276C136.973 121.12 136.646 121.042 136.27 121.042C135.899 121.042 135.572 121.12 135.289 121.276C135.01 121.433 134.776 121.647 134.585 121.921C134.4 122.189 134.261 122.5 134.168 122.851C134.075 123.198 134.029 123.566 134.029 123.957ZM144.656 120.075V128H143.294V120.075H144.656ZM147.315 120.075V121.174H140.687V120.075H147.315ZM159.209 126.887V128H152.229V127.026L155.723 123.137C156.153 122.658 156.485 122.253 156.719 121.921C156.958 121.584 157.125 121.284 157.217 121.02C157.315 120.751 157.364 120.478 157.364 120.2C157.364 119.848 157.291 119.531 157.144 119.248C157.002 118.959 156.792 118.73 156.514 118.559C156.236 118.388 155.899 118.303 155.503 118.303C155.03 118.303 154.634 118.396 154.317 118.581C154.004 118.762 153.77 119.016 153.614 119.343C153.458 119.67 153.379 120.046 153.379 120.471H152.024C152.024 119.87 152.156 119.321 152.42 118.823C152.684 118.325 153.074 117.929 153.592 117.636C154.109 117.338 154.747 117.189 155.503 117.189C156.177 117.189 156.753 117.309 157.232 117.548C157.71 117.783 158.077 118.115 158.331 118.544C158.589 118.969 158.719 119.467 158.719 120.039C158.719 120.351 158.665 120.668 158.558 120.991C158.455 121.308 158.311 121.625 158.125 121.943C157.945 122.26 157.732 122.573 157.488 122.88C157.249 123.188 156.993 123.491 156.719 123.789L153.863 126.887H159.209ZM162.374 122.924L161.29 122.646L161.824 117.336H167.295V118.588H162.974L162.652 121.489C162.847 121.376 163.094 121.271 163.392 121.174C163.694 121.076 164.041 121.027 164.432 121.027C164.925 121.027 165.367 121.113 165.757 121.284C166.148 121.45 166.48 121.689 166.753 122.001C167.032 122.314 167.244 122.69 167.391 123.129C167.537 123.569 167.61 124.06 167.61 124.602C167.61 125.114 167.54 125.585 167.398 126.015C167.261 126.445 167.054 126.821 166.775 127.143C166.497 127.46 166.146 127.707 165.721 127.883C165.301 128.059 164.805 128.146 164.234 128.146C163.804 128.146 163.396 128.088 163.011 127.971C162.63 127.849 162.288 127.666 161.985 127.421C161.688 127.172 161.443 126.865 161.253 126.499C161.067 126.127 160.95 125.693 160.901 125.195H162.19C162.249 125.595 162.366 125.932 162.542 126.206C162.718 126.479 162.947 126.687 163.23 126.828C163.519 126.965 163.853 127.033 164.234 127.033C164.556 127.033 164.842 126.977 165.091 126.865C165.34 126.752 165.55 126.591 165.721 126.381C165.892 126.171 166.021 125.917 166.109 125.62C166.202 125.322 166.248 124.987 166.248 124.616C166.248 124.279 166.202 123.967 166.109 123.679C166.016 123.391 165.877 123.139 165.691 122.924C165.511 122.709 165.289 122.543 165.025 122.426C164.761 122.304 164.458 122.243 164.117 122.243C163.663 122.243 163.318 122.304 163.084 122.426C162.854 122.548 162.618 122.714 162.374 122.924ZM174.393 120.075H175.748L175.63 123.042C175.601 123.793 175.516 124.443 175.374 124.99C175.232 125.537 175.052 126.003 174.832 126.389C174.612 126.77 174.366 127.089 174.092 127.348C173.824 127.607 173.545 127.824 173.257 128H172.583L172.62 126.894L172.898 126.887C173.06 126.696 173.216 126.501 173.367 126.301C173.519 126.096 173.658 125.854 173.785 125.576C173.912 125.292 174.017 124.948 174.1 124.543C174.188 124.133 174.244 123.632 174.268 123.042L174.393 120.075ZM174.729 120.075H179.498V128H178.143V121.328H174.729V120.075ZM172.276 126.887H180.516V130.336H179.161V128H173.631V130.336H172.269L172.276 126.887ZM181.658 124.125V123.957C181.658 123.386 181.741 122.856 181.907 122.368C182.073 121.875 182.312 121.447 182.625 121.086C182.938 120.72 183.316 120.437 183.76 120.236C184.205 120.031 184.703 119.929 185.254 119.929C185.811 119.929 186.312 120.031 186.756 120.236C187.205 120.437 187.586 120.72 187.898 121.086C188.216 121.447 188.458 121.875 188.624 122.368C188.79 122.856 188.873 123.386 188.873 123.957V124.125C188.873 124.697 188.79 125.227 188.624 125.715C188.458 126.203 188.216 126.63 187.898 126.997C187.586 127.358 187.208 127.641 186.763 127.846C186.324 128.046 185.826 128.146 185.269 128.146C184.712 128.146 184.212 128.046 183.768 127.846C183.323 127.641 182.942 127.358 182.625 126.997C182.312 126.63 182.073 126.203 181.907 125.715C181.741 125.227 181.658 124.697 181.658 124.125ZM183.013 123.957V124.125C183.013 124.521 183.06 124.895 183.152 125.246C183.245 125.593 183.384 125.9 183.57 126.169C183.76 126.438 183.997 126.65 184.28 126.806C184.563 126.958 184.893 127.033 185.269 127.033C185.64 127.033 185.965 126.958 186.243 126.806C186.526 126.65 186.761 126.438 186.946 126.169C187.132 125.9 187.271 125.593 187.364 125.246C187.461 124.895 187.51 124.521 187.51 124.125V123.957C187.51 123.566 187.461 123.198 187.364 122.851C187.271 122.5 187.129 122.189 186.939 121.921C186.753 121.647 186.519 121.433 186.236 121.276C185.958 121.12 185.63 121.042 185.254 121.042C184.883 121.042 184.556 121.12 184.273 121.276C183.995 121.433 183.76 121.647 183.57 121.921C183.384 122.189 183.245 122.5 183.152 122.851C183.06 123.198 183.013 123.566 183.013 123.957ZM199.346 117.321H199.463V118.471H199.346C198.628 118.471 198.028 118.588 197.544 118.823C197.061 119.052 196.678 119.362 196.395 119.753C196.111 120.139 195.906 120.573 195.779 121.057C195.657 121.54 195.596 122.031 195.596 122.529V124.096C195.596 124.57 195.652 124.99 195.765 125.356C195.877 125.717 196.031 126.022 196.226 126.271C196.421 126.521 196.641 126.708 196.885 126.835C197.134 126.962 197.393 127.026 197.662 127.026C197.974 127.026 198.252 126.967 198.497 126.85C198.741 126.728 198.946 126.56 199.112 126.345C199.283 126.125 199.412 125.866 199.5 125.568C199.588 125.271 199.632 124.943 199.632 124.587C199.632 124.27 199.593 123.964 199.515 123.671C199.437 123.374 199.317 123.11 199.156 122.88C198.995 122.646 198.792 122.463 198.548 122.331C198.309 122.194 198.023 122.126 197.691 122.126C197.315 122.126 196.963 122.219 196.636 122.404C196.314 122.585 196.048 122.824 195.838 123.122C195.633 123.415 195.516 123.735 195.486 124.082L194.769 124.074C194.837 123.527 194.964 123.061 195.149 122.675C195.34 122.285 195.574 121.967 195.853 121.723C196.136 121.474 196.451 121.293 196.797 121.181C197.149 121.064 197.52 121.005 197.911 121.005C198.443 121.005 198.902 121.105 199.288 121.306C199.673 121.506 199.991 121.774 200.24 122.111C200.489 122.443 200.672 122.819 200.789 123.239C200.911 123.654 200.972 124.082 200.972 124.521C200.972 125.024 200.901 125.495 200.76 125.935C200.618 126.374 200.406 126.76 200.123 127.092C199.844 127.424 199.5 127.683 199.09 127.868C198.68 128.054 198.204 128.146 197.662 128.146C197.085 128.146 196.583 128.029 196.153 127.795C195.723 127.556 195.367 127.238 195.083 126.843C194.8 126.447 194.588 126.008 194.446 125.524C194.305 125.041 194.234 124.55 194.234 124.052V123.415C194.234 122.663 194.31 121.926 194.461 121.203C194.612 120.48 194.874 119.826 195.245 119.24C195.621 118.654 196.141 118.188 196.805 117.841C197.469 117.495 198.316 117.321 199.346 117.321ZM209.278 121.818V123.444C209.278 124.318 209.2 125.056 209.043 125.656C208.887 126.257 208.663 126.74 208.37 127.106C208.077 127.473 207.723 127.739 207.308 127.905C206.897 128.066 206.434 128.146 205.916 128.146C205.506 128.146 205.127 128.095 204.781 127.993C204.434 127.89 204.122 127.727 203.843 127.502C203.57 127.272 203.335 126.975 203.14 126.608C202.945 126.242 202.796 125.798 202.693 125.275C202.591 124.753 202.54 124.143 202.54 123.444V121.818C202.54 120.944 202.618 120.212 202.774 119.621C202.935 119.03 203.162 118.557 203.455 118.2C203.748 117.839 204.1 117.58 204.51 117.424C204.925 117.268 205.389 117.189 205.901 117.189C206.316 117.189 206.697 117.241 207.044 117.343C207.396 117.441 207.708 117.6 207.981 117.819C208.255 118.034 208.487 118.322 208.677 118.684C208.873 119.04 209.021 119.477 209.124 119.995C209.227 120.512 209.278 121.12 209.278 121.818ZM207.916 123.664V121.591C207.916 121.113 207.886 120.693 207.828 120.332C207.774 119.965 207.693 119.653 207.586 119.394C207.479 119.135 207.342 118.925 207.176 118.764C207.015 118.603 206.827 118.486 206.612 118.413C206.402 118.334 206.165 118.295 205.901 118.295C205.579 118.295 205.293 118.356 205.044 118.479C204.795 118.596 204.585 118.784 204.415 119.042C204.249 119.301 204.122 119.641 204.034 120.061C203.946 120.48 203.902 120.991 203.902 121.591V123.664C203.902 124.143 203.929 124.565 203.982 124.931C204.041 125.297 204.126 125.615 204.239 125.883C204.351 126.147 204.488 126.364 204.649 126.535C204.81 126.706 204.996 126.833 205.206 126.916C205.42 126.994 205.657 127.033 205.916 127.033C206.248 127.033 206.539 126.97 206.788 126.843C207.037 126.716 207.244 126.518 207.41 126.25C207.581 125.976 207.708 125.627 207.791 125.202C207.874 124.772 207.916 124.26 207.916 123.664ZM219.444 126.198L222.139 120.075H223.443L219.913 128H218.975L215.459 120.075H216.763L219.444 126.198ZM216.368 120.075V128H215.013V120.075H216.368ZM222.476 128V120.075H223.838V128H222.476ZM227.486 125.854L231.141 120.075H232.503V128H231.141V122.221L227.486 128H226.138V120.075H227.486V125.854ZM240.054 123.51V124.609H235.865V123.51H240.054ZM236.15 120.075V128H234.795V120.075H236.15ZM241.153 120.075V128H239.791V120.075H241.153Z" fill="#3D0751"/>
<defs>
<filter id="filter0_d_167_1647" x="28" y="29" width="384" height="240" filterUnits="userSpaceOnUse" color-interpolation-filters="sRGB">
<feFlood flood-opacity="0" result="BackgroundImageFix"/>
<feColorMatrix in="SourceAlpha" type="matrix" values="0 0 0 0 0 0 0 0 0 0 0 0 0 0 0 0 0 0 127 0" result="hardAlpha"/>
<feOffset dy="4"/>
<feGaussianBlur stdDeviation="2"/>
<feComposite in2="hardAlpha" operator="out"/>
<feColorMatrix type="matrix" values="0 0 0 0 0 0 0 0 0 0 0 0 0 0 0 0 0 0 0.25 0"/>
<feBlend mode="normal" in2="BackgroundImageFix" result="effect1_dropShadow_167_1647"/>
<feBlend mode="normal" in="SourceGraphic" in2="effect1_dropShadow_167_1647" result="shape"/>
</filter>
<linearGradient id="paint0_linear_167_1647" x1="220" y1="29" x2="220" y2="261" gradientUnits="userSpaceOnUse">
<stop stop-color="#E8CCEE"/>
<stop offset="0.387873" stop-color="#F0E1F4"/>
<stop offset="0.490872" stop-color="#F2E7F6"/>
<stop offset="0.599364" stop-color="#F0E1F3"/>
<stop offset="1" stop-color="#E8CCEE"/>
</linearGradient>
<linearGradient id="paint1_linear_167_1647" x1="-376.696" y1="-228.268" x2="282.892" y2="646.91" gradientUnits="userSpaceOnUse">
<stop offset="0.461286" stop-color="#841799"/>
<stop offset="0.684967" stop-color="#831598" stop-opacity="0"/>
<stop offset="0.685008" stop-color="#831598"/>
</linearGradient>
<linearGradient id="paint2_linear_167_1647" x1="-440.696" y1="-289.951" x2="351.893" y2="705.801" gradientUnits="userSpaceOnUse">
<stop offset="0.461286" stop-color="#841799"/>
<stop offset="0.659701" stop-color="#831598" stop-opacity="0"/>
<stop offset="0.660524" stop-color="#831598"/>
</linearGradient>
<linearGradient id="paint3_linear_167_1647" x1="-458.696" y1="-304.951" x2="333.893" y2="690.801" gradientUnits="userSpaceOnUse">
<stop offset="0.461286" stop-color="#841799"/>
<stop offset="0.702083" stop-color="#831598" stop-opacity="0"/>
<stop offset="0.702183" stop-color="#831598"/>
</linearGradient>
</defs>
</svg>
