<svg width="440" height="290" viewBox="0 0 440 290" fill="none" xmlns="http://www.w3.org/2000/svg">
<g filter="url(#filter0_d_167_1647)">
<path d="M32 51C32 38.8497 41.8497 29 54 29H402C405.314 29 408 31.6863 408 35V239C408 251.15 398.15 261 386 261H38C34.6863 261 32 258.314 32 255V51Z" fill="url(#paint0_linear_167_1647)"/>
<path d="M32.5 51C32.5 39.1259 42.1259 29.5 54 29.5H402C405.038 29.5 407.5 31.9624 407.5 35V239C407.5 250.874 397.874 260.5 386 260.5H38C34.9624 260.5 32.5 258.038 32.5 255V51Z" stroke="url(#paint1_linear_167_1647)"/>
</g>
<rect x="18.75" y="15.75" width="420.5" height="273.5" rx="34.25" stroke="url(#paint2_linear_167_1647)" stroke-width="1.5"/>
<rect x="0.75" y="0.75" width="420.5" height="273.5" rx="34.25" stroke="url(#paint3_linear_167_1647)" stroke-width="1.5"/>

<defs>
<filter id="filter0_d_167_1647" x="28" y="29" width="384" height="240" filterUnits="userSpaceOnUse" color-interpolation-filters="sRGB">
<feFlood flood-opacity="0" result="BackgroundImageFix"/>
<feColorMatrix in="SourceAlpha" type="matrix" values="0 0 0 0 0 0 0 0 0 0 0 0 0 0 0 0 0 0 127 0" result="hardAlpha"/>
<feOffset dy="4"/>
<feGaussianBlur stdDeviation="2"/>
<feComposite in2="hardAlpha" operator="out"/>
<feColorMatrix type="matrix" values="0 0 0 0 0 0 0 0 0 0 0 0 0 0 0 0 0 0 0.25 0"/>
<feBlend mode="normal" in2="BackgroundImageFix" result="effect1_dropShadow_167_1647"/>
<feBlend mode="normal" in="SourceGraphic" in2="effect1_dropShadow_167_1647" result="shape"/>
</filter>
<linearGradient id="paint0_linear_167_1647" x1="220" y1="29" x2="220" y2="261" gradientUnits="userSpaceOnUse">
<stop stop-color="#E8CCEE"/>
<stop offset="0.387873" stop-color="#F0E1F4"/>
<stop offset="0.490872" stop-color="#F2E7F6"/>
<stop offset="0.599364" stop-color="#F0E1F3"/>
<stop offset="1" stop-color="#E8CCEE"/>
</linearGradient>
<linearGradient id="paint1_linear_167_1647" x1="-376.696" y1="-228.268" x2="282.892" y2="646.91" gradientUnits="userSpaceOnUse">
<stop offset="0.461286" stop-color="#841799"/>
<stop offset="0.684967" stop-color="#831598" stop-opacity="0"/>
<stop offset="0.685008" stop-color="#831598"/>
</linearGradient>
<linearGradient id="paint2_linear_167_1647" x1="-440.696" y1="-289.951" x2="351.893" y2="705.801" gradientUnits="userSpaceOnUse">
<stop offset="0.461286" stop-color="#841799"/>
<stop offset="0.659701" stop-color="#831598" stop-opacity="0"/>
<stop offset="0.660524" stop-color="#831598"/>
</linearGradient>
<linearGradient id="paint3_linear_167_1647" x1="-458.696" y1="-304.951" x2="333.893" y2="690.801" gradientUnits="userSpaceOnUse">
<stop offset="0.461286" stop-color="#841799"/>
<stop offset="0.702083" stop-color="#831598" stop-opacity="0"/>
<stop offset="0.702183" stop-color="#831598"/>
</linearGradient>
</defs>
</svg>
