<svg width="440" height="290" viewBox="0 0 440 290" fill="none" xmlns="http://www.w3.org/2000/svg">
<path d="M32.5 51C32.5 39.1259 42.1259 29.5 54 29.5H402C405.038 29.5 407.5 31.9624 407.5 35V239C407.5 250.874 397.874 260.5 386 260.5H38C34.9624 260.5 32.5 258.038 32.5 255V51Z" fill="url(#paint0_linear_546_3326)" stroke="url(#paint1_linear_546_3326)"/>
<rect x="18.75" y="15.75" width="420.5" height="273.5" rx="34.25" stroke="url(#paint2_linear_546_3326)" stroke-width="1.5"/>
<rect x="0.75" y="0.75" width="420.5" height="273.5" rx="34.25" stroke="url(#paint3_linear_546_3326)" stroke-width="1.5"/>
<path d="M121.664 165.135V166.795H116.609V165.135H121.664ZM113.33 168.065H115.405C115.466 168.597 115.591 169.045 115.779 169.41C115.972 169.775 116.252 170.052 116.617 170.24C116.988 170.428 117.472 170.522 118.07 170.522C118.551 170.522 118.966 170.426 119.315 170.232C119.669 170.038 119.96 169.764 120.187 169.41C120.413 169.05 120.582 168.624 120.693 168.132C120.804 167.634 120.859 167.078 120.859 166.463V165.451C120.859 164.936 120.82 164.468 120.743 164.048C120.665 163.622 120.546 163.245 120.386 162.919C120.231 162.592 120.037 162.319 119.805 162.097C119.578 161.87 119.312 161.699 119.008 161.583C118.703 161.466 118.363 161.408 117.987 161.408C117.406 161.408 116.935 161.508 116.576 161.707C116.216 161.901 115.945 162.186 115.762 162.562C115.58 162.933 115.458 163.381 115.397 163.907H113.322C113.405 163.093 113.632 162.374 114.002 161.749C114.373 161.123 114.888 160.633 115.546 160.279C116.21 159.925 117.024 159.748 117.987 159.748C118.745 159.748 119.426 159.884 120.029 160.155C120.638 160.42 121.158 160.805 121.589 161.309C122.021 161.807 122.35 162.407 122.577 163.11C122.81 163.813 122.926 164.598 122.926 165.467V166.463C122.926 167.332 122.812 168.118 122.585 168.821C122.364 169.524 122.04 170.124 121.614 170.622C121.188 171.12 120.676 171.502 120.079 171.768C119.481 172.033 118.811 172.166 118.07 172.166C117.09 172.166 116.26 171.992 115.58 171.643C114.904 171.289 114.379 170.802 114.002 170.182C113.626 169.562 113.402 168.857 113.33 168.065ZM135.418 167.617V167.792C135.418 168.428 135.347 169.014 135.203 169.551C135.064 170.083 134.857 170.545 134.58 170.938C134.303 171.33 133.96 171.635 133.551 171.851C133.147 172.066 132.676 172.174 132.14 172.174C131.669 172.174 131.26 172.094 130.911 171.934C130.562 171.773 130.269 171.549 130.031 171.261C129.793 170.968 129.602 170.625 129.458 170.232C129.315 169.833 129.209 169.396 129.143 168.92V166.322C129.209 165.813 129.312 165.348 129.45 164.928C129.594 164.502 129.785 164.134 130.023 163.824C130.266 163.514 130.56 163.276 130.903 163.11C131.246 162.938 131.653 162.853 132.123 162.853C132.555 162.853 132.945 162.93 133.293 163.085C133.642 163.234 133.949 163.45 134.215 163.732C134.48 164.009 134.702 164.344 134.879 164.737C135.056 165.124 135.189 165.561 135.277 166.048C135.371 166.535 135.418 167.058 135.418 167.617ZM133.418 167.792V167.617C133.418 167.269 133.396 166.937 133.352 166.621C133.307 166.306 133.238 166.018 133.144 165.758C133.056 165.492 132.939 165.263 132.795 165.069C132.652 164.87 132.477 164.717 132.272 164.612C132.073 164.502 131.841 164.446 131.575 164.446C131.215 164.446 130.917 164.507 130.679 164.629C130.446 164.745 130.269 164.911 130.147 165.127C130.031 165.337 129.957 165.581 129.923 165.857V169.394C129.962 169.626 130.042 169.831 130.164 170.008C130.291 170.185 130.471 170.326 130.704 170.431C130.936 170.531 131.232 170.581 131.592 170.581C131.924 170.581 132.203 170.511 132.43 170.373C132.663 170.229 132.851 170.03 132.995 169.775C133.144 169.521 133.252 169.225 133.318 168.887C133.385 168.55 133.418 168.184 133.418 167.792ZM124.412 167.792V167.617C124.412 167.058 124.456 166.535 124.544 166.048C124.633 165.561 124.766 165.124 124.943 164.737C125.125 164.344 125.35 164.009 125.615 163.732C125.881 163.45 126.188 163.234 126.537 163.085C126.885 162.93 127.275 162.853 127.707 162.853C128.172 162.853 128.573 162.938 128.911 163.11C129.248 163.276 129.533 163.514 129.766 163.824C130.004 164.134 130.192 164.502 130.33 164.928C130.474 165.348 130.579 165.813 130.646 166.322V168.821C130.585 169.308 130.482 169.756 130.338 170.166C130.194 170.575 130.006 170.929 129.774 171.228C129.542 171.527 129.254 171.759 128.911 171.925C128.568 172.091 128.161 172.174 127.69 172.174C127.159 172.174 126.689 172.066 126.279 171.851C125.87 171.635 125.527 171.33 125.25 170.938C124.973 170.545 124.763 170.083 124.619 169.551C124.481 169.014 124.412 168.428 124.412 167.792ZM126.412 167.617V167.792C126.412 168.184 126.443 168.55 126.503 168.887C126.57 169.225 126.672 169.521 126.811 169.775C126.949 170.024 127.132 170.221 127.358 170.365C127.585 170.509 127.865 170.581 128.197 170.581C128.562 170.581 128.861 170.525 129.093 170.415C129.326 170.304 129.503 170.152 129.625 169.958C129.752 169.764 129.835 169.543 129.874 169.294V165.857C129.84 165.581 129.763 165.337 129.641 165.127C129.519 164.911 129.342 164.745 129.11 164.629C128.877 164.507 128.579 164.446 128.213 164.446C127.881 164.446 127.599 164.529 127.367 164.695C127.14 164.861 126.954 165.091 126.811 165.384C126.672 165.672 126.57 166.01 126.503 166.397C126.443 166.779 126.412 167.186 126.412 167.617ZM128.869 175.453V159.25H130.878V175.453H128.869ZM147.803 167.617V167.792C147.803 168.428 147.731 169.014 147.587 169.551C147.449 170.083 147.242 170.545 146.965 170.938C146.688 171.33 146.345 171.635 145.936 171.851C145.532 172.066 145.061 172.174 144.524 172.174C144.054 172.174 143.645 172.094 143.296 171.934C142.947 171.773 142.654 171.549 142.416 171.261C142.178 170.968 141.987 170.625 141.843 170.232C141.699 169.833 141.594 169.396 141.528 168.92V166.322C141.594 165.813 141.697 165.348 141.835 164.928C141.979 164.502 142.17 164.134 142.408 163.824C142.651 163.514 142.944 163.276 143.288 163.11C143.631 162.938 144.037 162.853 144.508 162.853C144.939 162.853 145.33 162.93 145.678 163.085C146.027 163.234 146.334 163.45 146.6 163.732C146.865 164.009 147.087 164.344 147.264 164.737C147.441 165.124 147.574 165.561 147.662 166.048C147.756 166.535 147.803 167.058 147.803 167.617ZM145.803 167.792V167.617C145.803 167.269 145.781 166.937 145.736 166.621C145.692 166.306 145.623 166.018 145.529 165.758C145.44 165.492 145.324 165.263 145.18 165.069C145.036 164.87 144.862 164.717 144.657 164.612C144.458 164.502 144.226 164.446 143.96 164.446C143.6 164.446 143.301 164.507 143.063 164.629C142.831 164.745 142.654 164.911 142.532 165.127C142.416 165.337 142.341 165.581 142.308 165.857V169.394C142.347 169.626 142.427 169.831 142.549 170.008C142.676 170.185 142.856 170.326 143.088 170.431C143.321 170.531 143.617 170.581 143.977 170.581C144.309 170.581 144.588 170.511 144.815 170.373C145.047 170.229 145.236 170.03 145.379 169.775C145.529 169.521 145.637 169.225 145.703 168.887C145.77 168.55 145.803 168.184 145.803 167.792ZM136.796 167.792V167.617C136.796 167.058 136.841 166.535 136.929 166.048C137.018 165.561 137.151 165.124 137.328 164.737C137.51 164.344 137.734 164.009 138 163.732C138.266 163.45 138.573 163.234 138.921 163.085C139.27 162.93 139.66 162.853 140.092 162.853C140.557 162.853 140.958 162.938 141.295 163.11C141.633 163.276 141.918 163.514 142.15 163.824C142.388 164.134 142.576 164.502 142.715 164.928C142.859 165.348 142.964 165.813 143.03 166.322V168.821C142.969 169.308 142.867 169.756 142.723 170.166C142.579 170.575 142.391 170.929 142.159 171.228C141.926 171.527 141.639 171.759 141.295 171.925C140.952 172.091 140.546 172.174 140.075 172.174C139.544 172.174 139.074 172.066 138.664 171.851C138.255 171.635 137.911 171.33 137.635 170.938C137.358 170.545 137.148 170.083 137.004 169.551C136.866 169.014 136.796 168.428 136.796 167.792ZM138.797 167.617V167.792C138.797 168.184 138.827 168.55 138.888 168.887C138.955 169.225 139.057 169.521 139.195 169.775C139.334 170.024 139.516 170.221 139.743 170.365C139.97 170.509 140.25 170.581 140.582 170.581C140.947 170.581 141.246 170.525 141.478 170.415C141.71 170.304 141.888 170.152 142.009 169.958C142.137 169.764 142.22 169.543 142.258 169.294V165.857C142.225 165.581 142.148 165.337 142.026 165.127C141.904 164.911 141.727 164.745 141.495 164.629C141.262 164.507 140.963 164.446 140.598 164.446C140.266 164.446 139.984 164.529 139.751 164.695C139.525 164.861 139.339 165.091 139.195 165.384C139.057 165.672 138.955 166.01 138.888 166.397C138.827 166.779 138.797 167.186 138.797 167.617ZM141.254 175.453V159.25H143.263V175.453H141.254ZM153.481 172.166C152.817 172.166 152.216 172.058 151.68 171.842C151.148 171.621 150.695 171.314 150.318 170.921C149.948 170.528 149.663 170.066 149.463 169.535C149.264 169.003 149.165 168.431 149.165 167.816V167.484C149.165 166.782 149.267 166.145 149.472 165.575C149.676 165.005 149.961 164.518 150.327 164.114C150.692 163.705 151.124 163.392 151.622 163.176C152.12 162.96 152.659 162.853 153.24 162.853C153.882 162.853 154.444 162.96 154.925 163.176C155.407 163.392 155.805 163.696 156.121 164.089C156.442 164.477 156.68 164.939 156.834 165.476C156.995 166.012 157.075 166.604 157.075 167.252V168.107H150.136V166.671H155.1V166.513C155.089 166.153 155.017 165.816 154.884 165.5C154.757 165.185 154.56 164.931 154.294 164.737C154.029 164.543 153.675 164.446 153.232 164.446C152.9 164.446 152.604 164.518 152.344 164.662C152.089 164.8 151.876 165.002 151.705 165.268C151.533 165.534 151.4 165.855 151.306 166.231C151.218 166.602 151.173 167.02 151.173 167.484V167.816C151.173 168.209 151.226 168.575 151.331 168.912C151.442 169.244 151.602 169.535 151.812 169.784C152.023 170.033 152.277 170.229 152.576 170.373C152.875 170.511 153.215 170.581 153.597 170.581C154.079 170.581 154.507 170.484 154.884 170.29C155.26 170.096 155.587 169.822 155.863 169.468L156.917 170.489C156.724 170.771 156.472 171.043 156.162 171.303C155.852 171.557 155.473 171.765 155.025 171.925C154.582 172.086 154.068 172.166 153.481 172.166ZM160.794 163.019V172H158.793V163.019H160.794ZM166.654 163.019L162.612 168.422H160.329L160.063 166.613H161.732L164.156 163.019H166.654ZM164.313 172L161.607 168.082L163.185 166.945L166.945 172H164.313ZM172.199 163.019V172H170.19V163.019H172.199ZM175.146 163.019V164.596H167.293V163.019H175.146ZM186.85 166.771V168.348H182.202V166.771H186.85ZM182.783 163.019V172H180.782V163.019H182.783ZM188.294 163.019V172H186.294V163.019H188.294ZM195.491 170.199V165.916C195.491 165.595 195.433 165.318 195.317 165.085C195.201 164.853 195.024 164.673 194.786 164.546C194.553 164.419 194.26 164.355 193.906 164.355C193.579 164.355 193.297 164.41 193.059 164.521C192.821 164.632 192.636 164.781 192.503 164.969C192.37 165.157 192.304 165.37 192.304 165.608H190.312C190.312 165.254 190.397 164.911 190.569 164.579C190.74 164.247 190.989 163.951 191.316 163.691C191.642 163.431 192.033 163.226 192.486 163.077C192.94 162.927 193.449 162.853 194.014 162.853C194.689 162.853 195.286 162.966 195.807 163.193C196.332 163.42 196.745 163.763 197.043 164.222C197.348 164.676 197.5 165.246 197.5 165.932V169.925C197.5 170.334 197.528 170.702 197.583 171.029C197.644 171.35 197.73 171.629 197.84 171.867V172H195.79C195.696 171.784 195.621 171.51 195.566 171.178C195.516 170.841 195.491 170.514 195.491 170.199ZM195.782 166.538L195.798 167.775H194.362C193.992 167.775 193.665 167.811 193.383 167.883C193.101 167.949 192.865 168.049 192.677 168.182C192.489 168.314 192.348 168.475 192.254 168.663C192.16 168.851 192.113 169.064 192.113 169.302C192.113 169.54 192.168 169.759 192.279 169.958C192.389 170.152 192.55 170.304 192.76 170.415C192.976 170.525 193.236 170.581 193.541 170.581C193.95 170.581 194.307 170.498 194.611 170.332C194.921 170.16 195.165 169.952 195.342 169.709C195.519 169.46 195.613 169.225 195.624 169.003L196.271 169.892C196.205 170.118 196.092 170.362 195.931 170.622C195.771 170.882 195.56 171.131 195.3 171.369C195.046 171.602 194.739 171.792 194.379 171.942C194.025 172.091 193.615 172.166 193.15 172.166C192.564 172.166 192.041 172.05 191.582 171.817C191.122 171.579 190.763 171.261 190.502 170.863C190.242 170.459 190.112 170.002 190.112 169.493C190.112 169.017 190.201 168.597 190.378 168.231C190.561 167.861 190.826 167.551 191.175 167.302C191.529 167.053 191.961 166.865 192.47 166.737C192.979 166.604 193.56 166.538 194.213 166.538H195.782ZM203.261 170.572C203.587 170.572 203.881 170.509 204.141 170.381C204.406 170.249 204.619 170.066 204.78 169.833C204.946 169.601 205.037 169.333 205.054 169.028H206.938C206.927 169.609 206.755 170.138 206.423 170.614C206.091 171.09 205.651 171.469 205.104 171.751C204.556 172.028 203.95 172.166 203.286 172.166C202.599 172.166 202.002 172.05 201.493 171.817C200.984 171.579 200.56 171.253 200.223 170.838C199.885 170.423 199.631 169.944 199.459 169.402C199.293 168.86 199.21 168.278 199.21 167.659V167.368C199.21 166.748 199.293 166.167 199.459 165.625C199.631 165.077 199.885 164.596 200.223 164.181C200.56 163.766 200.984 163.442 201.493 163.209C202.002 162.972 202.597 162.853 203.277 162.853C203.997 162.853 204.628 162.996 205.17 163.284C205.712 163.566 206.138 163.962 206.448 164.471C206.764 164.975 206.927 165.561 206.938 166.231H205.054C205.037 165.899 204.954 165.6 204.805 165.334C204.661 165.063 204.456 164.847 204.19 164.687C203.93 164.527 203.618 164.446 203.252 164.446C202.848 164.446 202.514 164.529 202.248 164.695C201.982 164.856 201.775 165.077 201.625 165.359C201.476 165.636 201.368 165.949 201.302 166.297C201.241 166.64 201.21 166.997 201.21 167.368V167.659C201.21 168.029 201.241 168.389 201.302 168.738C201.363 169.086 201.468 169.399 201.617 169.676C201.772 169.947 201.982 170.166 202.248 170.332C202.514 170.492 202.851 170.572 203.261 170.572ZM212.641 163.019V172H210.632V163.019H212.641ZM215.587 163.019V164.596H207.735V163.019H215.587ZM219.63 171.021L222.07 163.019H224.212L220.609 173.37C220.526 173.591 220.418 173.832 220.286 174.092C220.153 174.352 219.979 174.598 219.763 174.831C219.552 175.069 219.29 175.259 218.974 175.403C218.659 175.553 218.277 175.627 217.829 175.627C217.652 175.627 217.48 175.611 217.314 175.578C217.153 175.55 217.001 175.52 216.857 175.486L216.849 173.959C216.904 173.965 216.971 173.97 217.048 173.976C217.131 173.981 217.198 173.984 217.248 173.984C217.58 173.984 217.856 173.942 218.078 173.859C218.299 173.782 218.479 173.655 218.617 173.478C218.761 173.3 218.883 173.062 218.982 172.764L219.63 171.021ZM218.252 163.019L220.385 169.742L220.742 171.851L219.356 172.208L216.094 163.019H218.252ZM231.384 163.019V164.612H226.951V163.019H231.384ZM227.424 163.019V172H225.424V163.019H227.424ZM232.953 163.019V172H230.944V163.019H232.953ZM240.133 170.199V165.916C240.133 165.595 240.075 165.318 239.958 165.085C239.842 164.853 239.665 164.673 239.427 164.546C239.195 164.419 238.902 164.355 238.547 164.355C238.221 164.355 237.939 164.41 237.701 164.521C237.463 164.632 237.277 164.781 237.145 164.969C237.012 165.157 236.945 165.37 236.945 165.608H234.953C234.953 165.254 235.039 164.911 235.21 164.579C235.382 164.247 235.631 163.951 235.958 163.691C236.284 163.431 236.674 163.226 237.128 163.077C237.582 162.927 238.091 162.853 238.655 162.853C239.33 162.853 239.928 162.966 240.448 163.193C240.974 163.42 241.386 163.763 241.685 164.222C241.989 164.676 242.142 165.246 242.142 165.932V169.925C242.142 170.334 242.169 170.702 242.225 171.029C242.285 171.35 242.371 171.629 242.482 171.867V172H240.432C240.338 171.784 240.263 171.51 240.208 171.178C240.158 170.841 240.133 170.514 240.133 170.199ZM240.423 166.538L240.44 167.775H239.004C238.633 167.775 238.307 167.811 238.024 167.883C237.742 167.949 237.507 168.049 237.319 168.182C237.131 168.314 236.99 168.475 236.896 168.663C236.801 168.851 236.754 169.064 236.754 169.302C236.754 169.54 236.81 169.759 236.92 169.958C237.031 170.152 237.192 170.304 237.402 170.415C237.618 170.525 237.878 170.581 238.182 170.581C238.592 170.581 238.949 170.498 239.253 170.332C239.563 170.16 239.806 169.952 239.983 169.709C240.16 169.46 240.255 169.225 240.266 169.003L240.913 169.892C240.847 170.118 240.733 170.362 240.573 170.622C240.412 170.882 240.202 171.131 239.942 171.369C239.687 171.602 239.38 171.792 239.021 171.942C238.666 172.091 238.257 172.166 237.792 172.166C237.205 172.166 236.682 172.05 236.223 171.817C235.764 171.579 235.404 171.261 235.144 170.863C234.884 170.459 234.754 170.002 234.754 169.493C234.754 169.017 234.842 168.597 235.02 168.231C235.202 167.861 235.468 167.551 235.816 167.302C236.171 167.053 236.602 166.865 237.111 166.737C237.62 166.604 238.201 166.538 238.854 166.538H240.423ZM248.193 172.166C247.529 172.166 246.928 172.058 246.392 171.842C245.86 171.621 245.407 171.314 245.03 170.921C244.66 170.528 244.375 170.066 244.175 169.535C243.976 169.003 243.876 168.431 243.876 167.816V167.484C243.876 166.782 243.979 166.145 244.184 165.575C244.388 165.005 244.673 164.518 245.039 164.114C245.404 163.705 245.835 163.392 246.333 163.176C246.832 162.96 247.371 162.853 247.952 162.853C248.594 162.853 249.156 162.96 249.637 163.176C250.119 163.392 250.517 163.696 250.833 164.089C251.153 164.477 251.391 164.939 251.546 165.476C251.707 166.012 251.787 166.604 251.787 167.252V168.107H244.848V166.671H249.812V166.513C249.8 166.153 249.729 165.816 249.596 165.5C249.468 165.185 249.272 164.931 249.006 164.737C248.741 164.543 248.387 164.446 247.944 164.446C247.612 164.446 247.316 164.518 247.056 164.662C246.801 164.8 246.588 165.002 246.417 165.268C246.245 165.534 246.112 165.855 246.018 166.231C245.93 166.602 245.885 167.02 245.885 167.484V167.816C245.885 168.209 245.938 168.575 246.043 168.912C246.154 169.244 246.314 169.535 246.524 169.784C246.735 170.033 246.989 170.229 247.288 170.373C247.587 170.511 247.927 170.581 248.309 170.581C248.791 170.581 249.219 170.484 249.596 170.29C249.972 170.096 250.299 169.822 250.575 169.468L251.629 170.489C251.436 170.771 251.184 171.043 250.874 171.303C250.564 171.557 250.185 171.765 249.737 171.925C249.294 172.086 248.779 172.166 248.193 172.166ZM257.415 163.019V172H255.406V163.019H257.415ZM260.362 163.019V164.596H252.509V163.019H260.362ZM118.909 190.51V191.609H114.719V190.51H118.909ZM115.005 187.075V195H113.65V187.075H115.005ZM120.007 187.075V195H118.645V187.075H120.007ZM126.863 193.645V189.565C126.863 189.253 126.799 188.982 126.672 188.752C126.55 188.518 126.365 188.337 126.116 188.21C125.867 188.083 125.559 188.02 125.193 188.02C124.851 188.02 124.551 188.079 124.292 188.196C124.038 188.313 123.838 188.467 123.691 188.657C123.55 188.848 123.479 189.053 123.479 189.272H122.124C122.124 188.989 122.197 188.708 122.344 188.43C122.49 188.152 122.7 187.9 122.974 187.676C123.252 187.446 123.584 187.266 123.97 187.134C124.36 186.997 124.795 186.929 125.273 186.929C125.85 186.929 126.357 187.026 126.797 187.222C127.241 187.417 127.588 187.712 127.837 188.108C128.091 188.499 128.218 188.989 128.218 189.58V193.271C128.218 193.535 128.24 193.816 128.284 194.114C128.333 194.412 128.403 194.668 128.496 194.883V195H127.083C127.014 194.844 126.96 194.636 126.921 194.377C126.882 194.114 126.863 193.87 126.863 193.645ZM127.097 190.195L127.112 191.147H125.742C125.356 191.147 125.012 191.179 124.709 191.243C124.407 191.301 124.153 191.392 123.948 191.514C123.743 191.636 123.586 191.79 123.479 191.975C123.372 192.156 123.318 192.368 123.318 192.612C123.318 192.861 123.374 193.088 123.486 193.293C123.599 193.499 123.767 193.662 123.992 193.784C124.221 193.901 124.502 193.96 124.834 193.96C125.249 193.96 125.615 193.872 125.933 193.696C126.25 193.521 126.501 193.306 126.687 193.052C126.877 192.798 126.98 192.551 126.995 192.312L127.573 192.964C127.539 193.169 127.446 193.396 127.295 193.645C127.144 193.894 126.941 194.133 126.687 194.363C126.438 194.587 126.14 194.775 125.793 194.927C125.452 195.073 125.066 195.146 124.636 195.146C124.099 195.146 123.628 195.042 123.223 194.832C122.822 194.622 122.51 194.341 122.285 193.989C122.065 193.633 121.956 193.235 121.956 192.795C121.956 192.371 122.039 191.997 122.205 191.675C122.371 191.348 122.61 191.077 122.922 190.862C123.235 190.642 123.611 190.476 124.05 190.364C124.49 190.251 124.98 190.195 125.522 190.195H127.097ZM131.704 188.599V198.047H130.342V187.075H131.587L131.704 188.599ZM137.043 190.972V191.125C137.043 191.702 136.975 192.236 136.838 192.729C136.702 193.218 136.501 193.643 136.238 194.004C135.979 194.365 135.659 194.646 135.278 194.846C134.897 195.046 134.46 195.146 133.967 195.146C133.464 195.146 133.02 195.063 132.634 194.897C132.249 194.731 131.921 194.49 131.653 194.172C131.384 193.855 131.169 193.474 131.008 193.03C130.852 192.585 130.745 192.085 130.686 191.528V190.708C130.745 190.122 130.854 189.597 131.016 189.133C131.177 188.669 131.389 188.274 131.653 187.947C131.921 187.615 132.246 187.363 132.627 187.192C133.008 187.017 133.447 186.929 133.945 186.929C134.443 186.929 134.885 187.026 135.271 187.222C135.657 187.412 135.981 187.686 136.245 188.042C136.509 188.398 136.707 188.826 136.838 189.324C136.975 189.817 137.043 190.366 137.043 190.972ZM135.681 191.125V190.972C135.681 190.576 135.64 190.205 135.557 189.858C135.474 189.507 135.344 189.199 135.168 188.936C134.998 188.667 134.778 188.457 134.509 188.306C134.241 188.149 133.921 188.071 133.55 188.071C133.208 188.071 132.91 188.13 132.656 188.247C132.407 188.364 132.195 188.523 132.019 188.723C131.843 188.918 131.699 189.143 131.587 189.397C131.479 189.646 131.399 189.905 131.345 190.173V192.07C131.443 192.412 131.58 192.734 131.755 193.037C131.931 193.335 132.166 193.577 132.458 193.762C132.751 193.943 133.12 194.033 133.564 194.033C133.931 194.033 134.246 193.958 134.509 193.806C134.778 193.65 134.998 193.438 135.168 193.169C135.344 192.9 135.474 192.593 135.557 192.246C135.64 191.895 135.681 191.521 135.681 191.125ZM143.445 193.645V189.565C143.445 189.253 143.381 188.982 143.254 188.752C143.132 188.518 142.947 188.337 142.698 188.21C142.449 188.083 142.141 188.02 141.775 188.02C141.433 188.02 141.133 188.079 140.874 188.196C140.62 188.313 140.42 188.467 140.273 188.657C140.132 188.848 140.061 189.053 140.061 189.272H138.706C138.706 188.989 138.779 188.708 138.926 188.43C139.072 188.152 139.282 187.9 139.556 187.676C139.834 187.446 140.166 187.266 140.552 187.134C140.942 186.997 141.377 186.929 141.855 186.929C142.432 186.929 142.939 187.026 143.379 187.222C143.823 187.417 144.17 187.712 144.419 188.108C144.673 188.499 144.8 188.989 144.8 189.58V193.271C144.8 193.535 144.822 193.816 144.866 194.114C144.915 194.412 144.985 194.668 145.078 194.883V195H143.665C143.596 194.844 143.542 194.636 143.503 194.377C143.464 194.114 143.445 193.87 143.445 193.645ZM143.679 190.195L143.694 191.147H142.324C141.938 191.147 141.594 191.179 141.292 191.243C140.989 191.301 140.735 191.392 140.53 191.514C140.325 191.636 140.168 191.79 140.061 191.975C139.954 192.156 139.9 192.368 139.9 192.612C139.9 192.861 139.956 193.088 140.068 193.293C140.181 193.499 140.349 193.662 140.574 193.784C140.803 193.901 141.084 193.96 141.416 193.96C141.831 193.96 142.197 193.872 142.515 193.696C142.832 193.521 143.083 193.306 143.269 193.052C143.459 192.798 143.562 192.551 143.577 192.312L144.155 192.964C144.121 193.169 144.028 193.396 143.877 193.645C143.726 193.894 143.523 194.133 143.269 194.363C143.02 194.587 142.722 194.775 142.375 194.927C142.034 195.073 141.648 195.146 141.218 195.146C140.681 195.146 140.21 195.042 139.805 194.832C139.404 194.622 139.092 194.341 138.867 193.989C138.647 193.633 138.538 193.235 138.538 192.795C138.538 192.371 138.621 191.997 138.787 191.675C138.953 191.348 139.192 191.077 139.504 190.862C139.817 190.642 140.193 190.476 140.632 190.364C141.072 190.251 141.562 190.195 142.104 190.195H143.679ZM150.103 194.033C150.425 194.033 150.723 193.967 150.996 193.835C151.27 193.704 151.494 193.523 151.67 193.293C151.846 193.059 151.946 192.793 151.97 192.495H153.259C153.235 192.964 153.076 193.401 152.783 193.806C152.495 194.207 152.117 194.531 151.648 194.78C151.179 195.024 150.664 195.146 150.103 195.146C149.507 195.146 148.987 195.042 148.542 194.832C148.103 194.622 147.737 194.333 147.444 193.967C147.156 193.601 146.938 193.181 146.792 192.708C146.65 192.229 146.58 191.724 146.58 191.191V190.884C146.58 190.352 146.65 189.849 146.792 189.375C146.938 188.896 147.156 188.474 147.444 188.108C147.737 187.742 148.103 187.454 148.542 187.244C148.987 187.034 149.507 186.929 150.103 186.929C150.723 186.929 151.265 187.056 151.729 187.31C152.192 187.559 152.556 187.9 152.82 188.335C153.088 188.765 153.235 189.253 153.259 189.8H151.97C151.946 189.473 151.853 189.177 151.692 188.914C151.536 188.65 151.321 188.44 151.047 188.284C150.779 188.123 150.464 188.042 150.103 188.042C149.688 188.042 149.338 188.125 149.055 188.291C148.777 188.452 148.555 188.672 148.389 188.95C148.228 189.224 148.11 189.529 148.037 189.866C147.969 190.198 147.935 190.537 147.935 190.884V191.191C147.935 191.538 147.969 191.88 148.037 192.217C148.105 192.554 148.22 192.859 148.381 193.132C148.547 193.406 148.77 193.625 149.048 193.792C149.331 193.953 149.683 194.033 150.103 194.033ZM158.013 187.075V195H156.65V187.075H158.013ZM160.671 187.075V188.174H154.043V187.075H160.671ZM166.56 193.645V189.565C166.56 189.253 166.497 188.982 166.37 188.752C166.248 188.518 166.062 188.337 165.813 188.21C165.564 188.083 165.256 188.02 164.89 188.02C164.548 188.02 164.248 188.079 163.989 188.196C163.735 188.313 163.535 188.467 163.389 188.657C163.247 188.848 163.176 189.053 163.176 189.272H161.821C161.821 188.989 161.895 188.708 162.041 188.43C162.188 188.152 162.397 187.9 162.671 187.676C162.949 187.446 163.281 187.266 163.667 187.134C164.058 186.997 164.492 186.929 164.971 186.929C165.547 186.929 166.055 187.026 166.494 187.222C166.938 187.417 167.285 187.712 167.534 188.108C167.788 188.499 167.915 188.989 167.915 189.58V193.271C167.915 193.535 167.937 193.816 167.981 194.114C168.03 194.412 168.101 194.668 168.193 194.883V195H166.78C166.711 194.844 166.658 194.636 166.619 194.377C166.58 194.114 166.56 193.87 166.56 193.645ZM166.794 190.195L166.809 191.147H165.439C165.054 191.147 164.709 191.179 164.407 191.243C164.104 191.301 163.85 191.392 163.645 191.514C163.44 191.636 163.284 191.79 163.176 191.975C163.069 192.156 163.015 192.368 163.015 192.612C163.015 192.861 163.071 193.088 163.184 193.293C163.296 193.499 163.464 193.662 163.689 193.784C163.918 193.901 164.199 193.96 164.531 193.96C164.946 193.96 165.312 193.872 165.63 193.696C165.947 193.521 166.199 193.306 166.384 193.052C166.575 192.798 166.677 192.551 166.692 192.312L167.271 192.964C167.236 193.169 167.144 193.396 166.992 193.645C166.841 193.894 166.638 194.133 166.384 194.363C166.135 194.587 165.837 194.775 165.491 194.927C165.149 195.073 164.763 195.146 164.333 195.146C163.796 195.146 163.325 195.042 162.92 194.832C162.52 194.622 162.207 194.341 161.982 193.989C161.763 193.633 161.653 193.235 161.653 192.795C161.653 192.371 161.736 191.997 161.902 191.675C162.068 191.348 162.307 191.077 162.62 190.862C162.932 190.642 163.308 190.476 163.748 190.364C164.187 190.251 164.678 190.195 165.22 190.195H166.794ZM174.558 190.437V191.543H170.347V190.437H174.558ZM171.526 187.075V195H170.171V187.075H171.526ZM173.401 191.125V190.957C173.401 190.386 173.484 189.856 173.65 189.368C173.816 188.875 174.055 188.447 174.368 188.086C174.685 187.72 175.063 187.437 175.503 187.236C175.947 187.031 176.445 186.929 176.997 186.929C177.559 186.929 178.062 187.031 178.506 187.236C178.95 187.437 179.329 187.72 179.641 188.086C179.958 188.447 180.2 188.875 180.366 189.368C180.532 189.856 180.615 190.386 180.615 190.957V191.125C180.615 191.697 180.532 192.227 180.366 192.715C180.2 193.203 179.961 193.63 179.648 193.997C179.336 194.358 178.958 194.641 178.513 194.846C178.069 195.046 177.568 195.146 177.012 195.146C176.455 195.146 175.955 195.046 175.51 194.846C175.066 194.641 174.685 194.358 174.368 193.997C174.055 193.63 173.816 193.203 173.65 192.715C173.484 192.227 173.401 191.697 173.401 191.125ZM174.763 190.957V191.125C174.763 191.521 174.81 191.895 174.902 192.246C174.995 192.593 175.134 192.9 175.32 193.169C175.51 193.438 175.745 193.65 176.023 193.806C176.306 193.958 176.636 194.033 177.012 194.033C177.388 194.033 177.715 193.958 177.993 193.806C178.276 193.65 178.511 193.438 178.696 193.169C178.882 192.9 179.021 192.593 179.114 192.246C179.211 191.895 179.26 191.521 179.26 191.125V190.957C179.26 190.566 179.211 190.198 179.114 189.851C179.021 189.5 178.879 189.189 178.689 188.921C178.503 188.647 178.269 188.433 177.986 188.276C177.703 188.12 177.373 188.042 176.997 188.042C176.626 188.042 176.301 188.12 176.023 188.276C175.745 188.433 175.51 188.647 175.32 188.921C175.134 189.189 174.995 189.5 174.902 189.851C174.81 190.198 174.763 190.566 174.763 190.957ZM193.308 193.887L193.176 197.351H191.968V195H190.935V193.887H193.308ZM182.329 187.075H183.684V193.887H186.584V187.075H187.947V193.887H190.84V187.075H192.195V195H182.329V187.075ZM196.179 192.854L199.834 187.075H201.196V195H199.834V189.221L196.179 195H194.832V187.075H196.179V192.854ZM204.836 192.854L208.491 187.075H209.854V195H208.491V189.221L204.836 195H203.489V187.075H204.836V192.854ZM207.751 184.204H208.85C208.85 184.585 208.762 184.924 208.586 185.222C208.411 185.515 208.159 185.745 207.832 185.911C207.505 186.077 207.117 186.16 206.667 186.16C205.989 186.16 205.452 185.979 205.056 185.618C204.666 185.251 204.47 184.78 204.47 184.204H205.569C205.569 184.492 205.652 184.746 205.818 184.966C205.984 185.186 206.267 185.295 206.667 185.295C207.058 185.295 207.336 185.186 207.502 184.966C207.668 184.746 207.751 184.492 207.751 184.204ZM219.47 191.514H216.87L216.855 190.43H218.979C219.399 190.43 219.749 190.388 220.027 190.305C220.31 190.222 220.522 190.098 220.664 189.932C220.806 189.766 220.876 189.561 220.876 189.316C220.876 189.126 220.835 188.96 220.752 188.818C220.674 188.672 220.554 188.552 220.393 188.459C220.232 188.362 220.032 188.291 219.792 188.247C219.558 188.198 219.282 188.174 218.965 188.174H217.229V195H215.874V187.075H218.965C219.468 187.075 219.919 187.119 220.32 187.207C220.725 187.295 221.069 187.429 221.353 187.61C221.641 187.786 221.86 188.01 222.012 188.284C222.163 188.557 222.239 188.879 222.239 189.25C222.239 189.49 222.19 189.717 222.092 189.932C221.995 190.146 221.851 190.337 221.66 190.503C221.47 190.669 221.235 190.806 220.957 190.913C220.679 191.016 220.359 191.082 219.998 191.111L219.47 191.514ZM219.47 195H216.379L217.053 193.901H219.47C219.846 193.901 220.159 193.855 220.408 193.762C220.657 193.665 220.842 193.528 220.964 193.352C221.091 193.171 221.155 192.957 221.155 192.708C221.155 192.458 221.091 192.246 220.964 192.07C220.842 191.89 220.657 191.753 220.408 191.66C220.159 191.562 219.846 191.514 219.47 191.514H217.412L217.427 190.43H219.998L220.488 190.84C220.923 190.874 221.292 190.981 221.594 191.162C221.897 191.343 222.126 191.572 222.283 191.851C222.439 192.124 222.517 192.422 222.517 192.744C222.517 193.115 222.446 193.442 222.305 193.726C222.168 194.009 221.968 194.246 221.704 194.436C221.44 194.622 221.121 194.763 220.745 194.861C220.369 194.954 219.944 195 219.47 195ZM231.284 187.075V195H229.922V187.075H231.284ZM233.943 187.075V188.174H227.314V187.075H233.943ZM237.979 195.146C237.427 195.146 236.926 195.054 236.477 194.868C236.033 194.678 235.649 194.412 235.327 194.07C235.01 193.728 234.766 193.323 234.595 192.854C234.424 192.385 234.338 191.873 234.338 191.316V191.008C234.338 190.364 234.434 189.79 234.624 189.287C234.814 188.779 235.073 188.35 235.4 187.998C235.728 187.646 236.099 187.38 236.514 187.2C236.929 187.019 237.358 186.929 237.803 186.929C238.369 186.929 238.857 187.026 239.268 187.222C239.683 187.417 240.022 187.69 240.286 188.042C240.549 188.389 240.745 188.799 240.872 189.272C240.999 189.741 241.062 190.254 241.062 190.811V191.418H235.144V190.312H239.707V190.21C239.688 189.858 239.614 189.517 239.487 189.185C239.365 188.853 239.17 188.579 238.901 188.364C238.633 188.149 238.267 188.042 237.803 188.042C237.495 188.042 237.212 188.108 236.953 188.24C236.694 188.367 236.472 188.557 236.287 188.811C236.101 189.065 235.957 189.375 235.854 189.741C235.752 190.107 235.701 190.53 235.701 191.008V191.316C235.701 191.692 235.752 192.046 235.854 192.378C235.962 192.705 236.116 192.993 236.316 193.242C236.521 193.491 236.768 193.687 237.056 193.828C237.349 193.97 237.681 194.041 238.052 194.041C238.53 194.041 238.936 193.943 239.268 193.748C239.6 193.552 239.89 193.291 240.139 192.964L240.959 193.616C240.789 193.875 240.571 194.121 240.308 194.355C240.044 194.59 239.719 194.78 239.333 194.927C238.953 195.073 238.501 195.146 237.979 195.146ZM248.621 187.075V195H247.266V187.075H248.621ZM248.159 190.715V191.829C247.886 191.931 247.607 192.024 247.324 192.107C247.046 192.185 246.75 192.249 246.438 192.297C246.13 192.341 245.796 192.363 245.435 192.363C244.81 192.363 244.268 192.256 243.809 192.041C243.35 191.821 242.996 191.492 242.747 191.052C242.498 190.608 242.373 190.049 242.373 189.375V187.061H243.728V189.375C243.728 189.814 243.794 190.171 243.926 190.444C244.058 190.718 244.25 190.92 244.504 191.052C244.758 191.179 245.068 191.243 245.435 191.243C245.786 191.243 246.116 191.221 246.423 191.177C246.736 191.128 247.034 191.064 247.317 190.986C247.605 190.908 247.886 190.818 248.159 190.715ZM254.092 195.146C253.54 195.146 253.04 195.054 252.59 194.868C252.146 194.678 251.763 194.412 251.44 194.07C251.123 193.728 250.879 193.323 250.708 192.854C250.537 192.385 250.452 191.873 250.452 191.316V191.008C250.452 190.364 250.547 189.79 250.737 189.287C250.928 188.779 251.187 188.35 251.514 187.998C251.841 187.646 252.212 187.38 252.627 187.2C253.042 187.019 253.472 186.929 253.916 186.929C254.482 186.929 254.971 187.026 255.381 187.222C255.796 187.417 256.135 187.69 256.399 188.042C256.663 188.389 256.858 188.799 256.985 189.272C257.112 189.741 257.175 190.254 257.175 190.811V191.418H251.257V190.312H255.82V190.21C255.801 189.858 255.728 189.517 255.601 189.185C255.479 188.853 255.283 188.579 255.015 188.364C254.746 188.149 254.38 188.042 253.916 188.042C253.608 188.042 253.325 188.108 253.066 188.24C252.808 188.367 252.585 188.557 252.4 188.811C252.214 189.065 252.07 189.375 251.968 189.741C251.865 190.107 251.814 190.53 251.814 191.008V191.316C251.814 191.692 251.865 192.046 251.968 192.378C252.075 192.705 252.229 192.993 252.429 193.242C252.634 193.491 252.881 193.687 253.169 193.828C253.462 193.97 253.794 194.041 254.165 194.041C254.644 194.041 255.049 193.943 255.381 193.748C255.713 193.552 256.003 193.291 256.252 192.964L257.073 193.616C256.902 193.875 256.685 194.121 256.421 194.355C256.157 194.59 255.833 194.78 255.447 194.927C255.066 195.073 254.614 195.146 254.092 195.146ZM264.133 190.51V191.609H259.944V190.51H264.133ZM260.229 187.075V195H258.875V187.075H260.229ZM265.232 187.075V195H263.87V187.075H265.232ZM268.879 192.854L272.534 187.075H273.896V195H272.534V189.221L268.879 195H267.532V187.075H268.879V192.854ZM279.36 195.146C278.809 195.146 278.308 195.054 277.859 194.868C277.415 194.678 277.031 194.412 276.709 194.07C276.392 193.728 276.147 193.323 275.977 192.854C275.806 192.385 275.72 191.873 275.72 191.316V191.008C275.72 190.364 275.815 189.79 276.006 189.287C276.196 188.779 276.455 188.35 276.782 187.998C277.109 187.646 277.48 187.38 277.896 187.2C278.311 187.019 278.74 186.929 279.185 186.929C279.751 186.929 280.239 187.026 280.649 187.222C281.064 187.417 281.404 187.69 281.667 188.042C281.931 188.389 282.126 188.799 282.253 189.272C282.38 189.741 282.444 190.254 282.444 190.811V191.418H276.526V190.312H281.089V190.21C281.069 189.858 280.996 189.517 280.869 189.185C280.747 188.853 280.552 188.579 280.283 188.364C280.015 188.149 279.648 188.042 279.185 188.042C278.877 188.042 278.594 188.108 278.335 188.24C278.076 188.367 277.854 188.557 277.668 188.811C277.483 189.065 277.339 189.375 277.236 189.741C277.134 190.107 277.083 190.53 277.083 191.008V191.316C277.083 191.692 277.134 192.046 277.236 192.378C277.344 192.705 277.498 192.993 277.698 193.242C277.903 193.491 278.149 193.687 278.438 193.828C278.73 193.97 279.062 194.041 279.434 194.041C279.912 194.041 280.317 193.943 280.649 193.748C280.981 193.552 281.272 193.291 281.521 192.964L282.341 193.616C282.17 193.875 281.953 194.121 281.689 194.355C281.426 194.59 281.101 194.78 280.715 194.927C280.334 195.073 279.883 195.146 279.36 195.146ZM289.219 187.075V195H287.864V187.075H289.219ZM294.419 187.075L290.662 191.616H288.765L288.56 190.43H290.112L292.771 187.075H294.419ZM292.961 195L290.046 191.411L290.918 190.43L294.683 195H292.961ZM298.088 194.18L300.293 187.075H301.743L298.564 196.223C298.491 196.418 298.394 196.628 298.271 196.853C298.154 197.083 298.003 197.3 297.817 197.505C297.632 197.71 297.407 197.876 297.144 198.003C296.885 198.135 296.575 198.201 296.213 198.201C296.106 198.201 295.969 198.186 295.803 198.157C295.637 198.127 295.52 198.103 295.452 198.083L295.444 196.985C295.483 196.99 295.544 196.995 295.627 197C295.715 197.009 295.776 197.014 295.811 197.014C296.118 197.014 296.379 196.973 296.594 196.89C296.809 196.812 296.99 196.677 297.136 196.487C297.288 196.301 297.417 196.045 297.524 195.718L298.088 194.18ZM296.47 187.075L298.528 193.228L298.879 194.656L297.905 195.154L294.99 187.075H296.47ZM304.321 188.599V198.047H302.959V187.075H304.204L304.321 188.599ZM309.661 190.972V191.125C309.661 191.702 309.592 192.236 309.456 192.729C309.319 193.218 309.119 193.643 308.855 194.004C308.596 194.365 308.276 194.646 307.896 194.846C307.515 195.046 307.078 195.146 306.584 195.146C306.082 195.146 305.637 195.063 305.251 194.897C304.866 194.731 304.539 194.49 304.27 194.172C304.001 193.855 303.787 193.474 303.625 193.03C303.469 192.585 303.362 192.085 303.303 191.528V190.708C303.362 190.122 303.472 189.597 303.633 189.133C303.794 188.669 304.006 188.274 304.27 187.947C304.539 187.615 304.863 187.363 305.244 187.192C305.625 187.017 306.064 186.929 306.562 186.929C307.061 186.929 307.502 187.026 307.888 187.222C308.274 187.412 308.599 187.686 308.862 188.042C309.126 188.398 309.324 188.826 309.456 189.324C309.592 189.817 309.661 190.366 309.661 190.972ZM308.298 191.125V190.972C308.298 190.576 308.257 190.205 308.174 189.858C308.091 189.507 307.961 189.199 307.786 188.936C307.615 188.667 307.395 188.457 307.126 188.306C306.858 188.149 306.538 188.071 306.167 188.071C305.825 188.071 305.527 188.13 305.273 188.247C305.024 188.364 304.812 188.523 304.636 188.723C304.46 188.918 304.316 189.143 304.204 189.397C304.097 189.646 304.016 189.905 303.962 190.173V192.07C304.06 192.412 304.197 192.734 304.373 193.037C304.548 193.335 304.783 193.577 305.076 193.762C305.369 193.943 305.737 194.033 306.182 194.033C306.548 194.033 306.863 193.958 307.126 193.806C307.395 193.65 307.615 193.438 307.786 193.169C307.961 192.9 308.091 192.593 308.174 192.246C308.257 191.895 308.298 191.521 308.298 191.125ZM314.561 194.033C314.883 194.033 315.181 193.967 315.454 193.835C315.728 193.704 315.952 193.523 316.128 193.293C316.304 193.059 316.404 192.793 316.428 192.495H317.717C317.693 192.964 317.534 193.401 317.241 193.806C316.953 194.207 316.575 194.531 316.106 194.78C315.637 195.024 315.122 195.146 314.561 195.146C313.965 195.146 313.445 195.042 313 194.832C312.561 194.622 312.195 194.333 311.902 193.967C311.614 193.601 311.396 193.181 311.25 192.708C311.108 192.229 311.038 191.724 311.038 191.191V190.884C311.038 190.352 311.108 189.849 311.25 189.375C311.396 188.896 311.614 188.474 311.902 188.108C312.195 187.742 312.561 187.454 313 187.244C313.445 187.034 313.965 186.929 314.561 186.929C315.181 186.929 315.723 187.056 316.187 187.31C316.65 187.559 317.014 187.9 317.278 188.335C317.546 188.765 317.693 189.253 317.717 189.8H316.428C316.404 189.473 316.311 189.177 316.15 188.914C315.994 188.65 315.779 188.44 315.505 188.284C315.237 188.123 314.922 188.042 314.561 188.042C314.146 188.042 313.796 188.125 313.513 188.291C313.235 188.452 313.013 188.672 312.847 188.95C312.686 189.224 312.568 189.529 312.495 189.866C312.427 190.198 312.393 190.537 312.393 190.884V191.191C312.393 191.538 312.427 191.88 312.495 192.217C312.563 192.554 312.678 192.859 312.839 193.132C313.005 193.406 313.228 193.625 313.506 193.792C313.789 193.953 314.141 194.033 314.561 194.033ZM323.914 193.645V189.565C323.914 189.253 323.85 188.982 323.723 188.752C323.601 188.518 323.416 188.337 323.167 188.21C322.917 188.083 322.61 188.02 322.244 188.02C321.902 188.02 321.602 188.079 321.343 188.196C321.089 188.313 320.889 188.467 320.742 188.657C320.601 188.848 320.53 189.053 320.53 189.272H319.175C319.175 188.989 319.248 188.708 319.395 188.43C319.541 188.152 319.751 187.9 320.024 187.676C320.303 187.446 320.635 187.266 321.021 187.134C321.411 186.997 321.846 186.929 322.324 186.929C322.9 186.929 323.408 187.026 323.848 187.222C324.292 187.417 324.639 187.712 324.888 188.108C325.142 188.499 325.269 188.989 325.269 189.58V193.271C325.269 193.535 325.291 193.816 325.334 194.114C325.383 194.412 325.454 194.668 325.547 194.883V195H324.133C324.065 194.844 324.011 194.636 323.972 194.377C323.933 194.114 323.914 193.87 323.914 193.645ZM324.148 190.195L324.163 191.147H322.793C322.407 191.147 322.063 191.179 321.76 191.243C321.458 191.301 321.204 191.392 320.999 191.514C320.793 191.636 320.637 191.79 320.53 191.975C320.422 192.156 320.369 192.368 320.369 192.612C320.369 192.861 320.425 193.088 320.537 193.293C320.649 193.499 320.818 193.662 321.042 193.784C321.272 193.901 321.553 193.96 321.885 193.96C322.3 193.96 322.666 193.872 322.983 193.696C323.301 193.521 323.552 193.306 323.738 193.052C323.928 192.798 324.031 192.551 324.045 192.312L324.624 192.964C324.59 193.169 324.497 193.396 324.346 193.645C324.194 193.894 323.992 194.133 323.738 194.363C323.489 194.587 323.191 194.775 322.844 194.927C322.502 195.073 322.117 195.146 321.687 195.146C321.15 195.146 320.679 195.042 320.273 194.832C319.873 194.622 319.561 194.341 319.336 193.989C319.116 193.633 319.006 193.235 319.006 192.795C319.006 192.371 319.089 191.997 319.255 191.675C319.421 191.348 319.661 191.077 319.973 190.862C320.286 190.642 320.662 190.476 321.101 190.364C321.541 190.251 322.031 190.195 322.573 190.195H324.148Z" fill="#3D0751"/>
<path d="M123.291 92.9141V105H121.216V94.5742H115.845V105H113.77V92.9141H123.291ZM129.558 105.166C128.894 105.166 128.294 105.058 127.757 104.842C127.226 104.621 126.772 104.314 126.396 103.921C126.025 103.528 125.74 103.066 125.541 102.535C125.341 102.003 125.242 101.431 125.242 100.816V100.484C125.242 99.7816 125.344 99.1452 125.549 98.5752C125.754 98.0052 126.039 97.5182 126.404 97.1143C126.769 96.7048 127.201 96.3921 127.699 96.1763C128.197 95.9604 128.736 95.8525 129.317 95.8525C129.959 95.8525 130.521 95.9604 131.002 96.1763C131.484 96.3921 131.882 96.6965 132.198 97.0894C132.519 97.4767 132.757 97.9388 132.912 98.4756C133.072 99.0124 133.152 99.6045 133.152 100.252V101.107H126.213V99.6709H131.177V99.5132C131.166 99.1535 131.094 98.8159 130.961 98.5005C130.834 98.1851 130.637 97.9305 130.372 97.7368C130.106 97.5431 129.752 97.4463 129.309 97.4463C128.977 97.4463 128.681 97.5182 128.421 97.6621C128.166 97.8005 127.953 98.0024 127.782 98.2681C127.61 98.5337 127.477 98.8547 127.383 99.231C127.295 99.6017 127.25 100.02 127.25 100.484V100.816C127.25 101.209 127.303 101.575 127.408 101.912C127.519 102.244 127.679 102.535 127.89 102.784C128.1 103.033 128.354 103.229 128.653 103.373C128.952 103.511 129.292 103.581 129.674 103.581C130.156 103.581 130.585 103.484 130.961 103.29C131.337 103.096 131.664 102.822 131.94 102.468L132.995 103.489C132.801 103.771 132.549 104.043 132.239 104.303C131.929 104.557 131.55 104.765 131.102 104.925C130.659 105.086 130.145 105.166 129.558 105.166ZM136.722 97.7451V108.453H134.721V96.0186H136.564L136.722 97.7451ZM142.574 100.426V100.601C142.574 101.254 142.496 101.86 142.341 102.418C142.192 102.972 141.968 103.456 141.669 103.871C141.376 104.281 141.013 104.599 140.582 104.826C140.15 105.053 139.652 105.166 139.087 105.166C138.528 105.166 138.039 105.064 137.618 104.859C137.203 104.649 136.852 104.353 136.564 103.971C136.276 103.589 136.044 103.141 135.867 102.626C135.695 102.106 135.573 101.536 135.501 100.916V100.244C135.573 99.5851 135.695 98.9875 135.867 98.4507C136.044 97.9139 136.276 97.4518 136.564 97.0645C136.852 96.6771 137.203 96.3783 137.618 96.168C138.033 95.9577 138.517 95.8525 139.071 95.8525C139.635 95.8525 140.136 95.9632 140.573 96.1846C141.01 96.4004 141.378 96.7103 141.677 97.1143C141.976 97.5127 142.2 97.9941 142.35 98.5586C142.499 99.1175 142.574 99.7401 142.574 100.426ZM140.573 100.601V100.426C140.573 100.011 140.535 99.6266 140.457 99.2725C140.38 98.9128 140.258 98.5973 140.092 98.3262C139.926 98.055 139.713 97.8447 139.453 97.6953C139.198 97.5404 138.891 97.4629 138.531 97.4629C138.177 97.4629 137.873 97.5238 137.618 97.6455C137.364 97.7617 137.151 97.925 136.979 98.1353C136.807 98.3455 136.675 98.5918 136.581 98.874C136.486 99.1507 136.42 99.4523 136.381 99.7788V101.389C136.448 101.788 136.561 102.153 136.722 102.485C136.882 102.817 137.109 103.083 137.402 103.282C137.701 103.475 138.083 103.572 138.548 103.572C138.908 103.572 139.215 103.495 139.469 103.34C139.724 103.185 139.931 102.972 140.092 102.701C140.258 102.424 140.38 102.106 140.457 101.746C140.535 101.386 140.573 101.005 140.573 100.601ZM146.342 102.078L149.87 96.0186H151.871V105H149.87V98.9321L146.342 105H144.342V96.0186H146.342V102.078ZM153.605 100.609V100.418C153.605 99.7705 153.7 99.1701 153.888 98.6167C154.076 98.0578 154.347 97.5736 154.701 97.1641C155.061 96.749 155.498 96.4281 156.013 96.2012C156.533 95.9688 157.119 95.8525 157.772 95.8525C158.431 95.8525 159.018 95.9688 159.532 96.2012C160.052 96.4281 160.492 96.749 160.852 97.1641C161.212 97.5736 161.486 98.0578 161.674 98.6167C161.862 99.1701 161.956 99.7705 161.956 100.418V100.609C161.956 101.256 161.862 101.857 161.674 102.41C161.486 102.964 161.212 103.448 160.852 103.863C160.492 104.272 160.055 104.593 159.541 104.826C159.026 105.053 158.442 105.166 157.789 105.166C157.131 105.166 156.541 105.053 156.021 104.826C155.506 104.593 155.069 104.272 154.709 103.863C154.35 103.448 154.076 102.964 153.888 102.41C153.7 101.857 153.605 101.256 153.605 100.609ZM155.606 100.418V100.609C155.606 101.013 155.647 101.395 155.73 101.754C155.813 102.114 155.944 102.43 156.121 102.701C156.298 102.972 156.525 103.185 156.801 103.34C157.078 103.495 157.407 103.572 157.789 103.572C158.16 103.572 158.481 103.495 158.752 103.34C159.029 103.185 159.256 102.972 159.433 102.701C159.61 102.43 159.74 102.114 159.823 101.754C159.911 101.395 159.956 101.013 159.956 100.609V100.418C159.956 100.02 159.911 99.6432 159.823 99.2891C159.74 98.9294 159.607 98.6112 159.424 98.3345C159.247 98.0578 159.02 97.842 158.744 97.687C158.472 97.5265 158.149 97.4463 157.772 97.4463C157.396 97.4463 157.07 97.5265 156.793 97.687C156.522 97.842 156.298 98.0578 156.121 98.3345C155.944 98.6112 155.813 98.9294 155.73 99.2891C155.647 99.6432 155.606 100.02 155.606 100.418ZM164.662 96.0186H166.663L166.563 99.1812C166.535 100.1 166.43 100.888 166.248 101.547C166.065 102.205 165.827 102.762 165.534 103.215C165.24 103.664 164.908 104.032 164.538 104.319C164.172 104.607 163.788 104.834 163.384 105H162.794V103.423L163.077 103.406C163.315 103.152 163.519 102.897 163.691 102.643C163.868 102.382 164.017 102.097 164.139 101.788C164.261 101.472 164.355 101.104 164.421 100.684C164.493 100.263 164.54 99.7622 164.562 99.1812L164.662 96.0186ZM165.193 96.0186H170.888V105H168.896V97.7119H165.193V96.0186ZM162.338 103.406H172.116V107.673H170.116V105H164.363V107.673H162.33L162.338 103.406ZM175.561 102.078L179.089 96.0186H181.089V105H179.089V98.9321L175.561 105H173.561V96.0186H175.561V102.078ZM190.419 96.0186V105H188.419V96.0186H190.419ZM189.573 99.9946V101.58C189.329 101.685 189.055 101.782 188.751 101.871C188.452 101.954 188.137 102.023 187.805 102.078C187.473 102.128 187.138 102.153 186.8 102.153C186.009 102.153 185.326 102.031 184.75 101.788C184.18 101.544 183.74 101.171 183.43 100.667C183.126 100.158 182.974 99.5132 182.974 98.7329V96.0103H184.966V98.7329C184.966 99.1812 185.032 99.5381 185.165 99.8037C185.303 100.069 185.508 100.26 185.779 100.376C186.05 100.493 186.391 100.551 186.8 100.551C187.143 100.551 187.467 100.529 187.771 100.484C188.076 100.435 188.377 100.368 188.676 100.285C188.975 100.202 189.274 100.105 189.573 99.9946ZM198.687 99.7705V101.348H194.039V99.7705H198.687ZM194.62 96.0186V105H192.619V96.0186H194.62ZM200.131 96.0186V105H198.131V96.0186H200.131ZM201.883 100.609V100.418C201.883 99.7705 201.977 99.1701 202.165 98.6167C202.353 98.0578 202.624 97.5736 202.979 97.1641C203.338 96.749 203.775 96.4281 204.29 96.2012C204.81 95.9688 205.397 95.8525 206.05 95.8525C206.708 95.8525 207.295 95.9688 207.81 96.2012C208.33 96.4281 208.77 96.749 209.129 97.1641C209.489 97.5736 209.763 98.0578 209.951 98.6167C210.139 99.1701 210.233 99.7705 210.233 100.418V100.609C210.233 101.256 210.139 101.857 209.951 102.41C209.763 102.964 209.489 103.448 209.129 103.863C208.77 104.272 208.333 104.593 207.818 104.826C207.303 105.053 206.719 105.166 206.066 105.166C205.408 105.166 204.819 105.053 204.298 104.826C203.784 104.593 203.347 104.272 202.987 103.863C202.627 103.448 202.353 102.964 202.165 102.41C201.977 101.857 201.883 101.256 201.883 100.609ZM203.883 100.418V100.609C203.883 101.013 203.925 101.395 204.008 101.754C204.091 102.114 204.221 102.43 204.398 102.701C204.575 102.972 204.802 103.185 205.079 103.34C205.355 103.495 205.685 103.572 206.066 103.572C206.437 103.572 206.758 103.495 207.029 103.34C207.306 103.185 207.533 102.972 207.71 102.701C207.887 102.43 208.017 102.114 208.1 101.754C208.189 101.395 208.233 101.013 208.233 100.609V100.418C208.233 100.02 208.189 99.6432 208.1 99.2891C208.017 98.9294 207.884 98.6112 207.702 98.3345C207.525 98.0578 207.298 97.842 207.021 97.687C206.75 97.5265 206.426 97.4463 206.05 97.4463C205.674 97.4463 205.347 97.5265 205.07 97.687C204.799 97.842 204.575 98.0578 204.398 98.3345C204.221 98.6112 204.091 98.9294 204.008 99.2891C203.925 99.6432 203.883 100.02 203.883 100.418ZM215.579 103.572C215.906 103.572 216.199 103.509 216.459 103.381C216.725 103.249 216.938 103.066 217.098 102.833C217.264 102.601 217.355 102.333 217.372 102.028H219.256C219.245 102.609 219.074 103.138 218.742 103.614C218.41 104.09 217.97 104.469 217.422 104.751C216.874 105.028 216.268 105.166 215.604 105.166C214.918 105.166 214.32 105.05 213.811 104.817C213.302 104.579 212.879 104.253 212.541 103.838C212.203 103.423 211.949 102.944 211.777 102.402C211.611 101.86 211.528 101.278 211.528 100.659V100.368C211.528 99.7484 211.611 99.1673 211.777 98.625C211.949 98.0771 212.203 97.5957 212.541 97.1807C212.879 96.7656 213.302 96.4419 213.811 96.2095C214.32 95.9715 214.915 95.8525 215.596 95.8525C216.315 95.8525 216.946 95.9964 217.488 96.2842C218.031 96.5664 218.457 96.9621 218.767 97.4712C219.082 97.9748 219.245 98.5614 219.256 99.231H217.372C217.355 98.8989 217.272 98.6001 217.123 98.3345C216.979 98.0633 216.774 97.8475 216.509 97.687C216.249 97.5265 215.936 97.4463 215.571 97.4463C215.167 97.4463 214.832 97.5293 214.566 97.6953C214.301 97.8558 214.093 98.0771 213.944 98.3594C213.794 98.6361 213.687 98.9487 213.62 99.2974C213.559 99.6405 213.529 99.9974 213.529 100.368V100.659C213.529 101.029 213.559 101.389 213.62 101.738C213.681 102.086 213.786 102.399 213.936 102.676C214.09 102.947 214.301 103.166 214.566 103.332C214.832 103.492 215.17 103.572 215.579 103.572ZM224.959 96.0186V105H222.95V96.0186H224.959ZM227.906 96.0186V97.5957H220.053V96.0186H227.906ZM230.728 98.874H233.376C234.151 98.874 234.809 99.0041 235.352 99.2642C235.894 99.5243 236.306 99.8867 236.588 100.352C236.876 100.811 237.02 101.337 237.02 101.929C237.02 102.366 236.94 102.773 236.779 103.149C236.619 103.52 236.381 103.843 236.065 104.12C235.756 104.397 235.374 104.613 234.92 104.768C234.472 104.923 233.957 105 233.376 105H229.4V96.0186H231.409V103.415H233.376C233.774 103.415 234.093 103.345 234.331 103.207C234.569 103.069 234.74 102.889 234.845 102.667C234.956 102.446 235.011 102.211 235.011 101.962C235.011 101.707 234.956 101.467 234.845 101.24C234.74 101.013 234.569 100.827 234.331 100.684C234.093 100.54 233.774 100.468 233.376 100.468H230.728V98.874ZM120.593 124.411V125.524H112.888V124.726L117.664 117.336H118.77L117.583 119.475L114.426 124.411H120.593ZM119.106 117.336V128H117.751V117.336H119.106ZM127.046 121.599V131.047H125.684V120.075H126.929L127.046 121.599ZM132.385 123.972V124.125C132.385 124.702 132.317 125.236 132.18 125.729C132.043 126.218 131.843 126.643 131.58 127.004C131.321 127.365 131.001 127.646 130.62 127.846C130.239 128.046 129.802 128.146 129.309 128.146C128.806 128.146 128.362 128.063 127.976 127.897C127.59 127.731 127.263 127.49 126.995 127.172C126.726 126.855 126.511 126.474 126.35 126.03C126.194 125.585 126.086 125.085 126.028 124.528V123.708C126.086 123.122 126.196 122.597 126.357 122.133C126.519 121.669 126.731 121.274 126.995 120.947C127.263 120.615 127.588 120.363 127.969 120.192C128.35 120.017 128.789 119.929 129.287 119.929C129.785 119.929 130.227 120.026 130.613 120.222C130.999 120.412 131.323 120.686 131.587 121.042C131.851 121.398 132.048 121.826 132.18 122.324C132.317 122.817 132.385 123.366 132.385 123.972ZM131.023 124.125V123.972C131.023 123.576 130.981 123.205 130.898 122.858C130.815 122.507 130.686 122.199 130.51 121.936C130.339 121.667 130.12 121.457 129.851 121.306C129.583 121.149 129.263 121.071 128.892 121.071C128.55 121.071 128.252 121.13 127.998 121.247C127.749 121.364 127.537 121.523 127.361 121.723C127.185 121.918 127.041 122.143 126.929 122.397C126.821 122.646 126.741 122.905 126.687 123.173V125.07C126.785 125.412 126.921 125.734 127.097 126.037C127.273 126.335 127.507 126.577 127.8 126.762C128.093 126.943 128.462 127.033 128.906 127.033C129.272 127.033 129.587 126.958 129.851 126.806C130.12 126.65 130.339 126.438 130.51 126.169C130.686 125.9 130.815 125.593 130.898 125.246C130.981 124.895 131.023 124.521 131.023 124.125ZM138.787 126.645V122.565C138.787 122.253 138.723 121.982 138.596 121.752C138.474 121.518 138.289 121.337 138.04 121.21C137.791 121.083 137.483 121.02 137.117 121.02C136.775 121.02 136.475 121.079 136.216 121.196C135.962 121.313 135.762 121.467 135.615 121.657C135.474 121.848 135.403 122.053 135.403 122.272H134.048C134.048 121.989 134.121 121.708 134.268 121.43C134.414 121.152 134.624 120.9 134.897 120.676C135.176 120.446 135.508 120.266 135.894 120.134C136.284 119.997 136.719 119.929 137.197 119.929C137.773 119.929 138.281 120.026 138.721 120.222C139.165 120.417 139.512 120.712 139.761 121.108C140.015 121.499 140.142 121.989 140.142 122.58V126.271C140.142 126.535 140.164 126.816 140.208 127.114C140.256 127.412 140.327 127.668 140.42 127.883V128H139.006C138.938 127.844 138.884 127.636 138.845 127.377C138.806 127.114 138.787 126.87 138.787 126.645ZM139.021 123.195L139.036 124.147H137.666C137.28 124.147 136.936 124.179 136.633 124.243C136.331 124.301 136.077 124.392 135.872 124.514C135.667 124.636 135.51 124.79 135.403 124.975C135.295 125.156 135.242 125.368 135.242 125.612C135.242 125.861 135.298 126.088 135.41 126.293C135.522 126.499 135.691 126.662 135.916 126.784C136.145 126.901 136.426 126.96 136.758 126.96C137.173 126.96 137.539 126.872 137.856 126.696C138.174 126.521 138.425 126.306 138.611 126.052C138.801 125.798 138.904 125.551 138.918 125.312L139.497 125.964C139.463 126.169 139.37 126.396 139.219 126.645C139.067 126.894 138.865 127.133 138.611 127.363C138.362 127.587 138.064 127.775 137.717 127.927C137.375 128.073 136.99 128.146 136.56 128.146C136.023 128.146 135.552 128.042 135.146 127.832C134.746 127.622 134.434 127.341 134.209 126.989C133.989 126.633 133.879 126.235 133.879 125.795C133.879 125.371 133.962 124.997 134.128 124.675C134.294 124.348 134.534 124.077 134.846 123.862C135.159 123.642 135.535 123.476 135.974 123.364C136.414 123.251 136.904 123.195 137.446 123.195H139.021ZM145.232 124.213H143.774V123.378H145.122C145.498 123.378 145.796 123.332 146.016 123.239C146.235 123.142 146.392 123.007 146.484 122.836C146.577 122.666 146.624 122.465 146.624 122.236C146.624 122.031 146.57 121.838 146.462 121.657C146.36 121.472 146.194 121.323 145.964 121.21C145.735 121.093 145.427 121.035 145.042 121.035C144.729 121.035 144.446 121.091 144.192 121.203C143.938 121.311 143.735 121.459 143.584 121.65C143.438 121.835 143.364 122.045 143.364 122.28H142.009C142.009 121.796 142.146 121.381 142.419 121.035C142.698 120.683 143.066 120.412 143.525 120.222C143.989 120.031 144.495 119.936 145.042 119.936C145.5 119.936 145.911 119.987 146.272 120.09C146.638 120.188 146.948 120.334 147.202 120.529C147.456 120.72 147.649 120.959 147.781 121.247C147.917 121.53 147.986 121.86 147.986 122.236C147.986 122.504 147.922 122.758 147.795 122.998C147.668 123.237 147.485 123.449 147.246 123.635C147.007 123.815 146.716 123.957 146.375 124.06C146.038 124.162 145.657 124.213 145.232 124.213ZM143.774 123.701H145.232C145.706 123.701 146.123 123.747 146.484 123.84C146.846 123.928 147.148 124.06 147.393 124.235C147.637 124.411 147.82 124.628 147.942 124.887C148.069 125.141 148.132 125.434 148.132 125.766C148.132 126.137 148.057 126.472 147.905 126.77C147.759 127.062 147.549 127.312 147.275 127.517C147.002 127.722 146.675 127.878 146.294 127.985C145.918 128.093 145.5 128.146 145.042 128.146C144.529 128.146 144.031 128.059 143.547 127.883C143.064 127.707 142.666 127.436 142.354 127.07C142.041 126.699 141.885 126.228 141.885 125.656H143.24C143.24 125.896 143.315 126.123 143.467 126.337C143.618 126.552 143.828 126.726 144.097 126.857C144.37 126.989 144.685 127.055 145.042 127.055C145.422 127.055 145.74 126.997 145.994 126.879C146.248 126.762 146.438 126.606 146.565 126.411C146.697 126.215 146.763 126.003 146.763 125.773C146.763 125.476 146.704 125.236 146.587 125.056C146.47 124.875 146.289 124.743 146.045 124.66C145.806 124.572 145.498 124.528 145.122 124.528H143.774V123.701ZM154.563 126.645V122.565C154.563 122.253 154.5 121.982 154.373 121.752C154.25 121.518 154.065 121.337 153.816 121.21C153.567 121.083 153.259 121.02 152.893 121.02C152.551 121.02 152.251 121.079 151.992 121.196C151.738 121.313 151.538 121.467 151.392 121.657C151.25 121.848 151.179 122.053 151.179 122.272H149.824C149.824 121.989 149.897 121.708 150.044 121.43C150.19 121.152 150.4 120.9 150.674 120.676C150.952 120.446 151.284 120.266 151.67 120.134C152.061 119.997 152.495 119.929 152.974 119.929C153.55 119.929 154.058 120.026 154.497 120.222C154.941 120.417 155.288 120.712 155.537 121.108C155.791 121.499 155.918 121.989 155.918 122.58V126.271C155.918 126.535 155.94 126.816 155.984 127.114C156.033 127.412 156.104 127.668 156.196 127.883V128H154.783C154.714 127.844 154.661 127.636 154.622 127.377C154.583 127.114 154.563 126.87 154.563 126.645ZM154.797 123.195L154.812 124.147H153.442C153.057 124.147 152.712 124.179 152.41 124.243C152.107 124.301 151.853 124.392 151.648 124.514C151.443 124.636 151.287 124.79 151.179 124.975C151.072 125.156 151.018 125.368 151.018 125.612C151.018 125.861 151.074 126.088 151.187 126.293C151.299 126.499 151.467 126.662 151.692 126.784C151.921 126.901 152.202 126.96 152.534 126.96C152.949 126.96 153.315 126.872 153.633 126.696C153.95 126.521 154.202 126.306 154.387 126.052C154.578 125.798 154.68 125.551 154.695 125.312L155.273 125.964C155.239 126.169 155.146 126.396 154.995 126.645C154.844 126.894 154.641 127.133 154.387 127.363C154.138 127.587 153.84 127.775 153.494 127.927C153.152 128.073 152.766 128.146 152.336 128.146C151.799 128.146 151.328 128.042 150.923 127.832C150.522 127.622 150.21 127.341 149.985 126.989C149.766 126.633 149.656 126.235 149.656 125.795C149.656 125.371 149.739 124.997 149.905 124.675C150.071 124.348 150.31 124.077 150.623 123.862C150.935 123.642 151.311 123.476 151.75 123.364C152.19 123.251 152.681 123.195 153.223 123.195H154.797ZM165.491 124.514H162.891L162.876 123.43H165C165.42 123.43 165.769 123.388 166.047 123.305C166.331 123.222 166.543 123.098 166.685 122.932C166.826 122.766 166.897 122.561 166.897 122.316C166.897 122.126 166.855 121.96 166.772 121.818C166.694 121.672 166.575 121.552 166.414 121.459C166.252 121.362 166.052 121.291 165.813 121.247C165.579 121.198 165.303 121.174 164.985 121.174H163.25V128H161.895V120.075H164.985C165.488 120.075 165.94 120.119 166.34 120.207C166.746 120.295 167.09 120.429 167.373 120.61C167.661 120.786 167.881 121.01 168.032 121.284C168.184 121.557 168.259 121.879 168.259 122.25C168.259 122.49 168.21 122.717 168.113 122.932C168.015 123.146 167.871 123.337 167.681 123.503C167.49 123.669 167.256 123.806 166.978 123.913C166.699 124.016 166.379 124.082 166.018 124.111L165.491 124.514ZM165.491 128H162.4L163.074 126.901H165.491C165.867 126.901 166.179 126.855 166.428 126.762C166.677 126.665 166.863 126.528 166.985 126.352C167.112 126.171 167.175 125.957 167.175 125.708C167.175 125.458 167.112 125.246 166.985 125.07C166.863 124.89 166.677 124.753 166.428 124.66C166.179 124.562 165.867 124.514 165.491 124.514H163.433L163.447 123.43H166.018L166.509 123.84C166.943 123.874 167.312 123.981 167.615 124.162C167.917 124.343 168.147 124.572 168.303 124.851C168.459 125.124 168.538 125.422 168.538 125.744C168.538 126.115 168.467 126.442 168.325 126.726C168.188 127.009 167.988 127.246 167.725 127.436C167.461 127.622 167.141 127.763 166.765 127.861C166.389 127.954 165.964 128 165.491 128ZM179.451 123.51V124.609H175.261V123.51H179.451ZM175.547 120.075V128H174.192V120.075H175.547ZM180.549 120.075V128H179.187V120.075H180.549ZM186.021 128.146C185.469 128.146 184.968 128.054 184.519 127.868C184.075 127.678 183.691 127.412 183.369 127.07C183.052 126.728 182.808 126.323 182.637 125.854C182.466 125.385 182.38 124.873 182.38 124.316V124.008C182.38 123.364 182.476 122.79 182.666 122.287C182.856 121.779 183.115 121.35 183.442 120.998C183.77 120.646 184.141 120.38 184.556 120.2C184.971 120.019 185.4 119.929 185.845 119.929C186.411 119.929 186.899 120.026 187.31 120.222C187.725 120.417 188.064 120.69 188.328 121.042C188.591 121.389 188.787 121.799 188.914 122.272C189.041 122.741 189.104 123.254 189.104 123.811V124.418H183.186V123.312H187.749V123.21C187.729 122.858 187.656 122.517 187.529 122.185C187.407 121.853 187.212 121.579 186.943 121.364C186.675 121.149 186.309 121.042 185.845 121.042C185.537 121.042 185.254 121.108 184.995 121.24C184.736 121.367 184.514 121.557 184.329 121.811C184.143 122.065 183.999 122.375 183.896 122.741C183.794 123.107 183.743 123.53 183.743 124.008V124.316C183.743 124.692 183.794 125.046 183.896 125.378C184.004 125.705 184.158 125.993 184.358 126.242C184.563 126.491 184.81 126.687 185.098 126.828C185.391 126.97 185.723 127.041 186.094 127.041C186.572 127.041 186.978 126.943 187.31 126.748C187.642 126.552 187.932 126.291 188.181 125.964L189.001 126.616C188.831 126.875 188.613 127.121 188.35 127.355C188.086 127.59 187.761 127.78 187.375 127.927C186.995 128.073 186.543 128.146 186.021 128.146ZM192.114 120.075H193.469L193.352 123.042C193.323 123.793 193.237 124.443 193.096 124.99C192.954 125.537 192.773 126.003 192.554 126.389C192.334 126.77 192.087 127.089 191.814 127.348C191.545 127.607 191.267 127.824 190.979 128H190.305L190.342 126.894L190.62 126.887C190.781 126.696 190.938 126.501 191.089 126.301C191.24 126.096 191.379 125.854 191.506 125.576C191.633 125.292 191.738 124.948 191.821 124.543C191.909 124.133 191.965 123.632 191.99 123.042L192.114 120.075ZM192.451 120.075H197.219V128H195.864V121.328H192.451V120.075ZM189.998 126.887H198.237V130.336H196.882V128H191.353V130.336H189.99L189.998 126.887ZM203.027 128.146C202.476 128.146 201.975 128.054 201.526 127.868C201.082 127.678 200.698 127.412 200.376 127.07C200.059 126.728 199.814 126.323 199.644 125.854C199.473 125.385 199.387 124.873 199.387 124.316V124.008C199.387 123.364 199.482 122.79 199.673 122.287C199.863 121.779 200.122 121.35 200.449 120.998C200.776 120.646 201.147 120.38 201.562 120.2C201.978 120.019 202.407 119.929 202.852 119.929C203.418 119.929 203.906 120.026 204.316 120.222C204.731 120.417 205.071 120.69 205.334 121.042C205.598 121.389 205.793 121.799 205.92 122.272C206.047 122.741 206.111 123.254 206.111 123.811V124.418H200.193V123.312H204.756V123.21C204.736 122.858 204.663 122.517 204.536 122.185C204.414 121.853 204.219 121.579 203.95 121.364C203.682 121.149 203.315 121.042 202.852 121.042C202.544 121.042 202.261 121.108 202.002 121.24C201.743 121.367 201.521 121.557 201.335 121.811C201.15 122.065 201.006 122.375 200.903 122.741C200.801 123.107 200.75 123.53 200.75 124.008V124.316C200.75 124.692 200.801 125.046 200.903 125.378C201.011 125.705 201.165 125.993 201.365 126.242C201.57 126.491 201.816 126.687 202.104 126.828C202.397 126.97 202.729 127.041 203.101 127.041C203.579 127.041 203.984 126.943 204.316 126.748C204.648 126.552 204.939 126.291 205.188 125.964L206.008 126.616C205.837 126.875 205.62 127.121 205.356 127.355C205.093 127.59 204.768 127.78 204.382 127.927C204.001 128.073 203.55 128.146 203.027 128.146ZM212.988 120.075V121.196H209.158V120.075H212.988ZM214.182 120.075V128H212.827V120.075H214.182ZM208.828 120.075H210.19L209.985 123.898C209.951 124.489 209.895 125.012 209.817 125.466C209.744 125.915 209.641 126.301 209.509 126.623C209.382 126.945 209.221 127.209 209.026 127.414C208.835 127.614 208.606 127.763 208.337 127.861C208.069 127.954 207.759 128 207.407 128H206.982V126.806L207.275 126.784C207.485 126.77 207.664 126.721 207.81 126.638C207.961 126.555 208.088 126.433 208.191 126.271C208.293 126.105 208.376 125.893 208.44 125.634C208.508 125.375 208.56 125.068 208.594 124.711C208.633 124.355 208.662 123.94 208.682 123.466L208.828 120.075ZM220.876 123.437V124.543H216.665V123.437H220.876ZM217.844 120.075V128H216.489V120.075H217.844ZM219.719 124.125V123.957C219.719 123.386 219.802 122.856 219.968 122.368C220.134 121.875 220.374 121.447 220.686 121.086C221.003 120.72 221.382 120.437 221.821 120.236C222.266 120.031 222.764 119.929 223.315 119.929C223.877 119.929 224.38 120.031 224.824 120.236C225.269 120.437 225.647 120.72 225.959 121.086C226.277 121.447 226.519 121.875 226.685 122.368C226.851 122.856 226.934 123.386 226.934 123.957V124.125C226.934 124.697 226.851 125.227 226.685 125.715C226.519 126.203 226.279 126.63 225.967 126.997C225.654 127.358 225.276 127.641 224.832 127.846C224.387 128.046 223.887 128.146 223.33 128.146C222.773 128.146 222.273 128.046 221.829 127.846C221.384 127.641 221.003 127.358 220.686 126.997C220.374 126.63 220.134 126.203 219.968 125.715C219.802 125.227 219.719 124.697 219.719 124.125ZM221.082 123.957V124.125C221.082 124.521 221.128 124.895 221.221 125.246C221.313 125.593 221.453 125.9 221.638 126.169C221.829 126.438 222.063 126.65 222.341 126.806C222.625 126.958 222.954 127.033 223.33 127.033C223.706 127.033 224.033 126.958 224.312 126.806C224.595 126.65 224.829 126.438 225.015 126.169C225.2 125.9 225.339 125.593 225.432 125.246C225.53 124.895 225.579 124.521 225.579 124.125V123.957C225.579 123.566 225.53 123.198 225.432 122.851C225.339 122.5 225.198 122.189 225.007 121.921C224.822 121.647 224.587 121.433 224.304 121.276C224.021 121.12 223.691 121.042 223.315 121.042C222.944 121.042 222.62 121.12 222.341 121.276C222.063 121.433 221.829 121.647 221.638 121.921C221.453 122.189 221.313 122.5 221.221 122.851C221.128 123.198 221.082 123.566 221.082 123.957Z" fill="#3D0751"/>
<defs>
<linearGradient id="paint0_linear_546_3326" x1="220" y1="29" x2="220" y2="261" gradientUnits="userSpaceOnUse">
<stop stop-color="#E8CCEE"/>
<stop offset="0.387873" stop-color="#F0E1F4"/>
<stop offset="0.490872" stop-color="#F2E7F6"/>
<stop offset="0.599364" stop-color="#F0E1F3"/>
<stop offset="1" stop-color="#E8CCEE"/>
</linearGradient>
<linearGradient id="paint1_linear_546_3326" x1="-376.696" y1="-228.268" x2="282.892" y2="646.91" gradientUnits="userSpaceOnUse">
<stop offset="0.461286" stop-color="#841799"/>
<stop offset="0.684967" stop-color="#831598" stop-opacity="0"/>
<stop offset="0.685008" stop-color="#831598"/>
</linearGradient>
<linearGradient id="paint2_linear_546_3326" x1="-440.696" y1="-289.951" x2="351.893" y2="705.801" gradientUnits="userSpaceOnUse">
<stop offset="0.461286" stop-color="#841799"/>
<stop offset="0.659701" stop-color="#831598" stop-opacity="0"/>
<stop offset="0.660524" stop-color="#831598"/>
</linearGradient>
<linearGradient id="paint3_linear_546_3326" x1="-458.696" y1="-304.951" x2="333.893" y2="690.801" gradientUnits="userSpaceOnUse">
<stop offset="0.461286" stop-color="#841799"/>
<stop offset="0.702083" stop-color="#831598" stop-opacity="0"/>
<stop offset="0.702183" stop-color="#831598"/>
</linearGradient>
</defs>
</svg>
