<svg xmlns="http://www.w3.org/2000/svg" width="512" height="512" viewBox="0 0 512 512" fill="none"><rect width="512" height="512" fill="white"></rect><path d="M345.81 104C372.471 104 394.085 124.576 394.085 149.958V177.861H373.396V149.958C373.396 135.454 361.044 123.696 345.81 123.696H154.275C139.04 123.697 126.689 135.454 126.689 149.958V362.042C126.69 376.545 139.04 388.304 154.275 388.304H345.81C361.044 388.304 373.396 376.545 373.396 362.042V335.432H394.085V362.042L394.069 363.229C393.419 387.667 372.727 407.365 347.055 407.984L345.81 408H154.275L153.029 407.984C127.358 407.365 106.666 387.667 106.015 363.229L106 362.042V149.958C106 124.576 127.614 104 154.275 104H345.81Z" fill="#222222"></path><path d="M199.57 321.428C195.257 320.535 192.35 318.839 190.85 316.341C189.537 313.663 188.881 310.807 188.881 307.772C188.881 303.844 190.194 299.828 192.819 295.721C195.444 291.437 197.788 288.223 199.851 286.081C195.726 285.902 192.538 284.742 190.287 282.6C188.037 280.279 186.912 278.316 186.912 276.709C186.912 275.46 187.475 274.835 188.6 274.835C189.537 274.835 190.381 275.102 191.131 275.637C194.882 277.244 199.476 278.048 204.914 278.048C207.164 274.835 210.821 270.104 215.884 263.855C221.134 257.429 227.135 250.288 233.886 242.433C240.824 234.4 248.043 226.366 255.544 218.333C263.232 210.3 270.733 202.891 278.046 196.107C285.548 189.145 292.392 183.611 298.58 179.505C304.956 175.22 310.113 173.078 314.05 173.078C317.8 173.078 321.081 174.149 323.895 176.291C326.895 178.434 329.24 180.576 330.926 182.718C332.802 184.86 333.74 185.931 333.74 185.931C330.176 190.752 326.145 197.892 321.645 207.354C317.143 216.637 312.831 226.991 308.706 238.416C304.768 249.842 301.392 260.999 298.58 271.888C301.392 271.888 303.923 273.049 306.175 275.37C308.613 277.691 309.832 280.102 309.832 282.6C309.832 282.6 308.425 281.976 305.611 280.725C302.799 279.476 299.799 279.03 296.611 279.388C296.047 281.351 295.297 284.386 294.361 288.491C293.609 292.418 292.859 296.704 292.11 301.344C291.36 305.809 290.985 309.914 290.985 313.663C290.985 314.912 290.985 316.072 290.985 317.144C291.173 318.037 291.36 318.93 291.547 319.821C287.422 320.714 284.422 319.197 282.546 315.27C280.86 311.342 280.015 306.611 280.015 301.077C280.015 293.044 281.234 285.725 283.672 279.119C265.483 279.832 250.95 281.262 240.074 283.404C229.385 285.546 221.884 287.421 217.571 289.027C213.821 294.025 210.258 299.649 206.883 305.897C203.508 311.967 201.07 317.144 199.57 321.428ZM225.447 277.244C231.635 276.174 238.667 275.192 246.543 274.299C254.606 273.228 262.201 272.335 269.327 271.621C276.452 270.907 281.984 270.639 285.922 270.818C286.672 268.318 287.985 264.034 289.86 257.964C291.735 251.716 294.078 244.486 296.892 236.274C299.892 228.062 303.456 219.404 307.58 210.3C311.706 201.195 316.393 192.448 321.645 184.057C321.081 183.164 320.145 182.718 318.831 182.718C316.019 182.718 312.081 184.593 307.018 188.342C302.142 191.912 296.516 196.643 290.141 202.534C283.953 208.425 277.484 214.941 270.733 222.082C264.17 229.223 257.794 236.363 251.606 243.504C245.606 250.645 240.261 257.161 235.573 263.052C231.073 268.944 227.697 273.674 225.447 277.244ZM337.65 319.727C335.764 319.727 334.174 319.114 332.884 317.884C331.593 316.655 330.948 314.907 330.948 312.638C330.948 311.599 331.048 310.654 331.247 309.804C331.445 308.858 331.693 308.056 331.991 307.394C332.488 305.976 333.431 304.133 334.821 301.865C336.21 299.596 337.748 297.234 339.436 294.777C341.124 292.225 342.564 289.956 343.755 287.972C345.244 285.515 345.989 283.388 345.989 281.592C345.989 279.608 345.094 278.048 343.308 276.914C342.614 276.441 341.919 276.016 341.224 275.637C340.529 275.166 339.933 274.739 339.436 274.362L335.267 280.742C332.884 283.86 330.402 287.074 327.821 290.382C325.24 293.689 322.759 296.762 320.376 299.596C317.993 302.337 315.957 304.653 314.271 306.542C313.973 306.826 313.675 306.967 313.376 306.967C312.88 306.967 312.483 306.733 312.185 306.26C311.888 305.787 311.937 305.362 312.335 304.983C320.078 296.666 327.126 287.783 333.479 278.332L337.053 272.519C336.657 272.236 336.012 271.621 335.117 270.675C334.324 269.732 333.529 268.691 332.736 267.557C332.04 266.329 331.693 265.288 331.693 264.438C331.693 263.683 331.941 263.115 332.438 262.737C333.033 262.265 334.026 262.028 335.415 262.028C338.791 262.028 340.429 265.479 340.329 272.377C341.72 273.416 343.258 274.221 344.946 274.787C346.634 275.355 348.222 275.921 349.712 276.489C351.3 276.962 352.591 277.669 353.582 278.615C354.575 279.56 355.072 280.978 355.072 282.867C355.072 284.474 354.575 286.365 353.582 288.538C352.689 290.618 351.598 292.461 350.306 294.068C349.215 295.485 347.924 297.187 346.436 299.171C345.046 301.155 343.705 303.14 342.415 305.126C341.124 307.11 340.181 308.906 339.586 310.513C339.089 311.741 338.841 312.638 338.841 313.206C338.841 314.434 339.436 315.05 340.627 315.05C341.72 315.05 343.06 314.623 344.648 313.773C346.732 312.734 348.867 311.268 351.051 309.379C353.336 307.394 355.42 305.362 357.306 303.283C357.901 302.621 358.994 301.392 360.582 299.596C362.17 297.707 363.758 295.721 365.347 293.643C367.035 291.563 368.325 289.909 369.218 288.681C370.311 286.506 371.503 284.238 372.792 281.876C374.083 279.419 375.423 276.914 376.813 274.362H371.154C370.063 274.362 369.516 274.078 369.516 273.512C369.516 273.228 369.765 272.944 370.261 272.661C370.858 272.282 371.651 272.093 372.644 272.093H378.154C379.742 269.352 381.033 267.227 382.025 265.715C383.118 264.108 384.011 262.879 384.706 262.028C387.287 258.91 389.619 256.736 391.704 255.507C393.888 254.184 395.774 253.428 397.364 253.239C398.952 253.05 400.143 252.955 400.936 252.955C399.547 254.373 397.959 256.216 396.173 258.484C394.485 260.752 392.847 263.115 391.257 265.572C389.669 267.936 388.33 270.109 387.237 272.093H404.362C405.453 272.093 406 272.377 406 272.944C406 273.228 405.702 273.559 405.107 273.937C404.61 274.221 403.866 274.362 402.872 274.362H385.897C384.309 277.103 382.869 279.56 381.578 281.733C380.289 283.813 378.997 286.034 377.708 288.397C376.516 290.759 375.027 293.689 373.239 297.187C371.849 300.116 370.858 302.621 370.261 304.701C369.666 306.779 369.368 308.528 369.368 309.945C369.368 311.741 369.765 313.018 370.559 313.773C371.353 314.529 372.296 314.907 373.389 314.907C374.58 314.907 375.97 314.529 377.558 313.773C379.742 312.734 381.926 311.222 384.111 309.236C386.394 307.251 388.478 305.219 390.364 303.14C391.455 302.101 392.449 301.108 393.343 300.164C394.236 299.219 395.08 298.226 395.874 297.187C396.173 296.903 396.421 296.762 396.619 296.762C397.214 296.762 397.512 297.187 397.512 298.037C397.512 298.51 397.314 298.935 396.916 299.312C395.824 300.542 394.733 301.817 393.64 303.14C392.549 304.369 391.407 305.599 390.216 306.826C387.635 309.756 384.656 312.592 381.28 315.332C378.004 318.073 374.133 319.443 369.666 319.443C367.482 319.443 365.646 318.83 364.156 317.6C362.666 316.277 361.922 314.152 361.922 311.222C361.922 309.897 362.072 308.386 362.368 306.685C362.767 305.267 363.213 303.708 363.71 302.006C364.304 300.305 364.949 298.51 365.646 296.619C363.958 298.698 362.12 300.919 360.136 303.283C358.249 305.551 356.461 307.631 354.774 309.52C353.087 311.315 351.648 312.734 350.456 313.773C348.967 314.907 347.031 316.184 344.648 317.6C342.265 319.018 339.933 319.727 337.65 319.727Z" fill="#D72121"></path></svg>