<svg width="275" height="174" viewBox="0 0 275 174" fill="none" xmlns="http://www.w3.org/2000/svg">
<path d="M55.8188 109.493H52.6729V107.841H55.8188C56.3667 107.841 56.8094 107.752 57.147 107.575C57.4845 107.398 57.7308 107.155 57.8857 106.845C58.0462 106.529 58.1265 106.17 58.1265 105.766C58.1265 105.384 58.0462 105.027 57.8857 104.695C57.7308 104.357 57.4845 104.086 57.147 103.881C56.8094 103.677 56.3667 103.574 55.8188 103.574H53.312V114H51.2285V101.914H55.8188C56.7541 101.914 57.5482 102.08 58.2012 102.412C58.8597 102.739 59.3605 103.192 59.7036 103.773C60.0467 104.349 60.2183 105.007 60.2183 105.749C60.2183 106.529 60.0467 107.199 59.7036 107.758C59.3605 108.317 58.8597 108.746 58.2012 109.044C57.5482 109.343 56.7541 109.493 55.8188 109.493ZM65.73 114.166C65.0659 114.166 64.4655 114.058 63.9287 113.842C63.3975 113.621 62.9437 113.314 62.5674 112.921C62.1966 112.528 61.9116 112.066 61.7124 111.535C61.5132 111.003 61.4136 110.431 61.4136 109.816V109.484C61.4136 108.782 61.516 108.145 61.7207 107.575C61.9255 107.005 62.2104 106.518 62.5757 106.114C62.9409 105.705 63.3726 105.392 63.8706 105.176C64.3687 104.96 64.9082 104.853 65.4893 104.853C66.1312 104.853 66.6929 104.96 67.1743 105.176C67.6558 105.392 68.0542 105.696 68.3696 106.089C68.6906 106.477 68.9285 106.939 69.0835 107.476C69.244 108.012 69.3242 108.604 69.3242 109.252V110.107H62.3848V108.671H67.3486V108.513C67.3376 108.153 67.2656 107.816 67.1328 107.5C67.0055 107.185 66.8091 106.931 66.5435 106.737C66.2778 106.543 65.9237 106.446 65.481 106.446C65.1489 106.446 64.8529 106.518 64.5928 106.662C64.3382 106.8 64.1252 107.002 63.9536 107.268C63.7821 107.534 63.6493 107.855 63.5552 108.231C63.4666 108.602 63.4224 109.02 63.4224 109.484V109.816C63.4224 110.209 63.4749 110.575 63.5801 110.912C63.6908 111.244 63.8512 111.535 64.0615 111.784C64.2718 112.033 64.5264 112.229 64.8252 112.373C65.124 112.511 65.4644 112.581 65.8462 112.581C66.3276 112.581 66.7565 112.484 67.1328 112.29C67.5091 112.096 67.8356 111.822 68.1123 111.468L69.1665 112.489C68.9728 112.771 68.721 113.043 68.4111 113.303C68.1012 113.557 67.7222 113.765 67.2739 113.925C66.8312 114.086 66.3166 114.166 65.73 114.166ZM73.043 105.019V114H71.0425V105.019H73.043ZM78.9033 105.019L74.8608 110.422H72.5781L72.3125 108.613H73.981L76.4048 105.019H78.9033ZM76.5625 114L73.8564 110.082L75.4336 108.945L79.1938 114H76.5625ZM79.6006 109.609V109.418C79.6006 108.771 79.6947 108.17 79.8828 107.617C80.071 107.058 80.3421 106.574 80.6963 106.164C81.056 105.749 81.4932 105.428 82.0078 105.201C82.528 104.969 83.1146 104.853 83.7676 104.853C84.4261 104.853 85.0127 104.969 85.5273 105.201C86.0475 105.428 86.4875 105.749 86.8472 106.164C87.2069 106.574 87.4808 107.058 87.6689 107.617C87.8571 108.17 87.9512 108.771 87.9512 109.418V109.609C87.9512 110.256 87.8571 110.857 87.6689 111.41C87.4808 111.964 87.2069 112.448 86.8472 112.863C86.4875 113.272 86.0503 113.593 85.5356 113.826C85.021 114.053 84.4372 114.166 83.7842 114.166C83.1257 114.166 82.5363 114.053 82.0161 113.826C81.5015 113.593 81.0643 113.272 80.7046 112.863C80.3449 112.448 80.071 111.964 79.8828 111.41C79.6947 110.857 79.6006 110.256 79.6006 109.609ZM81.6011 109.418V109.609C81.6011 110.013 81.6426 110.395 81.7256 110.754C81.8086 111.114 81.9386 111.43 82.1157 111.701C82.2928 111.972 82.5197 112.185 82.7964 112.34C83.0731 112.495 83.4023 112.572 83.7842 112.572C84.1549 112.572 84.4759 112.495 84.7471 112.34C85.0238 112.185 85.2507 111.972 85.4277 111.701C85.6048 111.43 85.7349 111.114 85.8179 110.754C85.9064 110.395 85.9507 110.013 85.9507 109.609V109.418C85.9507 109.02 85.9064 108.643 85.8179 108.289C85.7349 107.929 85.6021 107.611 85.4194 107.334C85.2424 107.058 85.0155 106.842 84.7388 106.687C84.4676 106.527 84.1439 106.446 83.7676 106.446C83.3913 106.446 83.0648 106.527 82.7881 106.687C82.5169 106.842 82.2928 107.058 82.1157 107.334C81.9386 107.611 81.8086 107.929 81.7256 108.289C81.6426 108.643 81.6011 109.02 81.6011 109.418ZM94.9653 111.576L97.6382 105.019H99.373L95.646 114H94.2847L90.5659 105.019H92.3008L94.9653 111.576ZM91.7861 105.019V114H89.7856V105.019H91.7861ZM98.1445 114V105.019H100.153V114H98.1445ZM106.354 114.166C105.69 114.166 105.09 114.058 104.553 113.842C104.021 113.621 103.568 113.314 103.191 112.921C102.821 112.528 102.536 112.066 102.336 111.535C102.137 111.003 102.038 110.431 102.038 109.816V109.484C102.038 108.782 102.14 108.145 102.345 107.575C102.549 107.005 102.834 106.518 103.2 106.114C103.565 105.705 103.997 105.392 104.495 105.176C104.993 104.96 105.532 104.853 106.113 104.853C106.755 104.853 107.317 104.96 107.798 105.176C108.28 105.392 108.678 105.696 108.994 106.089C109.315 106.477 109.553 106.939 109.708 107.476C109.868 108.012 109.948 108.604 109.948 109.252V110.107H103.009V108.671H107.973V108.513C107.962 108.153 107.89 107.816 107.757 107.5C107.63 107.185 107.433 106.931 107.167 106.737C106.902 106.543 106.548 106.446 106.105 106.446C105.773 106.446 105.477 106.518 105.217 106.662C104.962 106.8 104.749 107.002 104.578 107.268C104.406 107.534 104.273 107.855 104.179 108.231C104.091 108.602 104.046 109.02 104.046 109.484V109.816C104.046 110.209 104.099 110.575 104.204 110.912C104.315 111.244 104.475 111.535 104.686 111.784C104.896 112.033 105.15 112.229 105.449 112.373C105.748 112.511 106.088 112.581 106.47 112.581C106.952 112.581 107.381 112.484 107.757 112.29C108.133 112.096 108.46 111.822 108.736 111.468L109.791 112.489C109.597 112.771 109.345 113.043 109.035 113.303C108.725 113.557 108.346 113.765 107.898 113.925C107.455 114.086 106.941 114.166 106.354 114.166ZM117.643 108.771V110.348H112.995V108.771H117.643ZM113.576 105.019V114H111.575V105.019H113.576ZM119.087 105.019V114H117.087V105.019H119.087ZM122.848 105.019H124.848L124.749 108.181C124.721 109.1 124.616 109.888 124.433 110.547C124.25 111.205 124.013 111.762 123.719 112.215C123.426 112.664 123.094 113.032 122.723 113.319C122.358 113.607 121.973 113.834 121.569 114H120.98V112.423L121.262 112.406C121.5 112.152 121.705 111.897 121.876 111.643C122.054 111.382 122.203 111.097 122.325 110.788C122.446 110.472 122.541 110.104 122.607 109.684C122.679 109.263 122.726 108.762 122.748 108.181L122.848 105.019ZM123.379 105.019H129.073V114H127.081V106.712H123.379V105.019ZM120.523 112.406H130.302V116.673H128.301V114H122.549V116.673H120.515L120.523 112.406ZM134.336 113.021L136.776 105.019H138.918L135.315 115.37C135.232 115.591 135.125 115.832 134.992 116.092C134.859 116.352 134.685 116.598 134.469 116.831C134.258 117.069 133.996 117.259 133.68 117.403C133.365 117.553 132.983 117.627 132.535 117.627C132.358 117.627 132.186 117.611 132.02 117.578C131.86 117.55 131.707 117.52 131.563 117.486L131.555 115.959C131.611 115.965 131.677 115.97 131.754 115.976C131.837 115.981 131.904 115.984 131.954 115.984C132.286 115.984 132.562 115.942 132.784 115.859C133.005 115.782 133.185 115.655 133.323 115.478C133.467 115.3 133.589 115.062 133.688 114.764L134.336 113.021ZM132.958 105.019L135.091 111.742L135.448 113.851L134.062 114.208L130.8 105.019H132.958ZM143.907 114.166C143.243 114.166 142.642 114.058 142.105 113.842C141.574 113.621 141.12 113.314 140.744 112.921C140.373 112.528 140.088 112.066 139.889 111.535C139.69 111.003 139.59 110.431 139.59 109.816V109.484C139.59 108.782 139.693 108.145 139.897 107.575C140.102 107.005 140.387 106.518 140.752 106.114C141.118 105.705 141.549 105.392 142.047 105.176C142.545 104.96 143.085 104.853 143.666 104.853C144.308 104.853 144.87 104.96 145.351 105.176C145.833 105.392 146.231 105.696 146.546 106.089C146.867 106.477 147.105 106.939 147.26 107.476C147.421 108.012 147.501 108.604 147.501 109.252V110.107H140.562V108.671H145.525V108.513C145.514 108.153 145.442 107.816 145.31 107.5C145.182 107.185 144.986 106.931 144.72 106.737C144.455 106.543 144.1 106.446 143.658 106.446C143.326 106.446 143.03 106.518 142.77 106.662C142.515 106.8 142.302 107.002 142.13 107.268C141.959 107.534 141.826 107.855 141.732 108.231C141.643 108.602 141.599 109.02 141.599 109.484V109.816C141.599 110.209 141.652 110.575 141.757 110.912C141.868 111.244 142.028 111.535 142.238 111.784C142.449 112.033 142.703 112.229 143.002 112.373C143.301 112.511 143.641 112.581 144.023 112.581C144.504 112.581 144.933 112.484 145.31 112.29C145.686 112.096 146.012 111.822 146.289 111.468L147.343 112.489C147.15 112.771 146.898 113.043 146.588 113.303C146.278 113.557 145.899 113.765 145.451 113.925C145.008 114.086 144.493 114.166 143.907 114.166ZM154.399 111.576L157.072 105.019H158.807L155.08 114H153.718L150 105.019H151.734L154.399 111.576ZM151.22 105.019V114H149.219V105.019H151.22ZM157.578 114V105.019H159.587V114H157.578ZM163.314 107.874H165.962C166.737 107.874 167.395 108.004 167.938 108.264C168.48 108.524 168.892 108.887 169.174 109.352C169.462 109.811 169.606 110.337 169.606 110.929C169.606 111.366 169.526 111.773 169.365 112.149C169.205 112.52 168.967 112.843 168.651 113.12C168.341 113.397 167.96 113.613 167.506 113.768C167.058 113.923 166.543 114 165.962 114H161.986V105.019H163.995V112.415H165.962C166.36 112.415 166.679 112.345 166.917 112.207C167.154 112.069 167.326 111.889 167.431 111.667C167.542 111.446 167.597 111.211 167.597 110.962C167.597 110.707 167.542 110.467 167.431 110.24C167.326 110.013 167.154 109.827 166.917 109.684C166.679 109.54 166.36 109.468 165.962 109.468H163.314V107.874ZM173.142 105.019V114H171.142V105.019H173.142ZM177.575 111.078L181.103 105.019H183.103V114H181.103V107.932L177.575 114H175.574V105.019H177.575V111.078ZM180.571 101.565H182.057C182.057 102.025 181.946 102.431 181.725 102.786C181.509 103.134 181.199 103.408 180.795 103.607C180.397 103.807 179.921 103.906 179.368 103.906C178.532 103.906 177.871 103.69 177.384 103.259C176.902 102.822 176.662 102.257 176.662 101.565H178.147C178.147 101.875 178.239 102.149 178.421 102.387C178.61 102.62 178.925 102.736 179.368 102.736C179.805 102.736 180.115 102.62 180.297 102.387C180.48 102.149 180.571 101.875 180.571 101.565ZM191.611 105.019V114H189.611V105.019H191.611ZM197.472 105.019L193.429 110.422H191.146L190.881 108.613H192.549L194.973 105.019H197.472ZM195.131 114L192.425 110.082L194.002 108.945L197.762 114H195.131ZM201.456 113.021L203.896 105.019H206.038L202.436 115.37C202.353 115.591 202.245 115.832 202.112 116.092C201.979 116.352 201.805 116.598 201.589 116.831C201.379 117.069 201.116 117.259 200.8 117.403C200.485 117.553 200.103 117.627 199.655 117.627C199.478 117.627 199.306 117.611 199.14 117.578C198.98 117.55 198.827 117.52 198.684 117.486L198.675 115.959C198.731 115.965 198.797 115.97 198.875 115.976C198.958 115.981 199.024 115.984 199.074 115.984C199.406 115.984 199.682 115.942 199.904 115.859C200.125 115.782 200.305 115.655 200.443 115.478C200.587 115.3 200.709 115.062 200.809 114.764L201.456 113.021ZM200.078 105.019L202.211 111.742L202.568 113.851L201.182 114.208L197.92 105.019H200.078ZM209.192 106.745V117.453H207.192V105.019H209.035L209.192 106.745ZM215.044 109.426V109.601C215.044 110.254 214.967 110.86 214.812 111.418C214.663 111.972 214.438 112.456 214.14 112.871C213.846 113.281 213.484 113.599 213.052 113.826C212.621 114.053 212.123 114.166 211.558 114.166C210.999 114.166 210.509 114.064 210.089 113.859C209.674 113.649 209.322 113.353 209.035 112.971C208.747 112.589 208.514 112.141 208.337 111.626C208.166 111.106 208.044 110.536 207.972 109.916V109.244C208.044 108.585 208.166 107.987 208.337 107.451C208.514 106.914 208.747 106.452 209.035 106.064C209.322 105.677 209.674 105.378 210.089 105.168C210.504 104.958 210.988 104.853 211.542 104.853C212.106 104.853 212.607 104.963 213.044 105.185C213.481 105.4 213.849 105.71 214.148 106.114C214.447 106.513 214.671 106.994 214.82 107.559C214.97 108.118 215.044 108.74 215.044 109.426ZM213.044 109.601V109.426C213.044 109.011 213.005 108.627 212.928 108.272C212.85 107.913 212.729 107.597 212.562 107.326C212.396 107.055 212.183 106.845 211.923 106.695C211.669 106.54 211.362 106.463 211.002 106.463C210.648 106.463 210.343 106.524 210.089 106.646C209.834 106.762 209.621 106.925 209.45 107.135C209.278 107.346 209.145 107.592 209.051 107.874C208.957 108.151 208.891 108.452 208.852 108.779V110.389C208.918 110.788 209.032 111.153 209.192 111.485C209.353 111.817 209.58 112.083 209.873 112.282C210.172 112.475 210.554 112.572 211.019 112.572C211.378 112.572 211.685 112.495 211.94 112.34C212.194 112.185 212.402 111.972 212.562 111.701C212.729 111.424 212.85 111.106 212.928 110.746C213.005 110.386 213.044 110.005 213.044 109.601ZM220.415 112.572C220.742 112.572 221.035 112.509 221.295 112.381C221.561 112.249 221.774 112.066 221.934 111.833C222.1 111.601 222.191 111.333 222.208 111.028H224.092C224.081 111.609 223.91 112.138 223.578 112.614C223.246 113.09 222.806 113.469 222.258 113.751C221.71 114.028 221.104 114.166 220.44 114.166C219.754 114.166 219.156 114.05 218.647 113.817C218.138 113.579 217.715 113.253 217.377 112.838C217.039 112.423 216.785 111.944 216.613 111.402C216.447 110.86 216.364 110.278 216.364 109.659V109.368C216.364 108.748 216.447 108.167 216.613 107.625C216.785 107.077 217.039 106.596 217.377 106.181C217.715 105.766 218.138 105.442 218.647 105.209C219.156 104.972 219.751 104.853 220.432 104.853C221.151 104.853 221.782 104.996 222.324 105.284C222.867 105.566 223.293 105.962 223.603 106.471C223.918 106.975 224.081 107.561 224.092 108.231H222.208C222.191 107.899 222.108 107.6 221.959 107.334C221.815 107.063 221.61 106.847 221.345 106.687C221.085 106.527 220.772 106.446 220.407 106.446C220.003 106.446 219.668 106.529 219.402 106.695C219.137 106.856 218.929 107.077 218.78 107.359C218.63 107.636 218.522 107.949 218.456 108.297C218.395 108.64 218.365 108.997 218.365 109.368V109.659C218.365 110.029 218.395 110.389 218.456 110.738C218.517 111.086 218.622 111.399 218.771 111.676C218.926 111.947 219.137 112.166 219.402 112.332C219.668 112.492 220.006 112.572 220.415 112.572ZM55.3394 126.277V137H53.9844V127.969L51.2524 128.965V127.742L55.127 126.277H55.3394ZM66.311 135.887V137H59.3311V136.026L62.8247 132.137C63.2544 131.658 63.5864 131.253 63.8208 130.921C64.0601 130.584 64.2261 130.284 64.3188 130.02C64.4165 129.751 64.4653 129.478 64.4653 129.2C64.4653 128.848 64.3921 128.531 64.2456 128.248C64.104 127.959 63.894 127.73 63.6157 127.559C63.3374 127.388 63.0005 127.303 62.605 127.303C62.1313 127.303 61.7358 127.396 61.4185 127.581C61.106 127.762 60.8716 128.016 60.7153 128.343C60.5591 128.67 60.481 129.046 60.481 129.471H59.126C59.126 128.87 59.2578 128.321 59.5215 127.823C59.7852 127.325 60.1758 126.929 60.6934 126.636C61.2109 126.338 61.8481 126.189 62.605 126.189C63.2788 126.189 63.855 126.309 64.3335 126.548C64.812 126.783 65.1782 127.115 65.4321 127.544C65.6909 127.969 65.8203 128.467 65.8203 129.039C65.8203 129.351 65.7666 129.668 65.6592 129.991C65.5566 130.308 65.4126 130.625 65.2271 130.943C65.0464 131.26 64.834 131.573 64.5898 131.88C64.3506 132.188 64.0942 132.491 63.8208 132.789L60.9644 135.887H66.311ZM70.7275 131.91V133.023H67.1533V131.91H70.7275ZM76.3599 126.277V137H75.0049V127.969L72.2729 128.965V127.742L76.1475 126.277H76.3599ZM85.5444 126.321H85.6616V127.471H85.5444C84.8267 127.471 84.2261 127.588 83.7427 127.823C83.2593 128.052 82.876 128.362 82.5928 128.753C82.3096 129.139 82.1045 129.573 81.9775 130.057C81.8555 130.54 81.7944 131.031 81.7944 131.529V133.096C81.7944 133.57 81.8506 133.99 81.9629 134.356C82.0752 134.717 82.229 135.022 82.4243 135.271C82.6196 135.521 82.8394 135.708 83.0835 135.835C83.3325 135.962 83.5913 136.026 83.8599 136.026C84.1724 136.026 84.4507 135.967 84.6948 135.85C84.939 135.728 85.144 135.56 85.3101 135.345C85.481 135.125 85.6104 134.866 85.6982 134.568C85.7861 134.271 85.8301 133.943 85.8301 133.587C85.8301 133.27 85.791 132.964 85.7129 132.671C85.6348 132.374 85.5151 132.11 85.354 131.88C85.1929 131.646 84.9902 131.463 84.7461 131.331C84.5068 131.194 84.2212 131.126 83.8892 131.126C83.5132 131.126 83.1616 131.219 82.8345 131.404C82.5122 131.585 82.2461 131.824 82.0361 132.122C81.8311 132.415 81.7139 132.735 81.6846 133.082L80.9668 133.074C81.0352 132.527 81.1621 132.061 81.3477 131.675C81.5381 131.285 81.7725 130.967 82.0508 130.723C82.334 130.474 82.6489 130.293 82.9956 130.181C83.3472 130.064 83.7183 130.005 84.1089 130.005C84.6411 130.005 85.1001 130.105 85.4858 130.306C85.8716 130.506 86.189 130.774 86.438 131.111C86.687 131.443 86.8701 131.819 86.9873 132.239C87.1094 132.654 87.1704 133.082 87.1704 133.521C87.1704 134.024 87.0996 134.495 86.958 134.935C86.8164 135.374 86.604 135.76 86.3208 136.092C86.0425 136.424 85.6982 136.683 85.2881 136.868C84.8779 137.054 84.4019 137.146 83.8599 137.146C83.2837 137.146 82.7808 137.029 82.3511 136.795C81.9214 136.556 81.5649 136.238 81.2817 135.843C80.9985 135.447 80.7861 135.008 80.6445 134.524C80.5029 134.041 80.4321 133.55 80.4321 133.052V132.415C80.4321 131.663 80.5078 130.926 80.6592 130.203C80.8105 129.48 81.0718 128.826 81.4429 128.24C81.8188 127.654 82.3389 127.188 83.0029 126.841C83.667 126.495 84.5142 126.321 85.5444 126.321ZM95.8203 136.033C96.1426 136.033 96.4404 135.967 96.7139 135.835C96.9873 135.704 97.2119 135.523 97.3877 135.293C97.5635 135.059 97.6636 134.793 97.688 134.495H98.9771C98.9526 134.964 98.7939 135.401 98.501 135.806C98.2129 136.207 97.8345 136.531 97.3657 136.78C96.897 137.024 96.3818 137.146 95.8203 137.146C95.2246 137.146 94.7046 137.042 94.2603 136.832C93.8208 136.622 93.4546 136.333 93.1616 135.967C92.8735 135.601 92.6562 135.181 92.5098 134.708C92.3682 134.229 92.2974 133.724 92.2974 133.191V132.884C92.2974 132.352 92.3682 131.849 92.5098 131.375C92.6562 130.896 92.8735 130.474 93.1616 130.108C93.4546 129.742 93.8208 129.454 94.2603 129.244C94.7046 129.034 95.2246 128.929 95.8203 128.929C96.4404 128.929 96.9824 129.056 97.4463 129.31C97.9102 129.559 98.2739 129.9 98.5376 130.335C98.8062 130.765 98.9526 131.253 98.9771 131.8H97.688C97.6636 131.473 97.5708 131.177 97.4097 130.914C97.2534 130.65 97.0386 130.44 96.7651 130.284C96.4966 130.123 96.1816 130.042 95.8203 130.042C95.4053 130.042 95.0562 130.125 94.7729 130.291C94.4946 130.452 94.2725 130.672 94.1064 130.95C93.9453 131.224 93.8281 131.529 93.7549 131.866C93.6865 132.198 93.6523 132.537 93.6523 132.884V133.191C93.6523 133.538 93.6865 133.88 93.7549 134.217C93.8232 134.554 93.938 134.859 94.0991 135.132C94.2651 135.406 94.4873 135.625 94.7656 135.792C95.0488 135.953 95.4004 136.033 95.8203 136.033ZM103.789 137.146C103.237 137.146 102.737 137.054 102.288 136.868C101.843 136.678 101.46 136.412 101.138 136.07C100.82 135.728 100.576 135.323 100.405 134.854C100.234 134.385 100.149 133.873 100.149 133.316V133.008C100.149 132.364 100.244 131.79 100.435 131.287C100.625 130.779 100.884 130.35 101.211 129.998C101.538 129.646 101.909 129.38 102.324 129.2C102.739 129.019 103.169 128.929 103.613 128.929C104.18 128.929 104.668 129.026 105.078 129.222C105.493 129.417 105.833 129.69 106.096 130.042C106.36 130.389 106.555 130.799 106.682 131.272C106.809 131.741 106.873 132.254 106.873 132.811V133.418H100.955V132.312H105.518V132.21C105.498 131.858 105.425 131.517 105.298 131.185C105.176 130.853 104.98 130.579 104.712 130.364C104.443 130.149 104.077 130.042 103.613 130.042C103.306 130.042 103.022 130.108 102.764 130.24C102.505 130.367 102.283 130.557 102.097 130.811C101.912 131.065 101.768 131.375 101.665 131.741C101.562 132.107 101.511 132.53 101.511 133.008V133.316C101.511 133.692 101.562 134.046 101.665 134.378C101.772 134.705 101.926 134.993 102.126 135.242C102.332 135.491 102.578 135.687 102.866 135.828C103.159 135.97 103.491 136.041 103.862 136.041C104.341 136.041 104.746 135.943 105.078 135.748C105.41 135.552 105.701 135.291 105.95 134.964L106.77 135.616C106.599 135.875 106.382 136.121 106.118 136.355C105.854 136.59 105.53 136.78 105.144 136.927C104.763 137.073 104.312 137.146 103.789 137.146ZM113.127 135.645V131.565C113.127 131.253 113.064 130.982 112.937 130.752C112.815 130.518 112.629 130.337 112.38 130.21C112.131 130.083 111.824 130.02 111.458 130.02C111.116 130.02 110.815 130.079 110.557 130.196C110.303 130.313 110.103 130.467 109.956 130.657C109.814 130.848 109.744 131.053 109.744 131.272H108.389C108.389 130.989 108.462 130.708 108.608 130.43C108.755 130.152 108.965 129.9 109.238 129.676C109.517 129.446 109.849 129.266 110.234 129.134C110.625 128.997 111.06 128.929 111.538 128.929C112.114 128.929 112.622 129.026 113.062 129.222C113.506 129.417 113.853 129.712 114.102 130.108C114.355 130.499 114.482 130.989 114.482 131.58V135.271C114.482 135.535 114.504 135.816 114.548 136.114C114.597 136.412 114.668 136.668 114.761 136.883V137H113.347C113.279 136.844 113.225 136.636 113.186 136.377C113.147 136.114 113.127 135.87 113.127 135.645ZM113.362 132.195L113.376 133.147H112.007C111.621 133.147 111.277 133.179 110.974 133.243C110.671 133.301 110.417 133.392 110.212 133.514C110.007 133.636 109.851 133.79 109.744 133.975C109.636 134.156 109.583 134.368 109.583 134.612C109.583 134.861 109.639 135.088 109.751 135.293C109.863 135.499 110.032 135.662 110.256 135.784C110.486 135.901 110.767 135.96 111.099 135.96C111.514 135.96 111.88 135.872 112.197 135.696C112.515 135.521 112.766 135.306 112.952 135.052C113.142 134.798 113.245 134.551 113.259 134.312L113.838 134.964C113.804 135.169 113.711 135.396 113.56 135.645C113.408 135.894 113.206 136.133 112.952 136.363C112.703 136.587 112.405 136.775 112.058 136.927C111.716 137.073 111.331 137.146 110.901 137.146C110.364 137.146 109.893 137.042 109.487 136.832C109.087 136.622 108.774 136.341 108.55 135.989C108.33 135.633 108.22 135.235 108.22 134.795C108.22 134.371 108.303 133.997 108.469 133.675C108.635 133.348 108.875 133.077 109.187 132.862C109.5 132.642 109.875 132.476 110.315 132.364C110.754 132.251 111.245 132.195 111.787 132.195H113.362ZM121.99 132.51V133.609H117.8V132.51H121.99ZM118.086 129.075V137H116.731V129.075H118.086ZM123.088 129.075V137H121.726V129.075H123.088ZM128.442 136.033C128.765 136.033 129.062 135.967 129.336 135.835C129.609 135.704 129.834 135.523 130.01 135.293C130.186 135.059 130.286 134.793 130.31 134.495H131.599C131.575 134.964 131.416 135.401 131.123 135.806C130.835 136.207 130.457 136.531 129.988 136.78C129.519 137.024 129.004 137.146 128.442 137.146C127.847 137.146 127.327 137.042 126.882 136.832C126.443 136.622 126.077 136.333 125.784 135.967C125.496 135.601 125.278 135.181 125.132 134.708C124.99 134.229 124.919 133.724 124.919 133.191V132.884C124.919 132.352 124.99 131.849 125.132 131.375C125.278 130.896 125.496 130.474 125.784 130.108C126.077 129.742 126.443 129.454 126.882 129.244C127.327 129.034 127.847 128.929 128.442 128.929C129.062 128.929 129.604 129.056 130.068 129.31C130.532 129.559 130.896 129.9 131.16 130.335C131.428 130.765 131.575 131.253 131.599 131.8H130.31C130.286 131.473 130.193 131.177 130.032 130.914C129.875 130.65 129.661 130.44 129.387 130.284C129.119 130.123 128.804 130.042 128.442 130.042C128.027 130.042 127.678 130.125 127.395 130.291C127.117 130.452 126.895 130.672 126.729 130.95C126.567 131.224 126.45 131.529 126.377 131.866C126.309 132.198 126.274 132.537 126.274 132.884V133.191C126.274 133.538 126.309 133.88 126.377 134.217C126.445 134.554 126.56 134.859 126.721 135.132C126.887 135.406 127.109 135.625 127.388 135.792C127.671 135.953 128.022 136.033 128.442 136.033ZM132.764 133.125V132.957C132.764 132.386 132.847 131.856 133.013 131.368C133.179 130.875 133.418 130.447 133.73 130.086C134.043 129.72 134.421 129.437 134.866 129.236C135.31 129.031 135.808 128.929 136.36 128.929C136.917 128.929 137.417 129.031 137.861 129.236C138.311 129.437 138.691 129.72 139.004 130.086C139.321 130.447 139.563 130.875 139.729 131.368C139.895 131.856 139.978 132.386 139.978 132.957V133.125C139.978 133.697 139.895 134.227 139.729 134.715C139.563 135.203 139.321 135.63 139.004 135.997C138.691 136.358 138.313 136.641 137.869 136.846C137.429 137.046 136.931 137.146 136.375 137.146C135.818 137.146 135.317 137.046 134.873 136.846C134.429 136.641 134.048 136.358 133.73 135.997C133.418 135.63 133.179 135.203 133.013 134.715C132.847 134.227 132.764 133.697 132.764 133.125ZM134.119 132.957V133.125C134.119 133.521 134.165 133.895 134.258 134.246C134.351 134.593 134.49 134.9 134.675 135.169C134.866 135.438 135.103 135.65 135.386 135.806C135.669 135.958 135.999 136.033 136.375 136.033C136.746 136.033 137.07 135.958 137.349 135.806C137.632 135.65 137.866 135.438 138.052 135.169C138.237 134.9 138.376 134.593 138.469 134.246C138.567 133.895 138.616 133.521 138.616 133.125V132.957C138.616 132.566 138.567 132.198 138.469 131.851C138.376 131.5 138.235 131.189 138.044 130.921C137.859 130.647 137.625 130.433 137.341 130.276C137.063 130.12 136.736 130.042 136.36 130.042C135.989 130.042 135.662 130.12 135.378 130.276C135.1 130.433 134.866 130.647 134.675 130.921C134.49 131.189 134.351 131.5 134.258 131.851C134.165 132.198 134.119 132.566 134.119 132.957ZM145.398 133.514H142.798L142.783 132.43H144.907C145.327 132.43 145.676 132.388 145.955 132.305C146.238 132.222 146.45 132.098 146.592 131.932C146.733 131.766 146.804 131.561 146.804 131.316C146.804 131.126 146.763 130.96 146.68 130.818C146.602 130.672 146.482 130.552 146.321 130.459C146.16 130.362 145.959 130.291 145.72 130.247C145.486 130.198 145.21 130.174 144.893 130.174H143.157V137H141.802V129.075H144.893C145.396 129.075 145.847 129.119 146.248 129.207C146.653 129.295 146.997 129.429 147.28 129.61C147.568 129.786 147.788 130.01 147.939 130.284C148.091 130.557 148.167 130.879 148.167 131.25C148.167 131.49 148.118 131.717 148.02 131.932C147.922 132.146 147.778 132.337 147.588 132.503C147.397 132.669 147.163 132.806 146.885 132.913C146.606 133.016 146.287 133.082 145.925 133.111L145.398 133.514ZM145.398 137H142.307L142.981 135.901H145.398C145.774 135.901 146.086 135.855 146.335 135.762C146.584 135.665 146.77 135.528 146.892 135.352C147.019 135.171 147.083 134.957 147.083 134.708C147.083 134.458 147.019 134.246 146.892 134.07C146.77 133.89 146.584 133.753 146.335 133.66C146.086 133.562 145.774 133.514 145.398 133.514H143.34L143.354 132.43H145.925L146.416 132.84C146.851 132.874 147.219 132.981 147.522 133.162C147.825 133.343 148.054 133.572 148.21 133.851C148.367 134.124 148.445 134.422 148.445 134.744C148.445 135.115 148.374 135.442 148.232 135.726C148.096 136.009 147.896 136.246 147.632 136.436C147.368 136.622 147.048 136.763 146.672 136.861C146.296 136.954 145.872 137 145.398 137Z" fill="#3D0751"/>
<path d="M60.791 34.9141V47H58.7158V36.5742H53.3452V47H51.27V34.9141H60.791ZM65.1074 39.7451V50.4531H63.1069V38.0186H64.9497L65.1074 39.7451ZM70.9595 42.4263V42.6006C70.9595 43.2536 70.882 43.8595 70.7271 44.4185C70.5776 44.9718 70.3535 45.4561 70.0547 45.8711C69.7614 46.2806 69.3989 46.5988 68.9673 46.8257C68.5356 47.0526 68.0376 47.166 67.4731 47.166C66.9142 47.166 66.4245 47.0636 66.0039 46.8589C65.5889 46.6486 65.2375 46.3525 64.9497 45.9707C64.6619 45.5889 64.4295 45.1406 64.2524 44.626C64.0809 44.1058 63.9591 43.5358 63.8872 42.916V42.2437C63.9591 41.5851 64.0809 40.9875 64.2524 40.4507C64.4295 39.9139 64.6619 39.4518 64.9497 39.0645C65.2375 38.6771 65.5889 38.3783 66.0039 38.168C66.4189 37.9577 66.9032 37.8525 67.4565 37.8525C68.021 37.8525 68.5218 37.9632 68.959 38.1846C69.3962 38.4004 69.7642 38.7103 70.063 39.1143C70.3618 39.5127 70.5859 39.9941 70.7354 40.5586C70.8848 41.1175 70.9595 41.7401 70.9595 42.4263ZM68.959 42.6006V42.4263C68.959 42.0112 68.9202 41.6266 68.8428 41.2725C68.7653 40.9128 68.6436 40.5973 68.4775 40.3262C68.3115 40.055 68.0985 39.8447 67.8384 39.6953C67.5838 39.5404 67.2767 39.4629 66.917 39.4629C66.5628 39.4629 66.2585 39.5238 66.0039 39.6455C65.7493 39.7617 65.5363 39.925 65.3647 40.1353C65.1932 40.3455 65.0604 40.5918 64.9663 40.874C64.8722 41.1507 64.8058 41.4523 64.7671 41.7788V43.3892C64.8335 43.7876 64.9469 44.1528 65.1074 44.4849C65.2679 44.8169 65.4948 45.0825 65.7881 45.2817C66.0869 45.4754 66.4688 45.5723 66.9336 45.5723C67.2933 45.5723 67.6004 45.4948 67.855 45.3398C68.1095 45.1849 68.3171 44.9718 68.4775 44.7007C68.6436 44.424 68.7653 44.1058 68.8428 43.7461C68.9202 43.3864 68.959 43.0046 68.959 42.6006ZM72.2793 42.6089V42.418C72.2793 41.7705 72.3734 41.1701 72.5615 40.6167C72.7497 40.0578 73.0208 39.5736 73.375 39.1641C73.7347 38.749 74.1719 38.4281 74.6865 38.2012C75.2067 37.9688 75.7933 37.8525 76.4463 37.8525C77.1048 37.8525 77.6914 37.9688 78.2061 38.2012C78.7262 38.4281 79.1662 38.749 79.5259 39.1641C79.8856 39.5736 80.1595 40.0578 80.3477 40.6167C80.5358 41.1701 80.6299 41.7705 80.6299 42.418V42.6089C80.6299 43.2563 80.5358 43.8568 80.3477 44.4102C80.1595 44.9635 79.8856 45.4478 79.5259 45.8628C79.1662 46.2723 78.729 46.5933 78.2144 46.8257C77.6997 47.0526 77.1159 47.166 76.4629 47.166C75.8044 47.166 75.215 47.0526 74.6948 46.8257C74.1802 46.5933 73.743 46.2723 73.3833 45.8628C73.0236 45.4478 72.7497 44.9635 72.5615 44.4102C72.3734 43.8568 72.2793 43.2563 72.2793 42.6089ZM74.2798 42.418V42.6089C74.2798 43.0129 74.3213 43.3947 74.4043 43.7544C74.4873 44.1141 74.6174 44.4295 74.7944 44.7007C74.9715 44.9718 75.1984 45.1849 75.4751 45.3398C75.7518 45.4948 76.0811 45.5723 76.4629 45.5723C76.8337 45.5723 77.1546 45.4948 77.4258 45.3398C77.7025 45.1849 77.9294 44.9718 78.1064 44.7007C78.2835 44.4295 78.4136 44.1141 78.4966 43.7544C78.5851 43.3947 78.6294 43.0129 78.6294 42.6089V42.418C78.6294 42.0195 78.5851 41.6432 78.4966 41.2891C78.4136 40.9294 78.2808 40.6112 78.0981 40.3345C77.9211 40.0578 77.6942 39.842 77.4175 39.687C77.1463 39.5265 76.8226 39.4463 76.4463 39.4463C76.07 39.4463 75.7435 39.5265 75.4668 39.687C75.1956 39.842 74.9715 40.0578 74.7944 40.3345C74.6174 40.6112 74.4873 40.9294 74.4043 41.2891C74.3213 41.6432 74.2798 42.0195 74.2798 42.418ZM83.3359 38.0186H85.3364L85.2368 41.1812C85.2091 42.0998 85.104 42.8883 84.9214 43.5469C84.7388 44.2054 84.5008 44.7616 84.2075 45.2153C83.9142 45.6636 83.5822 46.0316 83.2114 46.3193C82.8462 46.6071 82.4616 46.834 82.0576 47H81.4683V45.4229L81.7505 45.4062C81.9884 45.1517 82.1932 44.8971 82.3647 44.6426C82.5418 44.3825 82.6912 44.0975 82.813 43.7876C82.9347 43.4722 83.0288 43.1042 83.0952 42.6836C83.1672 42.263 83.2142 41.7622 83.2363 41.1812L83.3359 38.0186ZM83.8672 38.0186H89.5615V47H87.5693V39.7119H83.8672V38.0186ZM81.0117 45.4062H90.79V49.6729H88.7896V47H83.0371V49.6729H81.0034L81.0117 45.4062ZM91.8359 42.6089V42.418C91.8359 41.7705 91.93 41.1701 92.1182 40.6167C92.3063 40.0578 92.5775 39.5736 92.9316 39.1641C93.2913 38.749 93.7285 38.4281 94.2432 38.2012C94.7633 37.9688 95.3499 37.8525 96.0029 37.8525C96.6615 37.8525 97.248 37.9688 97.7627 38.2012C98.2829 38.4281 98.7228 38.749 99.0825 39.1641C99.4422 39.5736 99.7161 40.0578 99.9043 40.6167C100.092 41.1701 100.187 41.7705 100.187 42.418V42.6089C100.187 43.2563 100.092 43.8568 99.9043 44.4102C99.7161 44.9635 99.4422 45.4478 99.0825 45.8628C98.7228 46.2723 98.2856 46.5933 97.771 46.8257C97.2563 47.0526 96.6725 47.166 96.0195 47.166C95.361 47.166 94.7716 47.0526 94.2515 46.8257C93.7368 46.5933 93.2996 46.2723 92.9399 45.8628C92.5802 45.4478 92.3063 44.9635 92.1182 44.4102C91.93 43.8568 91.8359 43.2563 91.8359 42.6089ZM93.8364 42.418V42.6089C93.8364 43.0129 93.8779 43.3947 93.9609 43.7544C94.0439 44.1141 94.174 44.4295 94.3511 44.7007C94.5282 44.9718 94.755 45.1849 95.0317 45.3398C95.3084 45.4948 95.6377 45.5723 96.0195 45.5723C96.3903 45.5723 96.7113 45.4948 96.9824 45.3398C97.2591 45.1849 97.486 44.9718 97.6631 44.7007C97.8402 44.4295 97.9702 44.1141 98.0532 43.7544C98.1418 43.3947 98.186 43.0129 98.186 42.6089V42.418C98.186 42.0195 98.1418 41.6432 98.0532 41.2891C97.9702 40.9294 97.8374 40.6112 97.6548 40.3345C97.4777 40.0578 97.2508 39.842 96.9741 39.687C96.703 39.5265 96.3792 39.4463 96.0029 39.4463C95.6266 39.4463 95.3001 39.5265 95.0234 39.687C94.7523 39.842 94.5282 40.0578 94.3511 40.3345C94.174 40.6112 94.0439 40.9294 93.9609 41.2891C93.8779 41.6432 93.8364 42.0195 93.8364 42.418ZM107.765 38.0186V39.6123H103.382V38.0186H107.765ZM109.334 38.0186V47H107.333V38.0186H109.334ZM102.893 38.0186H104.868L104.627 42.4595C104.594 43.118 104.528 43.6991 104.428 44.2026C104.334 44.7007 104.207 45.1296 104.046 45.4893C103.886 45.8434 103.689 46.1312 103.457 46.3525C103.225 46.5739 102.953 46.7371 102.644 46.8423C102.334 46.9474 101.985 47 101.598 47H100.975L100.967 45.3564L101.282 45.3315C101.487 45.3149 101.664 45.2624 101.813 45.1738C101.963 45.0798 102.09 44.9469 102.195 44.7754C102.306 44.6038 102.395 44.3825 102.461 44.1113C102.533 43.8402 102.588 43.5192 102.627 43.1484C102.671 42.7777 102.704 42.346 102.727 41.8535L102.893 38.0186ZM114.439 43.3726L110.853 38.0186H113.31L115.402 41.5547H117.153L116.896 43.3726H114.439ZM115.452 43.082L113.152 47H110.695L113.949 41.9448L115.452 43.082ZM118.357 38.0186V47H116.365V38.0186H118.357ZM123.894 38.0186L120.308 43.3726H117.842L117.577 41.5547H119.336L121.428 38.0186H123.894ZM121.586 47L119.278 43.082L120.831 41.9448L124.068 47H121.586ZM127.405 44.0781L130.933 38.0186H132.933V47H130.933V40.9321L127.405 47H125.404V38.0186H127.405V44.0781ZM139.217 38.0186V47H137.208V38.0186H139.217ZM142.164 38.0186V39.5957H134.311V38.0186H142.164ZM146.845 47.166C146.181 47.166 145.581 47.0581 145.044 46.8423C144.513 46.6209 144.059 46.3138 143.683 45.9209C143.312 45.528 143.027 45.0659 142.828 44.5347C142.628 44.0034 142.529 43.4307 142.529 42.8164V42.4844C142.529 41.7816 142.631 41.1452 142.836 40.5752C143.041 40.0052 143.326 39.5182 143.691 39.1143C144.056 38.7048 144.488 38.3921 144.986 38.1763C145.484 37.9604 146.023 37.8525 146.604 37.8525C147.246 37.8525 147.808 37.9604 148.29 38.1763C148.771 38.3921 149.169 38.6965 149.485 39.0894C149.806 39.4767 150.044 39.9388 150.199 40.4756C150.359 41.0124 150.439 41.6045 150.439 42.252V43.1069H143.5V41.6709H148.464V41.5132C148.453 41.1535 148.381 40.8159 148.248 40.5005C148.121 40.1851 147.924 39.9305 147.659 39.7368C147.393 39.5431 147.039 39.4463 146.596 39.4463C146.264 39.4463 145.968 39.5182 145.708 39.6621C145.453 39.8005 145.24 40.0024 145.069 40.2681C144.897 40.5337 144.764 40.8547 144.67 41.231C144.582 41.6017 144.538 42.0195 144.538 42.4844V42.8164C144.538 43.2093 144.59 43.5745 144.695 43.9121C144.806 44.2441 144.966 44.5347 145.177 44.7837C145.387 45.0327 145.642 45.2292 145.94 45.373C146.239 45.5114 146.58 45.5806 146.961 45.5806C147.443 45.5806 147.872 45.4837 148.248 45.29C148.624 45.0964 148.951 44.8224 149.228 44.4683L150.282 45.4893C150.088 45.7715 149.836 46.0426 149.526 46.3027C149.216 46.5573 148.837 46.7648 148.389 46.9253C147.946 47.0858 147.432 47.166 146.845 47.166ZM158.035 38.0186V39.6123H153.652V38.0186H158.035ZM159.604 38.0186V47H157.603V38.0186H159.604ZM153.162 38.0186H155.138L154.897 42.4595C154.864 43.118 154.797 43.6991 154.698 44.2026C154.604 44.7007 154.476 45.1296 154.316 45.4893C154.155 45.8434 153.959 46.1312 153.727 46.3525C153.494 46.5739 153.223 46.7371 152.913 46.8423C152.603 46.9474 152.255 47 151.867 47H151.245L151.236 45.3564L151.552 45.3315C151.757 45.3149 151.934 45.2624 152.083 45.1738C152.232 45.0798 152.36 44.9469 152.465 44.7754C152.576 44.6038 152.664 44.3825 152.73 44.1113C152.802 43.8402 152.858 43.5192 152.896 43.1484C152.941 42.7777 152.974 42.346 152.996 41.8535L153.162 38.0186ZM163.214 40.874H165.862C166.637 40.874 167.296 41.0041 167.838 41.2642C168.38 41.5243 168.792 41.8867 169.075 42.3516C169.362 42.8109 169.506 43.3366 169.506 43.9287C169.506 44.3659 169.426 44.7726 169.266 45.1489C169.105 45.5197 168.867 45.8434 168.552 46.1201C168.242 46.3968 167.86 46.6126 167.406 46.7676C166.958 46.9225 166.443 47 165.862 47H161.886V38.0186H163.895V45.4146H165.862C166.261 45.4146 166.579 45.3454 166.817 45.207C167.055 45.0687 167.226 44.8888 167.332 44.6675C167.442 44.4461 167.498 44.2109 167.498 43.9619C167.498 43.7074 167.442 43.4666 167.332 43.2397C167.226 43.0129 167.055 42.8275 166.817 42.6836C166.579 42.5397 166.261 42.4678 165.862 42.4678H163.214V40.874ZM177.243 41.7705V43.3477H172.594V41.7705H177.243ZM173.175 38.0186V47H171.175V38.0186H173.175ZM178.687 38.0186V47H176.687V38.0186H178.687ZM180.438 42.6089V42.418C180.438 41.7705 180.533 41.1701 180.721 40.6167C180.909 40.0578 181.18 39.5736 181.534 39.1641C181.894 38.749 182.331 38.4281 182.846 38.2012C183.366 37.9688 183.952 37.8525 184.605 37.8525C185.264 37.8525 185.851 37.9688 186.365 38.2012C186.885 38.4281 187.325 38.749 187.685 39.1641C188.045 39.5736 188.319 40.0578 188.507 40.6167C188.695 41.1701 188.789 41.7705 188.789 42.418V42.6089C188.789 43.2563 188.695 43.8568 188.507 44.4102C188.319 44.9635 188.045 45.4478 187.685 45.8628C187.325 46.2723 186.888 46.5933 186.374 46.8257C185.859 47.0526 185.275 47.166 184.622 47.166C183.964 47.166 183.374 47.0526 182.854 46.8257C182.339 46.5933 181.902 46.2723 181.542 45.8628C181.183 45.4478 180.909 44.9635 180.721 44.4102C180.533 43.8568 180.438 43.2563 180.438 42.6089ZM182.439 42.418V42.6089C182.439 43.0129 182.48 43.3947 182.563 43.7544C182.646 44.1141 182.777 44.4295 182.954 44.7007C183.131 44.9718 183.358 45.1849 183.634 45.3398C183.911 45.4948 184.24 45.5723 184.622 45.5723C184.993 45.5723 185.314 45.4948 185.585 45.3398C185.862 45.1849 186.089 44.9718 186.266 44.7007C186.443 44.4295 186.573 44.1141 186.656 43.7544C186.744 43.3947 186.789 43.0129 186.789 42.6089V42.418C186.789 42.0195 186.744 41.6432 186.656 41.2891C186.573 40.9294 186.44 40.6112 186.257 40.3345C186.08 40.0578 185.853 39.842 185.577 39.687C185.306 39.5265 184.982 39.4463 184.605 39.4463C184.229 39.4463 183.903 39.5265 183.626 39.687C183.355 39.842 183.131 40.0578 182.954 40.3345C182.777 40.6112 182.646 40.9294 182.563 41.2891C182.48 41.6432 182.439 42.0195 182.439 42.418ZM194.135 45.5723C194.461 45.5723 194.755 45.5086 195.015 45.3813C195.28 45.2485 195.493 45.0659 195.654 44.8335C195.82 44.6011 195.911 44.3327 195.928 44.0283H197.812C197.801 44.6094 197.629 45.1379 197.297 45.6138C196.965 46.0897 196.525 46.4688 195.978 46.751C195.43 47.0277 194.824 47.166 194.16 47.166C193.473 47.166 192.876 47.0498 192.367 46.8174C191.858 46.5794 191.434 46.2529 191.097 45.8379C190.759 45.4229 190.505 44.9442 190.333 44.4019C190.167 43.8595 190.084 43.2785 190.084 42.6587V42.3682C190.084 41.7484 190.167 41.1673 190.333 40.625C190.505 40.0771 190.759 39.5957 191.097 39.1807C191.434 38.7656 191.858 38.4419 192.367 38.2095C192.876 37.9715 193.471 37.8525 194.151 37.8525C194.871 37.8525 195.502 37.9964 196.044 38.2842C196.586 38.5664 197.012 38.9621 197.322 39.4712C197.638 39.9748 197.801 40.5614 197.812 41.231H195.928C195.911 40.8989 195.828 40.6001 195.679 40.3345C195.535 40.0633 195.33 39.8475 195.064 39.687C194.804 39.5265 194.492 39.4463 194.126 39.4463C193.722 39.4463 193.388 39.5293 193.122 39.6953C192.856 39.8558 192.649 40.0771 192.5 40.3594C192.35 40.6361 192.242 40.9487 192.176 41.2974C192.115 41.6405 192.084 41.9974 192.084 42.3682V42.6587C192.084 43.0295 192.115 43.3892 192.176 43.7378C192.237 44.0864 192.342 44.3991 192.491 44.6758C192.646 44.9469 192.856 45.1655 193.122 45.3315C193.388 45.492 193.725 45.5723 194.135 45.5723ZM203.515 38.0186V47H201.506V38.0186H203.515ZM206.461 38.0186V39.5957H198.609V38.0186H206.461ZM209.284 40.874H211.932C212.706 40.874 213.365 41.0041 213.907 41.2642C214.45 41.5243 214.862 41.8867 215.144 42.3516C215.432 42.8109 215.576 43.3366 215.576 43.9287C215.576 44.3659 215.495 44.7726 215.335 45.1489C215.174 45.5197 214.937 45.8434 214.621 46.1201C214.311 46.3968 213.929 46.6126 213.476 46.7676C213.027 46.9225 212.513 47 211.932 47H207.956V38.0186H209.964V45.4146H211.932C212.33 45.4146 212.648 45.3454 212.886 45.207C213.124 45.0687 213.296 44.8888 213.401 44.6675C213.512 44.4461 213.567 44.2109 213.567 43.9619C213.567 43.7074 213.512 43.4666 213.401 43.2397C213.296 43.0129 213.124 42.8275 212.886 42.6836C212.648 42.5397 212.33 42.4678 211.932 42.4678H209.284V40.874ZM50.6738 66.1255V65.957C50.6738 65.3857 50.7568 64.856 50.9229 64.3677C51.0889 63.8745 51.3281 63.4473 51.6406 63.0859C51.9531 62.7197 52.3315 62.4365 52.7759 62.2363C53.2202 62.0312 53.7183 61.9287 54.27 61.9287C54.8267 61.9287 55.3271 62.0312 55.7715 62.2363C56.2207 62.4365 56.6016 62.7197 56.9141 63.0859C57.2314 63.4473 57.4731 63.8745 57.6392 64.3677C57.8052 64.856 57.8882 65.3857 57.8882 65.957V66.1255C57.8882 66.6968 57.8052 67.2266 57.6392 67.7148C57.4731 68.2031 57.2314 68.6304 56.9141 68.9966C56.6016 69.3579 56.2231 69.6411 55.7788 69.8462C55.3394 70.0464 54.8413 70.1465 54.2847 70.1465C53.728 70.1465 53.2275 70.0464 52.7832 69.8462C52.3389 69.6411 51.958 69.3579 51.6406 68.9966C51.3281 68.6304 51.0889 68.2031 50.9229 67.7148C50.7568 67.2266 50.6738 66.6968 50.6738 66.1255ZM52.0288 65.957V66.1255C52.0288 66.521 52.0752 66.8945 52.168 67.2461C52.2607 67.5928 52.3999 67.9004 52.5854 68.1689C52.7759 68.4375 53.0127 68.6499 53.2959 68.8062C53.5791 68.9575 53.9087 69.0332 54.2847 69.0332C54.6558 69.0332 54.9805 68.9575 55.2588 68.8062C55.542 68.6499 55.7764 68.4375 55.9619 68.1689C56.1475 67.9004 56.2866 67.5928 56.3794 67.2461C56.4771 66.8945 56.5259 66.521 56.5259 66.1255V65.957C56.5259 65.5664 56.4771 65.1978 56.3794 64.8511C56.2866 64.4995 56.145 64.1895 55.9546 63.9209C55.769 63.6475 55.5347 63.4326 55.2515 63.2764C54.9731 63.1201 54.646 63.042 54.27 63.042C53.8989 63.042 53.5718 63.1201 53.2886 63.2764C53.0103 63.4326 52.7759 63.6475 52.5854 63.9209C52.3999 64.1895 52.2607 64.4995 52.168 64.8511C52.0752 65.1978 52.0288 65.5664 52.0288 65.957ZM62.6562 62.0752V70H61.2939V62.0752H62.6562ZM65.3149 62.0752V63.1738H58.6865V62.0752H65.3149ZM77.2095 68.8867V70H70.2295V69.0259L73.7231 65.1367C74.1528 64.6582 74.4849 64.2529 74.7192 63.9209C74.9585 63.584 75.1245 63.2837 75.2173 63.02C75.3149 62.7515 75.3638 62.478 75.3638 62.1997C75.3638 61.8481 75.2905 61.5308 75.144 61.2476C75.0024 60.9595 74.7925 60.73 74.5142 60.5591C74.2358 60.3882 73.8989 60.3027 73.5034 60.3027C73.0298 60.3027 72.6343 60.3955 72.3169 60.5811C72.0044 60.7617 71.77 61.0156 71.6138 61.3428C71.4575 61.6699 71.3794 62.0459 71.3794 62.4707H70.0244C70.0244 61.8701 70.1562 61.3208 70.4199 60.8228C70.6836 60.3247 71.0742 59.9292 71.5918 59.6362C72.1094 59.3384 72.7466 59.1895 73.5034 59.1895C74.1772 59.1895 74.7534 59.3091 75.2319 59.5483C75.7104 59.7827 76.0767 60.1147 76.3306 60.5444C76.5894 60.9692 76.7188 61.4673 76.7188 62.0386C76.7188 62.3511 76.665 62.6685 76.5576 62.9907C76.4551 63.3081 76.311 63.6255 76.1255 63.9429C75.9448 64.2603 75.7324 64.5728 75.4883 64.8804C75.249 65.188 74.9927 65.4907 74.7192 65.7886L71.8628 68.8867H77.2095ZM80.3735 64.9243L79.2896 64.646L79.8242 59.3359H85.2954V60.5884H80.9741L80.6519 63.4888C80.8472 63.3765 81.0938 63.2715 81.3916 63.1738C81.6943 63.0762 82.041 63.0273 82.4316 63.0273C82.9248 63.0273 83.3667 63.1128 83.7573 63.2837C84.1479 63.4497 84.48 63.689 84.7534 64.0015C85.0317 64.314 85.2441 64.6899 85.3906 65.1294C85.5371 65.5688 85.6104 66.0596 85.6104 66.6016C85.6104 67.1143 85.5396 67.5854 85.3979 68.0151C85.2612 68.4448 85.0537 68.8208 84.7754 69.1431C84.4971 69.4604 84.1455 69.707 83.7207 69.8828C83.3008 70.0586 82.8052 70.1465 82.2339 70.1465C81.8042 70.1465 81.3965 70.0879 81.0107 69.9707C80.6299 69.8486 80.2881 69.6655 79.9854 69.4214C79.6875 69.1724 79.4434 68.8647 79.2529 68.4985C79.0674 68.1274 78.9502 67.6929 78.9014 67.1948H80.1904C80.249 67.5952 80.3662 67.9321 80.542 68.2056C80.7178 68.479 80.9473 68.6865 81.2305 68.8281C81.5186 68.9648 81.853 69.0332 82.2339 69.0332C82.5562 69.0332 82.8418 68.9771 83.0908 68.8647C83.3398 68.7524 83.5498 68.5913 83.7207 68.3813C83.8916 68.1714 84.021 67.9175 84.1089 67.6196C84.2017 67.3218 84.248 66.9873 84.248 66.6162C84.248 66.2793 84.2017 65.9668 84.1089 65.6787C84.0161 65.3906 83.877 65.1392 83.6914 64.9243C83.5107 64.7095 83.2886 64.5435 83.0249 64.4263C82.7612 64.3042 82.4585 64.2432 82.1167 64.2432C81.6626 64.2432 81.3184 64.3042 81.084 64.4263C80.8545 64.5483 80.6177 64.7144 80.3735 64.9243ZM92.3926 62.0752H93.7476L93.6304 65.0415C93.6011 65.7935 93.5156 66.4429 93.374 66.9897C93.2324 67.5366 93.0518 68.0029 92.832 68.3887C92.6123 68.7695 92.3657 69.0894 92.0923 69.3481C91.8237 69.6069 91.5454 69.8242 91.2573 70H90.5835L90.6201 68.894L90.8984 68.8867C91.0596 68.6963 91.2158 68.501 91.3672 68.3008C91.5186 68.0957 91.6577 67.854 91.7847 67.5757C91.9116 67.2925 92.0166 66.9482 92.0996 66.543C92.1875 66.1328 92.2437 65.6323 92.2681 65.0415L92.3926 62.0752ZM92.7295 62.0752H97.4976V70H96.1426V63.3276H92.7295V62.0752ZM90.2759 68.8867H98.5156V72.3364H97.1606V70H91.6309V72.3364H90.2686L90.2759 68.8867ZM99.6582 66.1255V65.957C99.6582 65.3857 99.7412 64.856 99.9072 64.3677C100.073 63.8745 100.312 63.4473 100.625 63.0859C100.938 62.7197 101.316 62.4365 101.76 62.2363C102.205 62.0312 102.703 61.9287 103.254 61.9287C103.811 61.9287 104.312 62.0312 104.756 62.2363C105.205 62.4365 105.586 62.7197 105.898 63.0859C106.216 63.4473 106.458 63.8745 106.624 64.3677C106.79 64.856 106.873 65.3857 106.873 65.957V66.1255C106.873 66.6968 106.79 67.2266 106.624 67.7148C106.458 68.2031 106.216 68.6304 105.898 68.9966C105.586 69.3579 105.208 69.6411 104.763 69.8462C104.324 70.0464 103.826 70.1465 103.269 70.1465C102.712 70.1465 102.212 70.0464 101.768 69.8462C101.323 69.6411 100.942 69.3579 100.625 68.9966C100.312 68.6304 100.073 68.2031 99.9072 67.7148C99.7412 67.2266 99.6582 66.6968 99.6582 66.1255ZM101.013 65.957V66.1255C101.013 66.521 101.06 66.8945 101.152 67.2461C101.245 67.5928 101.384 67.9004 101.57 68.1689C101.76 68.4375 101.997 68.6499 102.28 68.8062C102.563 68.9575 102.893 69.0332 103.269 69.0332C103.64 69.0332 103.965 68.9575 104.243 68.8062C104.526 68.6499 104.761 68.4375 104.946 68.1689C105.132 67.9004 105.271 67.5928 105.364 67.2461C105.461 66.8945 105.51 66.521 105.51 66.1255V65.957C105.51 65.5664 105.461 65.1978 105.364 64.8511C105.271 64.4995 105.129 64.1895 104.939 63.9209C104.753 63.6475 104.519 63.4326 104.236 63.2764C103.958 63.1201 103.63 63.042 103.254 63.042C102.883 63.042 102.556 63.1201 102.273 63.2764C101.995 63.4326 101.76 63.6475 101.57 63.9209C101.384 64.1895 101.245 64.4995 101.152 64.8511C101.06 65.1978 101.013 65.5664 101.013 65.957ZM117.346 59.3213H117.463V60.4712H117.346C116.628 60.4712 116.028 60.5884 115.544 60.8228C115.061 61.0522 114.678 61.3623 114.395 61.7529C114.111 62.1387 113.906 62.5732 113.779 63.0566C113.657 63.54 113.596 64.0308 113.596 64.5288V66.0962C113.596 66.5698 113.652 66.9897 113.765 67.356C113.877 67.7173 114.031 68.0225 114.226 68.2715C114.421 68.5205 114.641 68.7085 114.885 68.8354C115.134 68.9624 115.393 69.0259 115.662 69.0259C115.974 69.0259 116.252 68.9673 116.497 68.8501C116.741 68.728 116.946 68.5596 117.112 68.3447C117.283 68.125 117.412 67.8662 117.5 67.5684C117.588 67.2705 117.632 66.9434 117.632 66.5869C117.632 66.2695 117.593 65.9644 117.515 65.6714C117.437 65.3735 117.317 65.1099 117.156 64.8804C116.995 64.646 116.792 64.4629 116.548 64.3311C116.309 64.1943 116.023 64.126 115.691 64.126C115.315 64.126 114.963 64.2188 114.636 64.4043C114.314 64.585 114.048 64.8242 113.838 65.1221C113.633 65.415 113.516 65.7349 113.486 66.0815L112.769 66.0742C112.837 65.5273 112.964 65.061 113.149 64.6753C113.34 64.2847 113.574 63.9673 113.853 63.7231C114.136 63.4741 114.451 63.2935 114.797 63.1812C115.149 63.064 115.52 63.0054 115.911 63.0054C116.443 63.0054 116.902 63.1055 117.288 63.3057C117.673 63.5059 117.991 63.7744 118.24 64.1113C118.489 64.4434 118.672 64.8193 118.789 65.2393C118.911 65.6543 118.972 66.0815 118.972 66.521C118.972 67.0239 118.901 67.4951 118.76 67.9346C118.618 68.374 118.406 68.7598 118.123 69.0918C117.844 69.4238 117.5 69.6826 117.09 69.8682C116.68 70.0537 116.204 70.1465 115.662 70.1465C115.085 70.1465 114.583 70.0293 114.153 69.7949C113.723 69.5557 113.367 69.2383 113.083 68.8428C112.8 68.4473 112.588 68.0078 112.446 67.5244C112.305 67.041 112.234 66.5503 112.234 66.0522V65.415C112.234 64.6631 112.31 63.9258 112.461 63.2031C112.612 62.4805 112.874 61.8262 113.245 61.2402C113.621 60.6543 114.141 60.188 114.805 59.8413C115.469 59.4946 116.316 59.3213 117.346 59.3213ZM127.278 63.8184V65.4443C127.278 66.3184 127.2 67.0557 127.043 67.6562C126.887 68.2568 126.663 68.7402 126.37 69.1064C126.077 69.4727 125.723 69.7388 125.308 69.9048C124.897 70.0659 124.434 70.1465 123.916 70.1465C123.506 70.1465 123.127 70.0952 122.781 69.9927C122.434 69.8901 122.122 69.7266 121.843 69.502C121.57 69.2725 121.335 68.9746 121.14 68.6084C120.945 68.2422 120.796 67.7979 120.693 67.2754C120.591 66.7529 120.54 66.1426 120.54 65.4443V63.8184C120.54 62.9443 120.618 62.2119 120.774 61.6211C120.935 61.0303 121.162 60.5566 121.455 60.2002C121.748 59.8389 122.1 59.5801 122.51 59.4238C122.925 59.2676 123.389 59.1895 123.901 59.1895C124.316 59.1895 124.697 59.2407 125.044 59.3433C125.396 59.4409 125.708 59.5996 125.981 59.8193C126.255 60.0342 126.487 60.3223 126.677 60.6836C126.873 61.04 127.021 61.4771 127.124 61.9946C127.227 62.5122 127.278 63.1201 127.278 63.8184ZM125.916 65.6641V63.5913C125.916 63.1128 125.886 62.6929 125.828 62.3315C125.774 61.9653 125.693 61.6528 125.586 61.394C125.479 61.1353 125.342 60.9253 125.176 60.7642C125.015 60.603 124.827 60.4858 124.612 60.4126C124.402 60.3345 124.165 60.2954 123.901 60.2954C123.579 60.2954 123.293 60.3564 123.044 60.4785C122.795 60.5957 122.585 60.7837 122.415 61.0425C122.249 61.3013 122.122 61.6406 122.034 62.0605C121.946 62.4805 121.902 62.9907 121.902 63.5913V65.6641C121.902 66.1426 121.929 66.5649 121.982 66.9312C122.041 67.2974 122.126 67.6147 122.239 67.8833C122.351 68.147 122.488 68.3643 122.649 68.5352C122.81 68.7061 122.996 68.833 123.206 68.916C123.42 68.9941 123.657 69.0332 123.916 69.0332C124.248 69.0332 124.539 68.9697 124.788 68.8428C125.037 68.7158 125.244 68.5181 125.41 68.2495C125.581 67.9761 125.708 67.627 125.791 67.2021C125.874 66.7725 125.916 66.2598 125.916 65.6641ZM137.444 68.1982L140.139 62.0752H141.443L137.913 70H136.975L133.459 62.0752H134.763L137.444 68.1982ZM134.368 62.0752V70H133.013V62.0752H134.368ZM140.476 70V62.0752H141.838V70H140.476ZM145.486 67.854L149.141 62.0752H150.503V70H149.141V64.2212L145.486 70H144.138V62.0752H145.486V67.854ZM158.054 65.5103V66.6089H153.865V65.5103H158.054ZM154.15 62.0752V70H152.795V62.0752H154.15ZM159.153 62.0752V70H157.791V62.0752H159.153Z" fill="#3D0751"/>
</svg>
