<svg width="36" height="36" viewBox="0 0 36 36" fill="none" xmlns="http://www.w3.org/2000/svg">
<g clip-path="url(#clip0_184_110)">
<path d="M36 0H0V36H36V0Z" fill="white"/>
<path d="M24.3148 7.3125C26.1894 7.3125 27.7091 8.75925 27.7091 10.5439V12.5059H26.2544V10.5439C26.2544 9.52411 25.3859 8.69737 24.3148 8.69737H10.8475C9.77625 8.69745 8.90782 9.52411 8.90782 10.5439V25.4561C8.90789 26.4758 9.77625 27.3026 10.8475 27.3026H24.3148C25.3859 27.3026 26.2544 26.4758 26.2544 25.4561V23.5851H27.7091V25.4561L27.708 25.5395C27.6623 27.2578 26.2074 28.6429 24.4023 28.6864L24.3148 28.6875H10.8475L10.7599 28.6864C8.95486 28.6429 7.49995 27.2578 7.45418 25.5395L7.45312 25.4561V10.5439C7.45312 8.75925 8.97286 7.3125 10.8475 7.3125H24.3148Z" fill="#222222"/>
<path d="M14.0322 22.6003C13.729 22.5375 13.5246 22.4183 13.4191 22.2426C13.3268 22.0543 13.2807 21.8535 13.2807 21.6401C13.2807 21.3639 13.373 21.0815 13.5575 20.7928C13.7421 20.4916 13.9069 20.2656 14.052 20.115C13.7619 20.1024 13.5378 20.0208 13.3795 19.8702C13.2213 19.707 13.1422 19.569 13.1422 19.456C13.1422 19.3682 13.1818 19.3242 13.2609 19.3242C13.3268 19.3242 13.3861 19.343 13.4389 19.3806C13.7026 19.4936 14.0256 19.5501 14.408 19.5501C14.5662 19.3242 14.8233 18.9916 15.1793 18.5522C15.5484 18.1004 15.9704 17.5983 16.4451 17.046C16.9329 16.4811 17.4405 15.9162 17.9679 15.3514C18.5085 14.7866 19.0359 14.2657 19.5501 13.7887C20.0776 13.2991 20.5588 12.91 20.9939 12.6213C21.4422 12.32 21.8048 12.1694 22.0816 12.1694C22.3453 12.1694 22.576 12.2447 22.7738 12.3953C22.9848 12.546 23.1496 12.6966 23.2682 12.8472C23.4001 12.9979 23.4661 13.0732 23.4661 13.0732C23.2155 13.4121 22.932 13.9142 22.6156 14.5795C22.2991 15.2322 21.9959 15.9602 21.7059 16.7635C21.429 17.5669 21.1916 18.3514 20.9939 19.117C21.1916 19.117 21.3695 19.1986 21.5279 19.3618C21.6993 19.525 21.785 19.6946 21.785 19.8702C21.785 19.8702 21.6861 19.8263 21.4882 19.7384C21.2905 19.6505 21.0796 19.6192 20.8554 19.6444C20.8158 19.7824 20.763 19.9958 20.6972 20.2844C20.6443 20.5605 20.5916 20.8619 20.5389 21.1881C20.4862 21.5021 20.4598 21.7907 20.4598 22.0543C20.4598 22.1421 20.4598 22.2237 20.4598 22.2991C20.4731 22.3619 20.4862 22.4247 20.4994 22.4873C20.2093 22.5501 19.9984 22.4434 19.8665 22.1673C19.7479 21.8911 19.6885 21.5585 19.6885 21.1694C19.6885 20.6045 19.7742 20.0899 19.9456 19.6254C18.6667 19.6756 17.6449 19.7761 16.8802 19.9267C16.1286 20.0773 15.6012 20.2092 15.2979 20.3221C15.0343 20.6735 14.7837 21.069 14.5464 21.5083C14.3091 21.9351 14.1377 22.2991 14.0322 22.6003ZM15.8517 19.4936C16.2868 19.4184 16.7812 19.3493 17.335 19.2865C17.9019 19.2112 18.436 19.1484 18.937 19.0982C19.438 19.048 19.827 19.0292 20.1039 19.0418C20.1566 18.866 20.2489 18.5648 20.3807 18.138C20.5126 17.6987 20.6773 17.1903 20.8752 16.6129C21.0861 16.0355 21.3367 15.4267 21.6267 14.7866C21.9168 14.1464 22.2463 13.5314 22.6156 12.9414C22.576 12.8786 22.5102 12.8472 22.4178 12.8472C22.22 12.8472 21.9432 12.9791 21.5872 13.2427C21.2443 13.4937 20.8487 13.8263 20.4005 14.2406C19.9654 14.6548 19.5106 15.1129 19.0359 15.615C18.5744 16.1171 18.1261 16.6192 17.691 17.1213C17.2691 17.6234 16.8933 18.0815 16.5637 18.4957C16.2473 18.91 16.0099 19.2426 15.8517 19.4936ZM23.741 22.4807C23.6084 22.4807 23.4966 22.4376 23.4059 22.3511C23.3151 22.2647 23.2697 22.1418 23.2697 21.9822C23.2697 21.9092 23.2768 21.8427 23.2908 21.783C23.3047 21.7165 23.3221 21.6601 23.3431 21.6135C23.378 21.5138 23.4443 21.3842 23.5421 21.2248C23.6397 21.0652 23.7479 20.8992 23.8666 20.7264C23.9852 20.547 24.0865 20.3874 24.1702 20.2479C24.2749 20.0752 24.3273 19.9256 24.3273 19.7993C24.3273 19.6598 24.2644 19.5501 24.1388 19.4704C24.09 19.4371 24.0411 19.4073 23.9923 19.3806C23.9434 19.3475 23.9015 19.3175 23.8666 19.291L23.5734 19.7396C23.4059 19.9588 23.2314 20.1848 23.0499 20.4174C22.8684 20.6499 22.694 20.866 22.5264 21.0652C22.3588 21.258 22.2157 21.4208 22.0971 21.5536C22.0762 21.5736 22.0552 21.5835 22.0342 21.5835C21.9993 21.5835 21.9714 21.5671 21.9505 21.5338C21.9296 21.5005 21.933 21.4707 21.961 21.444C22.5054 20.8592 23.001 20.2346 23.4477 19.5701L23.699 19.1614C23.6712 19.1415 23.6258 19.0982 23.5629 19.0317C23.5071 18.9654 23.4512 18.8922 23.3955 18.8125C23.3465 18.7261 23.3221 18.6529 23.3221 18.5932C23.3221 18.5401 23.3396 18.5002 23.3745 18.4736C23.4163 18.4404 23.4862 18.4237 23.5838 18.4237C23.8212 18.4237 23.9364 18.6664 23.9293 19.1514C24.0271 19.2245 24.1353 19.281 24.254 19.3208C24.3727 19.3608 24.4843 19.4006 24.5891 19.4405C24.7007 19.4738 24.7915 19.5235 24.8612 19.59C24.931 19.6564 24.966 19.7562 24.966 19.889C24.966 20.002 24.931 20.1349 24.8612 20.2877C24.7984 20.434 24.7217 20.5636 24.6309 20.6765C24.5541 20.7762 24.4634 20.8958 24.3587 21.0353C24.261 21.1748 24.1667 21.3144 24.076 21.4541C23.9852 21.5936 23.9189 21.7198 23.8771 21.8328C23.8422 21.9192 23.8247 21.9822 23.8247 22.0222C23.8247 22.1085 23.8666 22.1518 23.9503 22.1518C24.0271 22.1518 24.1214 22.1218 24.233 22.0621C24.3796 21.989 24.5297 21.8859 24.6832 21.7531C24.8439 21.6135 24.9904 21.4707 25.123 21.3245C25.1649 21.2779 25.2417 21.1915 25.3534 21.0652C25.465 20.9324 25.5767 20.7928 25.6884 20.6467C25.8071 20.5004 25.8978 20.3841 25.9606 20.2978C26.0375 20.1448 26.1213 19.9854 26.2119 19.8193C26.3027 19.6465 26.3969 19.4704 26.4946 19.291H26.0967C26.02 19.291 25.9816 19.271 25.9816 19.2312C25.9816 19.2112 25.9991 19.1913 26.0339 19.1714C26.0759 19.1447 26.1317 19.1314 26.2015 19.1314H26.5889C26.7006 18.9387 26.7913 18.7893 26.8611 18.683C26.9379 18.57 27.0007 18.4836 27.0496 18.4237C27.2311 18.2045 27.395 18.0516 27.5416 17.9652C27.6952 17.8722 27.8278 17.819 27.9396 17.8058C28.0513 17.7925 28.135 17.7858 28.1908 17.7858C28.0931 17.8855 27.9815 18.0151 27.8559 18.1745C27.7372 18.334 27.622 18.5002 27.5102 18.6729C27.3986 18.8391 27.3044 18.9919 27.2276 19.1314H28.4317C28.5084 19.1314 28.5468 19.1514 28.5468 19.1913C28.5468 19.2112 28.5259 19.2345 28.484 19.2611C28.4491 19.2811 28.3968 19.291 28.3269 19.291H27.1333C27.0217 19.4837 26.9204 19.6564 26.8297 19.8092C26.739 19.9555 26.6482 20.1117 26.5576 20.2778C26.4737 20.4439 26.369 20.6499 26.2433 20.8958C26.1456 21.1018 26.0759 21.2779 26.0339 21.4242C25.9921 21.5703 25.9711 21.6933 25.9711 21.7929C25.9711 21.9192 25.9991 22.009 26.0549 22.0621C26.1107 22.1152 26.177 22.1418 26.2539 22.1418C26.3376 22.1418 26.4354 22.1152 26.547 22.0621C26.7006 21.989 26.8541 21.8827 27.0078 21.743C27.1683 21.6035 27.3148 21.4606 27.4474 21.3144C27.5241 21.2414 27.594 21.1715 27.6569 21.1052C27.7197 21.0387 27.779 20.9689 27.8349 20.8958C27.8559 20.8759 27.8733 20.866 27.8872 20.866C27.9291 20.866 27.95 20.8958 27.95 20.9556C27.95 20.9889 27.9361 21.0188 27.9081 21.0453C27.8313 21.1317 27.7546 21.2214 27.6778 21.3144C27.6011 21.4008 27.5208 21.4873 27.437 21.5736C27.2555 21.7796 27.0461 21.979 26.8087 22.1717C26.5784 22.3644 26.3062 22.4607 25.9921 22.4607C25.8385 22.4607 25.7094 22.4176 25.6047 22.3311C25.4999 22.2381 25.4476 22.0887 25.4476 21.8827C25.4476 21.7895 25.4581 21.6833 25.479 21.5637C25.507 21.464 25.5384 21.3544 25.5733 21.2347C25.6151 21.1151 25.6604 20.9889 25.7094 20.8559C25.5908 21.0021 25.4615 21.1583 25.322 21.3245C25.1893 21.4839 25.0636 21.6302 24.945 21.763C24.8264 21.8892 24.7252 21.989 24.6414 22.0621C24.5367 22.1418 24.4006 22.2316 24.233 22.3311C24.0655 22.4308 23.9015 22.4807 23.741 22.4807Z" fill="#D72121"/>
</g>
<defs>
<clipPath id="clip0_184_110">
<rect width="36" height="36" fill="white"/>
</clipPath>
</defs>
</svg>
